<svg width="390" height="235" viewBox="0 0 390 235" fill="none" xmlns="http://www.w3.org/2000/svg">
<path d="M379.86 94.8661L375.641 106.783L378.632 108.074L382.852 96.1569L379.86 94.8661Z" fill="#367CFF"/>
<path d="M116.292 65.6442L113.899 68.0098L121.632 77.5411L124.024 75.1755L116.292 65.6442Z" fill="#FF8A00"/>
<path d="M151.742 108.304L142.466 115.975L144.392 118.813L153.668 111.142L151.742 108.304Z" fill="#367CFF"/>
<path d="M259.032 20.2791L256.831 22.8613L265.271 31.6301L267.472 29.0479L259.032 20.2791Z" fill="#367CFF"/>
<path d="M197.656 23.1305L191.879 34.2236L194.664 35.9908L200.44 24.8977L197.656 23.1305Z" fill="#FF8A00"/>
<path d="M281.539 117.994L278.823 119.887L285.009 130.707L287.725 128.815L281.539 117.994Z" fill="#FF8A00"/>
<path d="M155.593 170.685L152.72 172.27L157.899 183.716L160.773 182.132L155.593 170.685Z" fill="#FF8A00"/>
<path d="M113.558 140.569L110.23 152.825L113.306 153.843L116.634 141.587L113.558 140.569Z" fill="#367CFF"/>
<path d="M314.613 178.76L304.987 185.887L306.776 188.832L316.402 181.705L314.613 178.76Z" fill="#367CFF"/>
<path d="M316.055 -1.40147e-05L310.279 11.0928L313.063 12.8599L318.84 1.7671L316.055 -1.40147e-05Z" fill="#FF8A00"/>
<path d="M305.515 76.029L303.589 78.8672L312.865 86.538L314.791 83.6998L305.515 76.029Z" fill="#FF8A00"/>
<path d="M44.946 23.7488L36.5051 32.5176L38.7061 35.0998L47.147 26.331L44.946 23.7488Z" fill="#367CFF"/>
<path d="M138.438 13.3071L135.654 15.0742L141.43 26.1673L144.215 24.4001L138.438 13.3071Z" fill="#367CFF"/>
<path d="M24.8677 152.586L18.6824 163.407L21.3985 165.299L27.5838 154.478L24.8677 152.586Z" fill="#FF8A00"/>
<path d="M-2.52941 182.227L-4.31836 185.174L5.31296 192.301L7.10191 189.354L-2.52941 182.227Z" fill="#367CFF"/>
<path d="M369.053 40.9223L366.269 42.6895L372.045 53.7823L374.83 52.0151L369.053 40.9223Z" fill="#367CFF"/>
<path d="M248.382 71.1528L240.649 80.6841L243.042 83.0496L250.774 73.5183L248.382 71.1528Z" fill="#367CFF"/>
<path d="M180.501 178.587L175.321 190.033L178.194 191.617L183.374 180.171L180.501 178.587Z" fill="#FF8A00"/>
<path d="M222.538 148.47L219.462 149.488L222.79 161.744L225.866 160.726L222.538 148.47Z" fill="#367CFF"/>
<path d="M223.573 155.464L212.626 146.278C212.386 146.076 212.11 145.932 211.816 145.854C211.522 145.777 211.217 145.768 210.92 145.827C210.622 145.887 210.34 146.015 210.09 146.202C209.839 146.389 209.627 146.631 209.466 146.914C209.185 147.445 209.092 148.074 209.206 148.677C209.319 149.28 209.632 149.815 210.083 150.178L212.43 152.147L202.474 149.694C201.371 149.4 199.847 149.817 199.63 151.205C199.515 151.733 199.565 152.288 199.773 152.78C199.98 153.272 200.332 153.673 200.772 153.915C200.767 153.926 200.763 153.937 200.76 153.949C200.76 153.958 200.76 153.967 200.76 153.977L199.06 153.523C198.745 153.439 198.417 153.434 198.1 153.508C197.782 153.582 197.484 153.733 197.227 153.95C196.969 154.167 196.759 154.445 196.611 154.764C196.463 155.082 196.382 155.433 196.372 155.79C196.367 156.354 196.538 156.902 196.856 157.343C197.173 157.784 197.618 158.091 198.116 158.214L198.839 158.406C198.844 158.432 198.852 158.457 198.865 158.479C198.348 158.474 197.847 158.672 197.451 159.037C197.055 159.403 196.789 159.912 196.701 160.474C196.622 161.091 196.756 161.719 197.078 162.233C197.399 162.746 197.884 163.106 198.436 163.242L200.234 163.721C200.204 163.735 200.178 163.755 200.157 163.782C200.136 163.808 200.121 163.84 200.113 163.874C200.106 163.915 200.11 163.958 200.124 163.997C199.663 164.133 199.255 164.433 198.964 164.85C198.672 165.267 198.513 165.779 198.51 166.305C198.517 166.859 198.694 167.393 199.011 167.822C199.327 168.251 199.766 168.55 200.256 168.669L215.421 172.714C217.542 173.279 219.769 173.133 221.814 172.293C223.86 171.452 225.632 169.957 226.903 167.998C227.999 166.309 228.455 164.215 228.174 162.161C227.893 160.106 226.898 158.254 225.4 156.997L223.573 155.464Z" fill="#E98862"/>
<g opacity="0.2">
<path d="M210.617 156.398C210.604 156.454 210.572 156.503 210.527 156.533C210.483 156.564 210.429 156.574 210.378 156.561L200.911 154.212C200.885 154.206 200.861 154.194 200.839 154.177C200.818 154.16 200.8 154.139 200.785 154.114C200.771 154.09 200.762 154.062 200.757 154.033C200.753 154.005 200.754 153.975 200.759 153.947C200.765 153.918 200.776 153.892 200.791 153.868C200.806 153.844 200.826 153.824 200.848 153.808C200.87 153.793 200.895 153.782 200.921 153.777C200.947 153.772 200.974 153.773 200.999 153.779L210.466 156.128C210.491 156.135 210.516 156.147 210.538 156.164C210.559 156.18 210.578 156.202 210.592 156.227C210.606 156.251 210.615 156.279 210.62 156.308C210.624 156.336 210.623 156.366 210.617 156.394L210.617 156.398Z" fill="#0C0C0C"/>
</g>
<g opacity="0.2">
<path d="M209.794 161.036C209.782 161.093 209.749 161.142 209.704 161.172C209.659 161.203 209.605 161.213 209.554 161.199L198.989 158.58C198.963 158.573 198.939 158.561 198.917 158.545C198.895 158.528 198.877 158.506 198.863 158.482C198.849 158.457 198.839 158.429 198.835 158.401C198.83 158.372 198.831 158.342 198.837 158.314C198.85 158.257 198.883 158.209 198.928 158.177C198.972 158.146 199.026 158.135 199.078 158.146L209.643 160.766C209.669 160.772 209.693 160.784 209.715 160.801C209.736 160.818 209.755 160.839 209.769 160.864C209.783 160.889 209.792 160.916 209.797 160.945C209.801 160.974 209.8 161.003 209.794 161.032V161.036Z" fill="#0C0C0C"/>
</g>
<g opacity="0.2">
<path d="M208.929 166.065C208.917 166.121 208.885 166.169 208.84 166.2C208.795 166.23 208.742 166.24 208.691 166.227L200.263 164.138C200.211 164.125 200.166 164.09 200.138 164.04C200.109 163.991 200.1 163.931 200.111 163.873C200.123 163.816 200.155 163.766 200.2 163.735C200.245 163.703 200.299 163.693 200.351 163.706L208.778 165.795C208.804 165.801 208.829 165.813 208.85 165.83C208.872 165.847 208.891 165.868 208.905 165.893C208.919 165.918 208.928 165.945 208.933 165.974C208.937 166.003 208.937 166.032 208.931 166.061L208.929 166.065Z" fill="#0C0C0C"/>
</g>
<path d="M171.602 92.2782L177.714 78.68C177.848 78.3812 178.037 78.1166 178.269 77.9029C178.501 77.6893 178.771 77.5313 179.061 77.4391C179.352 77.3469 179.656 77.3224 179.956 77.3673C180.255 77.4121 180.543 77.5253 180.8 77.6996C181.267 78.0376 181.604 78.5548 181.745 79.151C181.885 79.7473 181.821 80.3801 181.563 80.9267L180.252 83.8426L188.185 76.7631C189.055 75.9587 190.588 75.586 191.341 76.7224C191.656 77.1388 191.835 77.661 191.847 78.2037C191.859 78.7465 191.704 79.2778 191.408 79.7109C191.416 79.7181 191.425 79.7263 191.432 79.7353C191.436 79.7431 191.44 79.7513 191.444 79.7597L192.785 78.5187C193.034 78.2891 193.325 78.1237 193.639 78.0344C193.953 77.9451 194.281 77.9342 194.599 78.0025C194.917 78.0709 195.217 78.2167 195.478 78.4293C195.738 78.642 195.952 78.9162 196.105 79.2318C196.336 79.7343 196.403 80.309 196.296 80.86C196.189 81.4109 195.914 81.9046 195.517 82.2585L194.947 82.7864C194.953 82.8116 194.955 82.8379 194.953 82.864C195.413 82.6062 195.942 82.5376 196.444 82.6705C196.946 82.8034 197.389 83.1292 197.693 83.5895C198.013 84.1041 198.145 84.7329 198.063 85.3503C197.981 85.9677 197.691 86.5283 197.251 86.9202L195.834 88.2308C195.866 88.2278 195.898 88.2332 195.927 88.2466C195.957 88.26 195.983 88.281 196.004 88.3079C196.027 88.3415 196.041 88.3816 196.044 88.4236C196.512 88.3196 196.998 88.3883 197.427 88.619C197.856 88.8497 198.205 89.2297 198.419 89.7005C198.635 90.1999 198.692 90.7653 198.581 91.3049C198.469 91.8446 198.196 92.327 197.806 92.674L185.846 103.734C184.173 105.281 182.119 106.242 179.949 106.492C177.778 106.742 175.589 106.271 173.662 105.139C172.001 104.163 170.75 102.511 170.175 100.533C169.6 98.5551 169.746 96.4076 170.582 94.5466L171.602 92.2782Z" fill="#E98862"/>
<g opacity="0.2">
<path d="M183.586 86.7607C183.62 86.8054 183.669 86.8335 183.721 86.8389C183.774 86.8443 183.826 86.8265 183.867 86.7895L191.404 80.0447C191.446 80.0077 191.472 79.9541 191.477 79.8956C191.483 79.8371 191.467 79.7786 191.434 79.7329C191.4 79.6873 191.352 79.6582 191.299 79.6521C191.246 79.646 191.193 79.6633 191.151 79.7004L183.614 86.4452C183.573 86.4821 183.547 86.5354 183.541 86.5935C183.536 86.6516 183.551 86.7098 183.584 86.7554L183.586 86.7607Z" fill="#0C0C0C"/>
</g>
<g opacity="0.2">
<path d="M186.189 90.5136C186.223 90.5582 186.272 90.5861 186.324 90.5915C186.377 90.5968 186.429 90.579 186.47 90.5419L194.882 83.0148C194.923 82.9778 194.949 82.9245 194.954 82.8664C194.96 82.8083 194.944 82.7501 194.911 82.7046C194.877 82.661 194.829 82.6333 194.776 82.6272C194.724 82.6212 194.672 82.6371 194.63 82.6718L186.216 90.1975C186.175 90.2345 186.149 90.2878 186.143 90.3459C186.137 90.404 186.153 90.4622 186.186 90.5078L186.189 90.5136Z" fill="#0C0C0C"/>
</g>
<g opacity="0.2">
<path d="M188.987 94.5948C189.021 94.6395 189.07 94.6676 189.122 94.673C189.175 94.6784 189.227 94.6606 189.268 94.6236L195.978 88.6194C196.019 88.5824 196.046 88.5288 196.051 88.4703C196.057 88.4118 196.041 88.3533 196.007 88.3077C195.974 88.262 195.925 88.2329 195.872 88.2268C195.819 88.2207 195.766 88.238 195.725 88.2751L189.014 94.2793C188.973 94.3162 188.946 94.3695 188.941 94.4276C188.935 94.4858 188.951 94.5439 188.984 94.5895L188.987 94.5948Z" fill="#0C0C0C"/>
</g>
<path d="M34.4361 80.6197C34.4361 80.6197 33.5741 94.8978 30.6646 100.077C22.2876 114.99 19.8607 131.766 28.2494 140.532C36.6381 149.297 90.144 149.419 94.1976 129.259C97.6101 112.286 90.2869 110.461 88.5048 96.461C87.6986 90.1257 85.4805 76.8413 85.4805 76.8413" fill="#0A0A0A"/>
<path d="M80.3492 126.303C80.2569 126.289 79.232 145.064 59.4752 143.428C45.798 142.296 40.9213 126.275 40.6082 126.275C42.0828 125.929 44.5658 125.426 45.2206 125.04C47.3745 123.763 50.0383 122.433 50.7336 117.816C51.1351 115.156 50.4546 101.54 50.6638 98.8462L71.6582 104.021C71.3647 109.708 69.3116 122.891 76.508 125.224C77.7052 125.611 78.9951 125.966 80.3492 126.303Z" fill="#E98862"/>
<path opacity="0.5" d="M71.9527 119.837C71.6239 118.667 71.4121 117.461 71.3212 116.24C71.0905 113.454 71.1366 110.648 71.4585 107.873C67.1916 107.237 63.1719 105.293 59.856 102.261C59.4662 103.85 57.322 110.795 57.9157 112.306C59.037 115.161 64.3095 119.837 71.9527 119.837Z" fill="#0C0C0C"/>
<path d="M69.2378 113.988C60.9603 114.875 50.2507 111.217 48.0322 99.048L46.0305 88.0679C43.8119 75.899 47.803 64.7478 58.1814 62.4418C68.5601 60.1371 78.1159 68.2767 80.3344 80.446L81.2209 85.3071C82.072 89.9763 84.0059 112.41 69.2378 113.988Z" fill="#E98862"/>
<path opacity="0.1" d="M63.9765 98.041C65.3386 97.8616 66.3462 96.822 66.227 95.719C66.1078 94.616 64.9069 93.8673 63.5448 94.0467C62.1826 94.2261 61.175 95.2657 61.2942 96.3687C61.4134 97.4717 62.6143 98.2204 63.9765 98.041Z" fill="#0C0C0C"/>
<path opacity="0.1" d="M78.3698 93.6315C78.4902 94.7329 79.6926 95.4806 81.0548 95.3033C81.2902 95.2721 81.522 95.214 81.7465 95.13C81.8099 93.8167 81.8136 92.5536 81.779 91.3839C81.4007 91.2794 81.008 91.254 80.6212 91.309C79.259 91.4863 78.2517 92.5257 78.3698 93.6315Z" fill="#0C0C0C"/>
<path opacity="0.5" d="M72.351 97.0362C72.3577 97.0354 72.3644 97.0342 72.3711 97.0326C72.7917 96.9358 73.2072 96.8135 73.6156 96.6661C74.225 96.4409 75.0208 96.0713 74.9116 95.4627C74.7855 94.7696 71.6998 87.6706 71.3497 86.8644C71.3354 86.828 71.3145 86.7952 71.2884 86.7679C71.2623 86.7406 71.2315 86.7194 71.1978 86.7056C71.1641 86.6917 71.1283 86.6855 71.0924 86.6873C71.0565 86.6891 71.0212 86.6989 70.9888 86.7161C70.9564 86.7333 70.9275 86.7575 70.9037 86.7873C70.88 86.8171 70.862 86.8518 70.8507 86.8895C70.8394 86.9272 70.8351 86.967 70.8381 87.0066C70.841 87.0461 70.8512 87.0846 70.868 87.1197C72.1836 90.1429 74.3025 95.1135 74.3876 95.5802C74.321 95.7978 73.3101 96.2229 72.2667 96.4551C72.2321 96.4613 72.1989 96.4749 72.169 96.4952C72.1392 96.5156 72.1133 96.5422 72.0928 96.5735C72.0722 96.6049 72.0575 96.6405 72.0494 96.6781C72.0414 96.7158 72.0401 96.7548 72.0457 96.793C72.0512 96.8313 72.0636 96.8679 72.082 96.9008C72.1004 96.9338 72.1245 96.9624 72.1529 96.985C72.1814 97.0077 72.2136 97.0239 72.2477 97.0329C72.2818 97.0418 72.3172 97.0432 72.3518 97.037L72.351 97.0362Z" fill="#0C0C0C"/>
<path d="M37.7494 92.0099L47.0539 90.0035C54.0824 86.7588 56.0765 73.2359 56.0765 73.2359C56.0765 73.2359 64.7507 82.3559 85.4818 76.841C85.4818 76.841 80.9785 44.8916 50.3672 54.5917C40.4971 57.7186 33.5055 68.8255 34.5453 83.5366C35.2739 93.8431 37.7494 92.0099 37.7494 92.0099Z" fill="#0A0A0A"/>
<path d="M49.3532 102.612C46.1993 103.312 42.9634 100.155 42.3275 96.6727C41.6915 93.1899 43.8996 90.7026 47.0536 90.0015L49.1043 91.9738L52.0643 102.009L49.3532 102.612Z" fill="#E98862"/>
<path d="M73.5859 81.2029C74.375 80.5869 75.2978 80.2126 76.2605 80.118C76.7442 80.0668 77.2322 80.0966 77.7078 80.2066C78.1874 80.3145 78.6529 80.4884 79.0933 80.7243L79.1069 80.7314C79.1557 80.7551 79.211 80.7569 79.261 80.7363C79.311 80.7156 79.3516 80.6743 79.3743 80.621C79.397 80.5677 79.4 80.5067 79.3825 80.451C79.365 80.3954 79.3285 80.3495 79.2808 80.3232C78.8141 80.0512 78.3183 79.8451 77.805 79.7098C77.2881 79.571 76.7553 79.5189 76.2244 79.5551C75.149 79.6207 74.1093 80.0033 73.2133 80.6631C73.1799 80.6881 73.1513 80.7201 73.1291 80.7573C73.107 80.7945 73.0916 80.8362 73.0841 80.8799C73.0765 80.9237 73.0768 80.9686 73.085 81.0122C73.0932 81.0558 73.1091 81.0972 73.1318 81.1341C73.1545 81.1709 73.1836 81.2024 73.2173 81.2268C73.2511 81.2512 73.2889 81.268 73.3285 81.2762C73.3682 81.2845 73.4089 81.284 73.4484 81.2749C73.4879 81.2657 73.5253 81.248 73.5586 81.2229L73.5658 81.2176L73.5859 81.2029Z" fill="#0C0C0C"/>
<path d="M65.086 82.4998C64.0294 82.2677 62.9357 82.353 61.9192 82.7467C61.4167 82.9377 60.943 83.211 60.514 83.5573C60.0867 83.8992 59.7001 84.2992 59.3634 84.7478C59.3294 84.7924 59.3124 84.8498 59.3159 84.908C59.3194 84.9661 59.3431 85.0206 59.3822 85.0598C59.4212 85.0991 59.4725 85.1201 59.5253 85.1186C59.5781 85.117 59.6283 85.0929 59.6653 85.0514L59.6762 85.039C60.0011 84.6349 60.3706 84.2776 60.7762 83.9753C61.1776 83.673 61.618 83.4395 62.0826 83.2825C63.0047 82.9627 63.9871 82.9184 64.9298 83.154L64.9531 83.1606C65.0322 83.1818 65.1157 83.1674 65.1852 83.1206C65.2547 83.0738 65.3045 82.9984 65.3236 82.9111C65.3428 82.8238 65.3298 82.7316 65.2874 82.6549C65.245 82.5782 65.1767 82.5232 65.0976 82.502L65.086 82.4998Z" fill="#0C0C0C"/>
<path d="M47.0605 89.8342C53.315 87.2636 55.3906 82.4955 56.0297 78.9471C56.4434 76.5807 56.4047 74.1449 55.9161 71.7959L55.7226 71.8548C56.2039 74.1732 56.2411 76.577 55.8318 78.9121C55.2007 82.4024 53.1548 87.0943 46.9902 89.6272L47.0605 89.8342Z" fill="#0C0C0C"/>
<path d="M96.4401 128.536L155.828 150.451L138.392 159.007L168.005 91.9404L192.207 104.392L164.731 172.558C163.342 176.005 160.875 178.785 157.782 180.39C154.689 181.995 151.176 182.318 147.885 181.3L147.295 181.115L87.0076 162.429L96.4401 128.536Z" fill="#367CFF"/>
<path d="M59.1069 138.734C45.42 138.022 44.8439 125.197 44.8439 125.197C44.8439 125.197 38.0623 125.681 33.5542 126.354C26.1736 127.456 21.3046 130.219 17.4296 134.497C13.8252 138.476 11.6307 142.782 13.9528 170.269C15.6342 190.172 14.4511 233.949 14.4511 233.949H97.8564C97.8564 233.949 103.681 170.703 104.371 161.745C105.689 144.642 109.412 140.866 101.869 132.056C96.3987 125.667 82.277 125.197 76.593 125.198C76.5002 125.198 77.7464 139.704 59.1069 138.734Z" fill="#367CFF"/>
<path d="M75.1253 99.4343C72.4359 100.944 69.3676 101.421 66.405 100.791C66.3024 100.77 66.1965 100.781 66.0996 100.824C66.0027 100.867 65.9188 100.939 65.8577 101.032C65.7966 101.126 65.7609 101.236 65.7546 101.351C65.7484 101.466 65.7719 101.581 65.8225 101.682C66.7057 103.4 68.8006 106.336 72.3945 105.139C74.715 104.366 75.5922 101.731 75.9174 100.1C75.9396 99.9873 75.9323 99.8698 75.8961 99.7615C75.86 99.6532 75.7966 99.5585 75.7134 99.4886C75.6303 99.4187 75.5307 99.3765 75.4265 99.3669C75.3224 99.3572 75.2179 99.3806 75.1253 99.4343Z" fill="white"/>
<path d="M75.2937 86.2302C76.0114 86.2302 76.5933 85.5879 76.5933 84.7955C76.5933 84.0032 76.0114 83.3608 75.2937 83.3608C74.576 83.3608 73.9941 84.0032 73.9941 84.7955C73.9941 85.5879 74.576 86.2302 75.2937 86.2302Z" fill="#0C0C0C"/>
<path d="M62.8059 88.6438C63.5236 88.6438 64.1055 88.0014 64.1055 87.2091C64.1055 86.4167 63.5236 85.7744 62.8059 85.7744C62.0882 85.7744 61.5063 86.4167 61.5063 87.2091C61.5063 88.0014 62.0882 88.6438 62.8059 88.6438Z" fill="#0C0C0C"/>
<path d="M104.185 167.977C104.177 167.977 104.169 167.977 104.16 167.977C104.107 167.969 104.059 167.939 104.027 167.893C103.994 167.847 103.979 167.788 103.986 167.73L105.277 156.172C105.28 156.143 105.288 156.114 105.301 156.089C105.314 156.063 105.331 156.041 105.352 156.023C105.373 156.005 105.397 155.992 105.423 155.984C105.448 155.977 105.475 155.975 105.501 155.979C105.527 155.983 105.552 155.992 105.575 156.006C105.598 156.021 105.619 156.04 105.635 156.063C105.651 156.086 105.663 156.112 105.67 156.14C105.677 156.168 105.679 156.198 105.676 156.227L104.384 167.784C104.378 167.837 104.354 167.886 104.317 167.922C104.281 167.957 104.234 167.977 104.185 167.977Z" fill="#0C0C0C"/>
<path d="M315.304 78.7926C315.304 78.7926 310.329 72.6245 310.906 61.073C311.353 52.129 317.602 59.3622 317.602 59.3622C317.602 59.3622 317.98 52.9254 322.005 54.4581C326.029 55.9907 327.159 63.0883 327.159 63.0883" fill="#0C0C0C"/>
<path d="M343.265 59.8989C343.265 59.8989 363.36 66.8481 350.391 95.9321L348.55 95.6662L344.812 95.1277" fill="#0C0C0C"/>
<path d="M314.678 126.256C314.771 126.242 315.792 144.955 335.483 143.324C349.115 142.196 353.976 126.229 354.288 126.229C352.818 125.884 350.343 125.383 349.69 124.998C347.544 123.725 344.888 122.4 344.196 117.798C343.797 115.146 344.474 101.577 344.266 98.8926L323.34 104.048C323.633 109.716 325.679 122.856 318.507 125.181C317.313 125.566 316.027 125.92 314.678 126.256Z" fill="#E98862"/>
<path opacity="0.52" d="M323.047 119.812C323.374 118.646 323.585 117.443 323.676 116.226C323.906 113.449 323.86 110.653 323.539 107.887C327.792 107.254 331.799 105.316 335.104 102.294C335.493 103.878 337.63 110.8 337.038 112.306C335.92 115.152 330.664 119.812 323.047 119.812Z" fill="#0C0C0C"/>
<path d="M325.556 113.475C333.796 114.454 344.505 110.939 346.836 98.8379L348.939 87.9185C351.268 75.8188 347.401 64.6556 337.08 62.2335C326.759 59.8113 317.155 67.8113 314.825 79.9127L313.894 84.7469C313.601 86.4128 313.41 88.0988 313.325 89.7933C313.068 94.2697 312.694 101.08 314.565 106.154C316.331 110.944 320.291 112.848 325.556 113.475Z" fill="#E98862"/>
<path d="M319.01 85.5959C319.728 85.5959 320.31 84.9536 320.31 84.1612C320.31 83.3689 319.728 82.7266 319.01 82.7266C318.293 82.7266 317.711 83.3689 317.711 84.1612C317.711 84.9536 318.293 85.5959 319.01 85.5959Z" fill="#0C0C0C"/>
<path d="M331.353 87.0305C332.071 87.0305 332.653 86.3882 332.653 85.5958C332.653 84.8035 332.071 84.1611 331.353 84.1611C330.635 84.1611 330.053 84.8035 330.053 85.5958C330.053 86.3882 330.635 87.0305 331.353 87.0305Z" fill="#0C0C0C"/>
<path d="M345.486 102.375C348.623 103.111 351.879 100.003 352.546 96.5404C353.213 93.0775 351.037 90.5716 347.901 89.8354L345.838 91.7763L342.79 101.742L345.486 102.375Z" fill="#E98862"/>
<path d="M343.366 96.1079C343.366 96.1079 345.404 78.7069 340.88 76.6092C337.869 75.2122 329.364 78.4538 322.578 75.4165C319.609 74.0869 316.527 74.2863 315.939 75.83C315.705 76.4412 315.436 66.8616 321.524 60.9757C326.37 56.2892 339.244 57.4979 344.645 60.5729C359.6 69.0865 348.414 90.7339 348.414 90.7339L346.638 96.4957L343.366 96.1079Z" fill="#0C0C0C"/>
<g opacity="0.52">
<path d="M322.391 97.3532L322.371 97.3496C321.36 97.1152 319.687 96.5962 319.845 95.7625C319.977 95.0706 323.112 87.9979 323.47 87.1939C323.501 87.1247 323.555 87.0718 323.621 87.0469C323.687 87.022 323.76 87.027 323.822 87.0609C323.885 87.0948 323.933 87.1548 323.955 87.2277C323.978 87.3006 323.973 87.3804 323.943 87.4496C322.552 90.5813 320.45 95.4115 320.36 95.8817C320.422 96.1033 321.432 96.5381 322.479 96.7806C322.544 96.7968 322.602 96.8403 322.64 96.902C322.677 96.9638 322.692 97.0391 322.681 97.1124C322.67 97.1858 322.633 97.2517 322.58 97.2964C322.526 97.3412 322.458 97.3615 322.391 97.3532Z" fill="#0C0C0C"/>
</g>
<path d="M322.158 79.6728C321.164 79.1192 320.053 78.8717 318.943 78.9561C318.397 78.994 317.86 79.1221 317.349 79.3359C316.843 79.5449 316.363 79.8237 315.921 80.1656C315.847 80.2176 315.794 80.2997 315.775 80.394C315.755 80.4884 315.77 80.5875 315.816 80.67C315.862 80.7525 315.935 80.8117 316.02 80.8348C316.106 80.858 316.196 80.8432 316.271 80.7937L316.294 80.779C316.7 80.5012 317.136 80.2808 317.591 80.1231C318.04 79.9646 318.509 79.8823 318.98 79.8789C319.912 79.8638 320.831 80.1208 321.643 80.6239L321.674 80.6439C321.731 80.6813 321.794 80.7059 321.859 80.7163C321.925 80.7267 321.992 80.7227 322.056 80.7045C322.12 80.6863 322.18 80.6543 322.233 80.6103C322.286 80.5663 322.331 80.5112 322.364 80.4481C322.398 80.385 322.42 80.3152 322.429 80.2428C322.438 80.1703 322.433 80.0966 322.417 80.0259C322.4 79.9552 322.37 79.8889 322.33 79.8308C322.29 79.7727 322.239 79.724 322.182 79.6874L322.158 79.6728Z" fill="#0C0C0C"/>
<path d="M329.589 81.8904C330.491 81.6347 331.439 81.6468 332.336 81.9254C332.791 82.0628 333.224 82.2751 333.621 82.5552C334.024 82.8371 334.394 83.1738 334.722 83.5573L334.74 83.5773C334.802 83.6435 334.884 83.6808 334.971 83.6814C335.057 83.682 335.14 83.6458 335.203 83.5804C335.265 83.515 335.302 83.4254 335.307 83.3304C335.311 83.2353 335.282 83.1421 335.225 83.0702C334.877 82.6144 334.479 82.2089 334.039 81.8634C333.594 81.5119 333.104 81.2358 332.586 81.0443C331.533 80.6472 330.402 80.5707 329.313 80.8227C329.248 80.8382 329.187 80.8676 329.133 80.9092C329.079 80.9507 329.033 81.0036 328.997 81.0649C328.925 81.1887 328.901 81.339 328.929 81.4827C328.957 81.6264 329.036 81.7517 329.148 81.8312C329.261 81.9107 329.397 81.9377 329.527 81.9064L329.553 81.8993L329.589 81.8904Z" fill="#0C0C0C"/>
<path d="M320.801 100.038C323.728 100.845 326.815 100.553 329.575 99.2063C329.671 99.1603 329.776 99.1453 329.879 99.163C329.982 99.1807 330.079 99.2304 330.157 99.3064C330.236 99.3823 330.293 99.4813 330.322 99.5918C330.352 99.7023 330.352 99.8198 330.323 99.9305C329.81 101.823 328.364 105.205 324.619 104.925C322.2 104.745 320.811 102.393 320.163 100.884C320.118 100.779 320.101 100.663 320.114 100.548C320.127 100.433 320.17 100.325 320.237 100.236C320.304 100.147 320.393 100.081 320.493 100.046C320.593 100.011 320.7 100.008 320.801 100.038Z" fill="white"/>
<path d="M332.416 63.4553C333.814 59.8308 333.14 56.0421 330.909 54.993C328.679 53.944 325.737 56.0319 324.338 59.6564C322.939 63.281 323.614 67.0696 325.845 68.1187C328.075 69.1677 331.017 67.0799 332.416 63.4553Z" fill="#0C0C0C"/>
<path d="M335.789 138.734C349.476 138.022 350.052 125.197 350.052 125.197C350.052 125.197 356.833 125.681 361.342 126.354C368.722 127.456 373.591 130.219 377.466 134.497C381.071 138.476 383.265 142.782 380.943 170.269C379.261 190.172 380.445 233.949 380.445 233.949H297.04C297.04 233.949 291.215 170.704 290.525 161.745C289.207 144.642 285.484 140.866 293.027 132.056C298.497 125.667 312.619 125.197 318.303 125.198C318.395 125.198 317.15 139.704 335.789 138.734Z" fill="#367CFF"/>
<path d="M290.328 136.017L268.764 186.486L226.239 151.182L209.348 175.978L265.658 222.726C266.162 223.139 266.689 223.518 267.235 223.86C268.844 224.856 270.614 225.491 272.446 225.731C274.277 225.971 276.133 225.81 277.909 225.257C279.684 224.705 281.343 223.772 282.791 222.512C284.24 221.252 285.45 219.689 286.351 217.912L286.595 217.432L319.494 152.604L290.328 136.017Z" fill="#367CFF"/>
<path d="M383.645 234.392H3.82164C3.71516 234.392 3.61304 234.346 3.53775 234.262C3.46246 234.179 3.42017 234.067 3.42017 233.949C3.42017 233.832 3.46246 233.719 3.53775 233.636C3.61304 233.553 3.71516 233.506 3.82164 233.506H383.645C383.752 233.506 383.854 233.553 383.929 233.636C384.004 233.719 384.047 233.832 384.047 233.949C384.047 234.067 384.004 234.179 383.929 234.262C383.854 234.346 383.752 234.392 383.645 234.392Z" fill="#292A2E"/>
<path d="M301.031 168.025H97.6384V244.776H301.031V168.025Z" fill="white"/>
<path d="M301.231 244.999H97.4382V167.804H301.231V244.999ZM97.8397 244.556H300.83V168.247H97.8397V244.556Z" fill="#0C0C0C"/>
<path d="M87.5959 191.482L100.151 185.292C100.427 185.156 100.725 185.085 101.028 185.083C101.33 185.081 101.629 185.149 101.906 185.282C102.183 185.415 102.432 185.61 102.637 185.856C102.842 186.101 102.999 186.39 103.097 186.706C103.261 187.294 103.222 187.929 102.987 188.488C102.752 189.046 102.337 189.489 101.823 189.729L99.1305 191.058L109.332 191.174C110.467 191.165 111.864 191.955 111.789 193.361C111.793 193.904 111.629 194.432 111.325 194.859C111.022 195.286 110.596 195.587 110.118 195.713C110.12 195.725 110.122 195.737 110.122 195.749C110.121 195.758 110.119 195.767 110.117 195.776L111.867 195.762C112.191 195.76 112.511 195.837 112.804 195.989C113.097 196.14 113.356 196.362 113.562 196.638C113.768 196.914 113.915 197.237 113.994 197.584C114.072 197.931 114.08 198.293 114.015 198.643C113.904 199.193 113.625 199.684 113.224 200.034C112.824 200.383 112.327 200.571 111.817 200.564L111.073 200.57C111.063 200.594 111.049 200.616 111.032 200.634C111.536 200.759 111.983 201.078 112.294 201.533C112.604 201.989 112.758 202.551 112.727 203.12C112.677 203.742 112.417 204.32 111.998 204.739C111.579 205.158 111.032 205.387 110.467 205.38L108.618 205.395C108.644 205.415 108.665 205.441 108.68 205.472C108.696 205.503 108.704 205.537 108.705 205.572C108.703 205.614 108.691 205.655 108.669 205.689C109.089 205.938 109.424 206.332 109.622 206.812C109.82 207.291 109.87 207.829 109.763 208.343C109.642 208.879 109.36 209.355 108.963 209.693C108.566 210.031 108.077 210.211 107.576 210.204L91.9751 210.327C89.7928 210.344 87.6555 209.641 85.8372 208.309C84.0189 206.977 82.6024 205.075 81.7694 202.848C81.051 200.928 81.0392 198.774 81.7364 196.844C82.4336 194.915 83.7848 193.361 85.503 192.514L87.5959 191.482Z" fill="#E98862"/>
<g opacity="0.2">
<path d="M100.019 195.651C100.019 195.709 100.041 195.765 100.078 195.806C100.116 195.847 100.167 195.869 100.219 195.869L109.921 195.966C109.974 195.966 110.026 195.943 110.064 195.902C110.102 195.861 110.123 195.805 110.124 195.746C110.124 195.687 110.104 195.631 110.066 195.589C110.029 195.547 109.978 195.523 109.925 195.522L100.223 195.426C100.17 195.426 100.119 195.449 100.081 195.491C100.043 195.532 100.022 195.589 100.022 195.647L100.019 195.651Z" fill="#0C0C0C"/>
</g>
<g opacity="0.2">
<path d="M99.8616 200.375C99.8624 200.433 99.8838 200.489 99.9214 200.53C99.959 200.571 100.01 200.594 100.062 200.594L110.89 200.701C110.943 200.701 110.994 200.678 111.032 200.636C111.069 200.595 111.09 200.538 111.09 200.48C111.089 200.422 111.067 200.366 111.03 200.325C110.992 200.284 110.942 200.26 110.89 200.258L100.062 200.15C100.036 200.15 100.01 200.156 99.9849 200.167C99.9603 200.178 99.938 200.194 99.9191 200.215C99.9003 200.235 99.8853 200.26 99.8751 200.287C99.8649 200.314 99.8596 200.343 99.8596 200.372L99.8616 200.375Z" fill="#0C0C0C"/>
</g>
<g opacity="0.2">
<path d="M99.6653 205.487C99.666 205.546 99.6875 205.601 99.7251 205.642C99.7626 205.683 99.8133 205.706 99.866 205.706L108.503 205.792C108.556 205.792 108.607 205.77 108.645 205.728C108.683 205.687 108.705 205.631 108.705 205.572C108.706 205.513 108.685 205.457 108.648 205.415C108.611 205.373 108.56 205.349 108.506 205.349L99.8696 205.263C99.8164 205.263 99.7653 205.286 99.7277 205.328C99.69 205.369 99.6689 205.426 99.6689 205.484L99.6653 205.487Z" fill="#0C0C0C"/>
</g>
<path d="M91.1892 216.161L21.5796 233.63C19.2671 233.908 16.9278 233.591 14.7451 232.703C12.5625 231.815 10.5959 230.381 8.99966 228.513C7.40343 226.645 6.22097 224.394 5.54508 221.937C4.86918 219.48 4.71823 216.883 5.10406 214.351L13.07 143.614C13.7325 139.267 15.9321 135.389 19.1848 132.832C22.4375 130.275 26.477 129.25 30.4145 129.981C34.3521 130.713 37.8652 133.141 40.181 136.732C42.4968 140.323 43.4256 144.782 42.7631 149.129L38.9271 199.76L87.2897 187.677L91.1892 216.161Z" fill="#367CFF"/>
<path d="M29.1402 201.749C29.0898 201.749 29.0414 201.728 29.0046 201.69C28.9679 201.652 28.9454 201.6 28.9417 201.544C28.938 201.489 28.9534 201.434 28.9847 201.39C29.0161 201.346 29.0611 201.318 29.1109 201.309L38.8108 199.022C38.8369 199.018 38.8636 199.019 38.8893 199.026C38.915 199.033 38.9392 199.045 38.9604 199.062C38.9817 199.08 38.9996 199.102 39.0131 199.127C39.0265 199.152 39.0353 199.18 39.0389 199.209C39.0467 199.267 39.0333 199.326 39.0017 199.373C38.9701 199.42 38.9228 199.452 38.8703 199.46L29.1704 201.747C29.1604 201.749 29.1503 201.749 29.1402 201.749Z" fill="#0C0C0C"/>
<path d="M23.6681 233.949C23.6148 233.953 23.5624 233.933 23.5223 233.894C23.4822 233.855 23.4577 233.801 23.4543 233.742C23.4508 233.683 23.4687 233.625 23.5038 233.581C23.539 233.537 23.5887 233.51 23.642 233.506L90.7524 216.056L86.9497 188.001L38.8757 199.458C38.8446 199.462 38.8131 199.458 38.7835 199.447C38.7539 199.436 38.7271 199.417 38.7051 199.392C38.6832 199.367 38.6669 199.337 38.6576 199.304C38.6482 199.271 38.6461 199.235 38.6513 199.201L41.348 170.273C41.352 170.244 41.3612 170.216 41.3751 170.191C41.389 170.166 41.4073 170.145 41.4288 170.128C41.4504 170.111 41.4748 170.099 41.5006 170.093C41.5265 170.086 41.5532 170.086 41.5792 170.091C41.6317 170.101 41.6786 170.133 41.7094 170.181C41.7403 170.229 41.7527 170.288 41.7438 170.346L39.0941 198.978L87.0433 187.512C87.0691 187.504 87.096 187.502 87.1226 187.506C87.1491 187.51 87.1747 187.519 87.1978 187.534C87.2209 187.549 87.241 187.569 87.2571 187.593C87.2731 187.616 87.2848 187.643 87.2914 187.672L91.1908 216.158C91.2032 216.214 91.1952 216.273 91.1688 216.323C91.1423 216.373 91.0994 216.409 91.0491 216.424L23.6942 233.947C23.6855 233.948 23.6768 233.949 23.6681 233.949Z" fill="#0C0C0C"/>
<path d="M307.301 204.778L294.745 198.588C294.47 198.452 294.171 198.381 293.869 198.379C293.567 198.377 293.268 198.445 292.991 198.578C292.714 198.711 292.465 198.906 292.26 199.151C292.055 199.396 291.898 199.686 291.8 200.001C291.635 200.59 291.674 201.225 291.91 201.784C292.145 202.342 292.56 202.785 293.074 203.025L295.766 204.354L285.564 204.47C284.43 204.461 283.033 205.251 283.108 206.657C283.104 207.2 283.268 207.728 283.571 208.155C283.875 208.582 284.301 208.883 284.779 209.009C284.776 209.021 284.775 209.033 284.774 209.045C284.775 209.054 284.777 209.063 284.779 209.072L283.03 209.058C282.706 209.056 282.386 209.133 282.093 209.285C281.799 209.436 281.54 209.658 281.335 209.934C281.129 210.21 280.981 210.533 280.903 210.88C280.824 211.227 280.817 211.588 280.881 211.939C280.993 212.489 281.272 212.979 281.672 213.329C282.072 213.679 282.569 213.866 283.08 213.86L283.824 213.866C283.834 213.89 283.848 213.912 283.864 213.93C283.361 214.055 282.914 214.374 282.603 214.829C282.293 215.284 282.139 215.847 282.17 216.416C282.22 217.037 282.48 217.615 282.899 218.034C283.318 218.453 283.865 218.683 284.43 218.676L286.279 218.691C286.253 218.711 286.232 218.737 286.217 218.768C286.202 218.799 286.193 218.833 286.193 218.868C286.194 218.91 286.206 218.95 286.228 218.985C285.808 219.233 285.473 219.628 285.275 220.107C285.077 220.587 285.027 221.125 285.133 221.639C285.255 222.175 285.537 222.651 285.934 222.989C286.331 223.327 286.82 223.507 287.321 223.5L302.922 223.623C305.105 223.64 307.242 222.937 309.06 221.604C310.879 220.272 312.295 218.37 313.128 216.143C313.846 214.223 313.858 212.069 313.161 210.139C312.464 208.209 311.112 206.656 309.394 205.808L307.301 204.778Z" fill="#E98862"/>
<g opacity="0.2">
<path d="M294.877 208.948C294.877 209.006 294.855 209.062 294.818 209.103C294.78 209.143 294.729 209.166 294.677 209.166L284.975 209.262C284.948 209.263 284.922 209.257 284.898 209.246C284.873 209.235 284.851 209.219 284.832 209.199C284.813 209.179 284.799 209.154 284.788 209.128C284.778 209.101 284.772 209.072 284.772 209.043C284.772 209.014 284.777 208.985 284.787 208.958C284.797 208.931 284.811 208.906 284.83 208.886C284.848 208.865 284.87 208.848 284.894 208.837C284.919 208.826 284.945 208.82 284.971 208.819L294.673 208.723C294.726 208.723 294.777 208.746 294.815 208.788C294.853 208.829 294.874 208.885 294.874 208.944L294.877 208.948Z" fill="#0C0C0C"/>
</g>
<g opacity="0.2">
<path d="M295.034 213.671C295.033 213.729 295.012 213.785 294.975 213.825C294.938 213.866 294.888 213.889 294.835 213.89L284.008 213.998C283.954 213.998 283.903 213.974 283.866 213.933C283.828 213.891 283.807 213.835 283.807 213.776C283.809 213.718 283.83 213.663 283.868 213.621C283.905 213.58 283.955 213.556 284.008 213.554L294.835 213.447C294.888 213.447 294.939 213.47 294.977 213.512C295.014 213.553 295.036 213.61 295.036 213.668L295.034 213.671Z" fill="#0C0C0C"/>
</g>
<g opacity="0.2">
<path d="M295.231 218.784C295.231 218.842 295.209 218.898 295.172 218.938C295.134 218.979 295.083 219.002 295.031 219.002L286.394 219.088C286.367 219.089 286.341 219.083 286.317 219.072C286.292 219.061 286.27 219.045 286.251 219.025C286.232 219.004 286.217 218.98 286.207 218.953C286.197 218.927 286.191 218.898 286.191 218.869C286.191 218.84 286.196 218.811 286.206 218.784C286.216 218.757 286.23 218.732 286.249 218.711C286.267 218.691 286.289 218.674 286.313 218.663C286.338 218.651 286.364 218.645 286.39 218.645L295.027 218.559C295.08 218.559 295.131 218.582 295.169 218.624C295.207 218.666 295.228 218.722 295.228 218.781L295.231 218.784Z" fill="#0C0C0C"/>
</g>
<path d="M307.721 229.458L373.316 233.631C375.629 233.908 377.968 233.591 380.151 232.703C382.333 231.815 384.3 230.381 385.896 228.513C387.492 226.645 388.675 224.394 389.351 221.937C390.026 219.48 390.177 216.883 389.792 214.351L381.827 143.612C381.499 141.46 380.79 139.4 379.741 137.55C378.692 135.7 377.323 134.096 375.712 132.83C374.102 131.564 372.281 130.661 370.354 130.172C368.428 129.683 366.432 129.617 364.483 129.979C362.533 130.342 360.667 131.124 358.991 132.282C357.316 133.441 355.863 134.952 354.716 136.73C353.57 138.508 352.751 140.518 352.308 142.645C351.865 144.772 351.806 146.975 352.134 149.127L355.97 202.86L308.009 200.971L307.721 229.458Z" fill="#367CFF"/>
<path d="M365.755 202.635C365.806 202.635 365.854 202.614 365.891 202.576C365.928 202.538 365.95 202.486 365.954 202.43C365.958 202.375 365.943 202.32 365.911 202.276C365.88 202.233 365.835 202.204 365.785 202.195L356.085 202.124C356.059 202.12 356.032 202.121 356.007 202.128C355.981 202.135 355.957 202.147 355.935 202.164C355.914 202.182 355.896 202.204 355.883 202.229C355.869 202.254 355.86 202.282 355.857 202.311C355.849 202.369 355.862 202.428 355.894 202.475C355.926 202.522 355.973 202.554 356.026 202.562L365.726 202.633C365.735 202.635 365.745 202.635 365.755 202.635Z" fill="#0C0C0C"/>
<path d="M371.229 233.949C371.282 233.953 371.335 233.933 371.375 233.894C371.415 233.855 371.439 233.8 371.442 233.742C371.446 233.683 371.428 233.625 371.393 233.581C371.357 233.537 371.308 233.51 371.255 233.506L308.158 229.354L308.347 201.299L356.02 202.562C356.051 202.566 356.082 202.563 356.112 202.551C356.141 202.54 356.168 202.521 356.19 202.497C356.212 202.472 356.228 202.441 356.238 202.408C356.247 202.375 356.249 202.34 356.244 202.306L353.548 170.275C353.544 170.246 353.534 170.218 353.52 170.193C353.507 170.168 353.488 170.147 353.467 170.13C353.445 170.113 353.421 170.101 353.395 170.095C353.369 170.088 353.342 170.088 353.316 170.093C353.29 170.098 353.266 170.108 353.243 170.123C353.221 170.139 353.201 170.159 353.186 170.183C353.171 170.206 353.16 170.233 353.154 170.262C353.148 170.29 353.147 170.319 353.151 170.348L355.803 202.082L308.256 200.81C308.23 200.802 308.203 200.8 308.176 200.804C308.15 200.808 308.124 200.817 308.101 200.832C308.078 200.847 308.058 200.867 308.042 200.891C308.026 200.915 308.014 200.941 308.007 200.97L307.721 229.457C307.708 229.513 307.716 229.572 307.743 229.621C307.769 229.671 307.812 229.707 307.862 229.723L371.201 233.945C371.21 233.947 371.22 233.948 371.229 233.949Z" fill="#0C0C0C"/>
<path d="M145.859 218.244H140.527L137.537 205.438C137.426 204.982 137.237 204.04 136.971 202.612C136.704 201.183 136.551 200.225 136.51 199.735C136.45 200.335 136.299 201.3 136.057 202.628C135.815 203.957 135.629 204.904 135.498 205.471L132.523 218.244H127.206L121.572 193.867H126.179L129.003 207.173C129.497 209.63 129.854 211.759 130.076 213.56C130.136 212.926 130.274 211.945 130.491 210.617C130.708 209.288 130.912 208.257 131.103 207.523L134.32 193.867H138.745L141.962 207.523C142.103 208.135 142.279 209.069 142.491 210.325C142.703 211.58 142.863 212.659 142.973 213.56C143.073 212.693 143.234 211.612 143.455 210.317C143.675 209.021 143.876 207.974 144.057 207.174L146.867 193.868H151.474L145.859 218.244Z" fill="#FF8A00"/>
<path d="M166.975 218.244H154.257V193.867H166.975V198.103H158.94V203.455H166.416V207.688H158.94V213.975H166.975V218.244Z" fill="#FF8A00"/>
<path d="M171.581 218.244V193.867H176.263V213.977H185.219V218.245L171.581 218.244Z" fill="#FF8A00"/>
<path d="M198.437 197.817C197.643 197.777 196.852 197.957 196.137 198.34C195.422 198.723 194.805 199.297 194.342 200.01C193.375 201.472 192.892 203.509 192.892 206.121C192.892 211.558 194.74 214.276 198.435 214.276C200.364 214.194 202.268 213.759 204.069 212.991V217.326C202.14 218.185 200.076 218.61 197.997 218.577C194.785 218.577 192.328 217.501 190.626 215.35C188.924 213.199 188.073 210.112 188.074 206.087C188.028 203.79 188.457 201.513 189.327 199.426C190.1 197.596 191.356 196.067 192.93 195.041C194.606 193.992 196.509 193.465 198.435 193.515C200.679 193.541 202.889 194.129 204.898 195.232L203.388 199.435C202.576 199.007 201.744 198.629 200.896 198.3C200.107 197.987 199.275 197.824 198.437 197.817Z" fill="#FF8A00"/>
<path d="M228.809 206.021C228.809 210.056 227.903 213.158 226.091 215.326C224.278 217.494 221.68 218.577 218.297 218.577C214.914 218.577 212.316 217.493 210.504 215.326C208.691 213.158 207.785 210.046 207.785 205.988C207.785 201.93 208.694 198.832 210.511 196.692C212.329 194.553 214.934 193.483 218.327 193.482C221.72 193.482 224.316 194.56 226.114 196.717C227.911 198.874 228.81 201.976 228.809 206.021ZM212.694 206.021C212.694 208.745 213.162 210.796 214.099 212.174C215.036 213.552 216.435 214.242 218.297 214.242C222.033 214.242 223.901 211.501 223.901 206.021C223.901 200.53 222.043 197.784 218.327 197.784C216.465 197.784 215.06 198.476 214.112 199.86C213.164 201.244 212.692 203.298 212.694 206.021Z" fill="#FF8A00"/>
<path d="M242.735 218.244L237.419 199.118H237.283C237.474 203.009 237.569 205.605 237.57 206.905V218.244H233.385V193.867H239.76L244.986 212.509H245.076L250.619 193.867H256.993V218.244H252.628V206.705C252.628 206.161 252.636 205.533 252.65 204.821C252.665 204.109 252.733 202.219 252.854 199.152H252.719L247.025 218.244H242.735Z" fill="#FF8A00"/>
<path d="M275.27 218.244H262.552V193.867H275.269V198.103H267.235V203.455H274.711V207.688H267.235V213.975H275.27V218.244Z" fill="#FF8A00"/>
</svg>
