<svg width="765" height="447" viewBox="0 0 765 447" fill="none" xmlns="http://www.w3.org/2000/svg">
<g clip-path="url(#clip0_102_191)">
<path d="M745.51 173.085L737.4 194.827L743.15 197.182L751.26 175.44L745.51 173.085Z" fill="#367CFF"/>
<path d="M238.902 119.769L234.303 124.085L249.165 141.474L253.764 137.159L238.902 119.769Z" fill="#FF8A00"/>
<path d="M307.041 197.602L289.211 211.597L292.912 216.776L310.742 202.78L307.041 197.602Z" fill="#367CFF"/>
<path d="M513.263 37.0008L509.033 41.712L525.257 57.7105L529.488 52.9993L513.263 37.0008Z" fill="#367CFF"/>
<path d="M395.293 42.203L384.19 62.4423L389.542 65.6664L400.645 45.4272L395.293 42.203Z" fill="#FF8A00"/>
<path d="M556.525 215.281L551.305 218.734L563.194 238.476L568.414 235.024L556.525 215.281Z" fill="#FF8A00"/>
<path d="M314.443 311.416L308.921 314.307L318.877 335.191L324.399 332.3L314.443 311.416Z" fill="#FF8A00"/>
<path d="M233.647 256.468L227.249 278.829L233.162 280.687L239.559 258.325L233.647 256.468Z" fill="#367CFF"/>
<path d="M620.097 326.149L601.595 339.151L605.033 344.524L623.535 331.522L620.097 326.149Z" fill="#367CFF"/>
<path d="M622.868 0.00177953L611.766 20.2405L617.118 23.4646L628.22 3.22586L622.868 0.00177953Z" fill="#FF8A00"/>
<path d="M5.74925 165.577L-0.000488281 167.932L8.10952 189.674L13.8593 187.319L5.74925 165.577Z" fill="#FF8A00"/>
<path d="M602.61 138.716L598.908 143.894L616.738 157.889L620.44 152.711L602.61 138.716Z" fill="#FF8A00"/>
<path d="M101.767 43.3316L85.5431 59.3301L89.7736 64.0413L105.998 48.0428L101.767 43.3316Z" fill="#367CFF"/>
<path d="M281.47 24.28L276.118 27.5042L287.221 47.7434L292.573 44.5192L281.47 24.28Z" fill="#367CFF"/>
<path d="M63.1744 278.393L51.2856 298.135L56.5063 301.588L68.3951 281.845L63.1744 278.393Z" fill="#FF8A00"/>
<path d="M10.5151 332.474L7.07654 337.85L25.589 350.853L29.0275 345.477L10.5151 332.474Z" fill="#367CFF"/>
<path d="M724.737 74.6645L719.385 77.8885L730.488 98.1273L735.84 94.9032L724.737 74.6645Z" fill="#367CFF"/>
<path d="M492.794 129.82L477.931 147.209L482.53 151.525L497.392 134.136L492.794 129.82Z" fill="#367CFF"/>
<path d="M362.318 325.831L352.362 346.715L357.885 349.606L367.841 328.722L362.318 325.831Z" fill="#FF8A00"/>
<path d="M443.118 270.885L437.205 272.742L443.602 295.103L449.515 293.246L443.118 270.885Z" fill="#367CFF"/>
<path d="M445.109 283.646L424.068 266.885C423.605 266.517 423.075 266.254 422.51 266.112C421.945 265.971 421.358 265.954 420.787 266.063C420.216 266.172 419.672 266.405 419.191 266.746C418.71 267.087 418.303 267.529 417.994 268.045C417.452 269.015 417.273 270.161 417.492 271.261C417.711 272.362 418.312 273.338 419.178 274L423.69 277.594L404.553 273.117C402.434 272.58 399.505 273.343 399.087 275.874C398.866 276.837 398.962 277.85 399.361 278.748C399.76 279.646 400.437 280.376 401.282 280.819C401.273 280.839 401.265 280.86 401.259 280.881C401.258 280.898 401.258 280.914 401.259 280.931L397.991 280.104C397.385 279.951 396.755 279.941 396.145 280.076C395.536 280.211 394.963 280.486 394.468 280.883C393.973 281.279 393.569 281.786 393.284 282.367C393 282.948 392.843 283.588 392.825 284.24C392.816 285.268 393.144 286.268 393.754 287.073C394.364 287.878 395.22 288.438 396.177 288.662L397.566 289.013C397.575 289.06 397.592 289.105 397.616 289.146C396.623 289.137 395.66 289.498 394.898 290.165C394.137 290.831 393.626 291.76 393.458 292.785C393.305 293.912 393.563 295.058 394.181 295.994C394.799 296.93 395.731 297.588 396.791 297.836L400.247 298.711C400.19 298.734 400.139 298.772 400.099 298.82C400.059 298.869 400.03 298.926 400.015 298.989C400.002 299.064 400.009 299.142 400.036 299.213C399.15 299.462 398.366 300.009 397.806 300.77C397.246 301.531 396.939 302.464 396.934 303.425C396.948 304.435 397.287 305.41 397.896 306.192C398.505 306.975 399.348 307.519 400.289 307.737L429.438 315.117C433.516 316.149 437.795 315.881 441.727 314.348C445.659 312.816 449.065 310.088 451.508 306.514C453.614 303.432 454.491 299.611 453.951 295.863C453.412 292.115 451.499 288.735 448.619 286.441L445.109 283.646Z" fill="#E98862"/>
<g opacity="0.2">
<path d="M420.204 285.349C420.18 285.452 420.118 285.54 420.033 285.596C419.947 285.651 419.844 285.669 419.745 285.646L401.549 281.36C401.5 281.349 401.453 281.327 401.412 281.296C401.37 281.266 401.335 281.227 401.308 281.182C401.281 281.137 401.263 281.087 401.254 281.035C401.245 280.982 401.247 280.929 401.258 280.877C401.269 280.825 401.29 280.776 401.319 280.733C401.348 280.689 401.385 280.652 401.428 280.624C401.471 280.595 401.519 280.576 401.569 280.567C401.619 280.558 401.67 280.559 401.719 280.571L419.914 284.857C419.964 284.869 420.011 284.89 420.053 284.921C420.094 284.952 420.129 284.991 420.156 285.036C420.184 285.081 420.202 285.131 420.21 285.184C420.219 285.236 420.217 285.29 420.206 285.342L420.204 285.349Z" fill="#0C0C0C"/>
</g>
<g opacity="0.2">
<path d="M418.623 293.811C418.599 293.914 418.537 294.004 418.45 294.059C418.363 294.115 418.259 294.132 418.16 294.108L397.854 289.329C397.804 289.317 397.757 289.295 397.716 289.265C397.674 289.234 397.639 289.195 397.612 289.15C397.585 289.105 397.566 289.054 397.558 289.002C397.549 288.949 397.551 288.896 397.562 288.844C397.588 288.741 397.65 288.652 397.736 288.595C397.822 288.538 397.925 288.518 398.025 288.538L418.332 293.317C418.381 293.329 418.428 293.35 418.47 293.381C418.511 293.412 418.547 293.451 418.574 293.496C418.601 293.541 418.619 293.591 418.628 293.644C418.636 293.696 418.635 293.75 418.623 293.802V293.811Z" fill="#0C0C0C"/>
</g>
<g opacity="0.2">
<path d="M416.962 302.986C416.938 303.088 416.876 303.177 416.79 303.232C416.704 303.288 416.601 303.306 416.503 303.283L400.305 299.471C400.205 299.447 400.118 299.383 400.063 299.292C400.008 299.202 399.99 299.092 400.013 298.987C400.035 298.883 400.096 298.792 400.183 298.734C400.269 298.677 400.374 298.658 400.474 298.681L416.672 302.493C416.721 302.505 416.769 302.527 416.81 302.557C416.852 302.588 416.887 302.627 416.914 302.672C416.942 302.717 416.96 302.768 416.969 302.82C416.977 302.873 416.976 302.927 416.964 302.979L416.962 302.986Z" fill="#0C0C0C"/>
</g>
<path d="M345.214 168.363L356.962 143.553C357.22 143.008 357.583 142.525 358.029 142.135C358.475 141.746 358.994 141.457 359.552 141.289C360.11 141.121 360.695 141.076 361.271 141.158C361.846 141.24 362.399 141.446 362.894 141.765C363.791 142.381 364.438 143.325 364.709 144.413C364.98 145.5 364.856 146.655 364.36 147.652L361.841 152.972L377.088 140.056C378.76 138.588 381.707 137.908 383.154 139.981C383.76 140.741 384.103 141.694 384.126 142.684C384.15 143.675 383.852 144.644 383.282 145.434C383.3 145.447 383.315 145.462 383.33 145.479C383.338 145.493 383.346 145.508 383.352 145.523L385.93 143.259C386.408 142.84 386.969 142.538 387.572 142.375C388.175 142.212 388.805 142.193 389.416 142.317C390.028 142.442 390.605 142.708 391.105 143.096C391.606 143.484 392.018 143.984 392.311 144.56C392.755 145.477 392.885 146.525 392.679 147.531C392.474 148.536 391.945 149.436 391.182 150.082L390.085 151.045C390.097 151.091 390.101 151.139 390.096 151.187C390.981 150.716 391.997 150.591 392.962 150.834C393.927 151.076 394.778 151.671 395.364 152.511C395.978 153.449 396.232 154.597 396.075 155.723C395.917 156.85 395.36 157.872 394.515 158.587L391.79 160.979C391.851 160.973 391.913 160.983 391.97 161.007C392.027 161.032 392.077 161.07 392.117 161.119C392.162 161.181 392.188 161.254 392.194 161.33C393.094 161.141 394.028 161.266 394.852 161.687C395.677 162.108 396.347 162.801 396.759 163.66C397.174 164.571 397.284 165.603 397.07 166.587C396.856 167.572 396.331 168.452 395.581 169.085L372.593 189.264C369.377 192.087 365.43 193.839 361.257 194.296C357.085 194.753 352.877 193.894 349.174 191.828C345.981 190.047 343.577 187.032 342.471 183.424C341.366 179.815 341.647 175.897 343.254 172.502L345.214 168.363Z" fill="#E98862"/>
<g opacity="0.2">
<path d="M368.249 158.297C368.314 158.379 368.407 158.43 368.509 158.44C368.61 158.449 368.71 158.417 368.789 158.35L383.276 146.044C383.356 145.976 383.406 145.878 383.417 145.772C383.428 145.665 383.398 145.558 383.333 145.475C383.269 145.392 383.175 145.339 383.073 145.327C382.972 145.316 382.87 145.348 382.79 145.415L368.303 157.721C368.224 157.789 368.174 157.886 368.163 157.992C368.152 158.098 368.182 158.204 368.246 158.287L368.249 158.297Z" fill="#0C0C0C"/>
</g>
<g opacity="0.2">
<path d="M373.252 165.143C373.317 165.224 373.41 165.275 373.512 165.285C373.613 165.295 373.713 165.262 373.792 165.195L389.96 151.462C390.038 151.394 390.088 151.297 390.099 151.191C390.11 151.085 390.08 150.979 390.016 150.896C389.95 150.816 389.857 150.766 389.757 150.755C389.657 150.743 389.557 150.772 389.476 150.836L373.303 164.566C373.224 164.634 373.173 164.731 373.163 164.837C373.152 164.943 373.182 165.049 373.245 165.133L373.252 165.143Z" fill="#0C0C0C"/>
</g>
<g opacity="0.2">
<path d="M378.629 172.589C378.695 172.671 378.788 172.722 378.889 172.732C378.99 172.741 379.091 172.709 379.17 172.642L392.066 161.687C392.146 161.619 392.197 161.522 392.207 161.415C392.218 161.308 392.188 161.201 392.123 161.118C392.059 161.035 391.965 160.982 391.863 160.971C391.762 160.959 391.66 160.991 391.58 161.059L378.68 172.013C378.601 172.081 378.551 172.178 378.541 172.284C378.53 172.39 378.56 172.496 378.623 172.579L378.629 172.589Z" fill="#0C0C0C"/>
</g>
<path d="M81.5654 147.091C81.5654 147.091 79.9086 173.141 74.3163 182.59C58.2147 209.799 53.55 240.408 69.674 256.4C85.798 272.393 188.642 272.614 196.434 235.833C202.993 204.866 188.917 201.536 185.491 175.993C183.942 164.435 179.678 140.198 179.678 140.198" fill="#0A0A0A"/>
<path d="M169.817 230.44C169.639 230.415 167.669 264.67 129.694 261.684C103.405 259.619 94.0317 230.39 93.4298 230.39C96.2641 229.758 101.037 228.84 102.296 228.136C106.436 225.805 111.556 223.38 112.892 214.955C113.664 210.103 112.356 185.26 112.758 180.345L153.111 189.787C152.547 200.163 148.601 224.215 162.433 228.471C164.734 229.177 167.214 229.825 169.817 230.44Z" fill="#E98862"/>
<path opacity="0.5" d="M153.677 218.643C153.045 216.509 152.638 214.308 152.463 212.08C152.02 206.997 152.108 201.879 152.727 196.816C144.526 195.656 136.799 192.108 130.426 186.576C129.677 189.476 125.555 202.147 126.696 204.903C128.852 210.113 138.986 218.643 153.677 218.643Z" fill="#0C0C0C"/>
<path d="M148.459 207.972C132.549 209.589 111.964 202.916 107.7 180.713L103.852 160.68C99.5877 138.478 107.259 118.133 127.207 113.926C147.156 109.721 165.524 124.571 169.788 146.774L171.492 155.643C173.128 164.162 176.845 205.093 148.459 207.972Z" fill="#E98862"/>
<path opacity="0.1" d="M138.346 178.877C140.964 178.55 142.901 176.653 142.671 174.641C142.442 172.628 140.134 171.262 137.516 171.59C134.898 171.917 132.961 173.814 133.19 175.826C133.419 177.839 135.727 179.205 138.346 178.877Z" fill="#0C0C0C"/>
<path opacity="0.1" d="M166.011 170.832C166.243 172.841 168.554 174.205 171.172 173.882C171.625 173.825 172.07 173.719 172.502 173.566C172.624 171.17 172.631 168.865 172.564 166.731C171.837 166.541 171.082 166.494 170.339 166.595C167.721 166.918 165.785 168.814 166.011 170.832Z" fill="#0C0C0C"/>
<path opacity="0.5" d="M154.443 177.043C154.456 177.042 154.468 177.04 154.481 177.037C155.29 176.86 156.088 176.637 156.873 176.368C158.045 175.957 159.574 175.283 159.364 174.172C159.122 172.908 153.191 159.956 152.518 158.485C152.49 158.418 152.45 158.359 152.4 158.309C152.35 158.259 152.291 158.22 152.226 158.195C152.161 158.17 152.092 158.158 152.023 158.162C151.954 158.165 151.887 158.183 151.824 158.214C151.762 158.246 151.706 158.29 151.661 158.344C151.615 158.398 151.581 158.462 151.559 158.531C151.537 158.599 151.529 158.672 151.535 158.744C151.54 158.816 151.56 158.887 151.592 158.951C154.121 164.466 158.194 173.535 158.357 174.387C158.229 174.784 156.286 175.559 154.281 175.983C154.214 175.994 154.15 176.019 154.093 176.056C154.036 176.093 153.986 176.142 153.946 176.199C153.907 176.256 153.879 176.321 153.863 176.39C153.847 176.459 153.845 176.53 153.856 176.6C153.866 176.669 153.89 176.736 153.926 176.796C153.961 176.856 154.007 176.908 154.062 176.95C154.117 176.991 154.178 177.021 154.244 177.037C154.31 177.053 154.378 177.056 154.444 177.045L154.443 177.043Z" fill="#0C0C0C"/>
<path d="M87.9348 167.873L105.819 164.212C119.329 158.292 123.161 133.62 123.161 133.62C123.161 133.62 139.834 150.259 179.682 140.197C179.682 140.197 171.026 81.906 112.188 99.6039C93.2161 105.309 79.7774 125.573 81.7761 152.414C83.1766 171.218 87.9348 167.873 87.9348 167.873Z" fill="#0A0A0A"/>
<path d="M110.238 187.216C104.175 188.495 97.9557 182.735 96.7333 176.381C95.511 170.026 99.7552 165.488 105.817 164.209L109.759 167.808L115.449 186.116L110.238 187.216Z" fill="#E98862"/>
<path d="M156.815 148.156C158.332 147.032 160.106 146.349 161.956 146.177C162.886 146.083 163.824 146.138 164.738 146.338C165.66 146.535 166.555 146.852 167.401 147.283L167.427 147.296C167.521 147.339 167.628 147.342 167.724 147.305C167.82 147.267 167.898 147.192 167.941 147.094C167.985 146.997 167.991 146.886 167.957 146.784C167.923 146.683 167.853 146.599 167.762 146.551C166.865 146.055 165.912 145.679 164.925 145.432C163.931 145.179 162.907 145.084 161.887 145.15C159.82 145.269 157.821 145.967 156.099 147.171C156.035 147.217 155.98 147.275 155.937 147.343C155.895 147.411 155.865 147.487 155.851 147.567C155.836 147.647 155.837 147.729 155.853 147.808C155.868 147.888 155.899 147.963 155.943 148.03C155.986 148.098 156.042 148.155 156.107 148.2C156.172 148.244 156.245 148.275 156.321 148.29C156.397 148.305 156.475 148.304 156.551 148.287C156.627 148.271 156.699 148.238 156.763 148.192L156.777 148.183L156.815 148.156Z" fill="#0C0C0C"/>
<path d="M140.478 150.522C138.448 150.099 136.345 150.254 134.392 150.973C133.426 151.321 132.515 151.82 131.691 152.452C130.869 153.075 130.126 153.805 129.479 154.624C129.414 154.705 129.381 154.81 129.388 154.916C129.394 155.022 129.44 155.121 129.515 155.193C129.59 155.264 129.689 155.303 129.79 155.3C129.892 155.297 129.988 155.253 130.059 155.177L130.08 155.155C130.705 154.418 131.415 153.766 132.195 153.214C132.966 152.663 133.813 152.237 134.706 151.95C136.478 151.367 138.366 151.286 140.178 151.716L140.223 151.728C140.375 151.766 140.536 151.74 140.669 151.655C140.803 151.569 140.898 151.432 140.935 151.273C140.972 151.113 140.947 150.945 140.866 150.805C140.784 150.665 140.653 150.565 140.501 150.526L140.478 150.522Z" fill="#0C0C0C"/>
<path d="M105.831 163.903C117.853 159.213 121.843 150.514 123.071 144.04C123.866 139.722 123.792 135.278 122.853 130.993L122.481 131.1C123.406 135.33 123.477 139.716 122.691 143.976C121.478 150.344 117.545 158.904 105.696 163.526L105.831 163.903Z" fill="#0C0C0C"/>
<path d="M200.744 234.514L314.895 274.499L281.381 290.11L338.3 167.747L384.818 190.465L332.007 314.833C329.337 321.122 324.595 326.195 318.65 329.123C312.705 332.051 305.953 332.64 299.627 330.782L298.492 330.445L182.614 296.353L200.744 234.514Z" fill="#367CFF"/>
<path d="M128.986 253.12C102.678 251.821 101.571 228.422 101.571 228.422C101.571 228.422 88.5359 229.305 79.8708 230.533C65.6845 232.545 56.3257 237.586 48.8775 245.39C41.9495 252.651 37.7315 260.506 42.1949 310.656C45.4266 346.968 43.1525 426.84 43.1525 426.84H203.467C203.467 426.84 214.661 311.447 215.989 295.104C218.521 263.899 225.677 257.011 211.179 240.937C200.665 229.279 173.521 228.422 162.596 228.424C162.418 228.424 164.813 254.89 128.986 253.12Z" fill="#367CFF"/>
<path d="M159.776 181.419C154.606 184.174 148.709 185.045 143.014 183.895C142.817 183.856 142.613 183.877 142.427 183.955C142.241 184.033 142.08 184.165 141.962 184.335C141.845 184.505 141.776 184.707 141.764 184.917C141.752 185.127 141.797 185.336 141.894 185.52C143.592 188.654 147.619 194.011 154.527 191.827C158.987 190.417 160.673 185.609 161.298 182.634C161.341 182.428 161.327 182.214 161.257 182.016C161.188 181.819 161.066 181.646 160.906 181.518C160.746 181.391 160.555 181.314 160.355 181.296C160.154 181.279 159.953 181.321 159.776 181.419Z" fill="white"/>
<path d="M160.099 157.328C161.478 157.328 162.597 156.156 162.597 154.711C162.597 153.265 161.478 152.093 160.099 152.093C158.719 152.093 157.601 153.265 157.601 154.711C157.601 156.156 158.719 157.328 160.099 157.328Z" fill="#0C0C0C"/>
<path d="M136.097 161.731C137.476 161.731 138.595 160.56 138.595 159.114C138.595 157.668 137.476 156.496 136.097 156.496C134.717 156.496 133.599 157.668 133.599 159.114C133.599 160.56 134.717 161.731 136.097 161.731Z" fill="#0C0C0C"/>
<path d="M215.632 306.473C215.616 306.475 215.6 306.475 215.583 306.473C215.482 306.46 215.39 306.405 215.327 306.321C215.264 306.236 215.236 306.129 215.249 306.023L217.731 284.935C217.736 284.882 217.752 284.831 217.776 284.784C217.801 284.738 217.835 284.697 217.875 284.664C217.915 284.631 217.961 284.607 218.01 284.594C218.059 284.58 218.11 284.577 218.161 284.584C218.211 284.591 218.26 284.608 218.304 284.634C218.348 284.66 218.387 284.695 218.418 284.737C218.449 284.779 218.472 284.827 218.486 284.878C218.499 284.929 218.503 284.983 218.496 285.036L216.014 306.123C216.002 306.22 215.956 306.309 215.886 306.373C215.816 306.438 215.725 306.473 215.632 306.473Z" fill="#0C0C0C"/>
<path d="M621.425 143.758C621.425 143.758 611.862 132.504 612.971 111.429C613.83 95.1102 625.842 108.307 625.842 108.307C625.842 108.307 626.57 96.5633 634.305 99.3596C642.04 102.156 644.212 115.105 644.212 115.105" fill="#0C0C0C"/>
<path d="M675.169 109.286C675.169 109.286 713.794 121.965 688.866 175.029L685.327 174.544L678.143 173.561" fill="#0C0C0C"/>
<path d="M620.222 230.354C620.399 230.33 622.362 264.47 660.211 261.495C686.413 259.438 695.756 230.306 696.356 230.306C693.531 229.676 688.774 228.762 687.519 228.06C683.393 225.737 678.288 223.32 676.958 214.924C676.192 210.084 677.492 185.328 677.092 180.43L636.871 189.837C637.434 200.178 641.367 224.151 627.58 228.394C625.287 229.096 622.814 229.741 620.222 230.354Z" fill="#E98862"/>
<path opacity="0.52" d="M636.308 218.597C636.938 216.469 637.343 214.276 637.517 212.055C637.96 206.989 637.872 201.887 637.255 196.841C645.43 195.685 653.131 192.149 659.484 186.636C660.231 189.526 664.338 202.155 663.201 204.902C661.052 210.094 650.95 218.597 636.308 218.597Z" fill="#0C0C0C"/>
<path d="M641.131 207.035C656.97 208.823 677.554 202.41 682.035 180.331L686.076 160.408C690.552 138.333 683.12 117.966 663.281 113.546C643.443 109.127 624.984 123.723 620.505 145.802L618.716 154.622C618.152 157.661 617.786 160.738 617.621 163.829C617.128 171.996 616.409 184.421 620.006 193.678C623.4 202.418 631.011 205.893 641.131 207.035Z" fill="#E98862"/>
<path d="M628.549 156.17C629.928 156.17 631.047 154.998 631.047 153.553C631.047 152.107 629.928 150.935 628.549 150.935C627.169 150.935 626.051 152.107 626.051 153.553C626.051 154.998 627.169 156.17 628.549 156.17Z" fill="#0C0C0C"/>
<path d="M652.273 158.788C653.653 158.788 654.771 157.616 654.771 156.17C654.771 154.725 653.653 153.553 652.273 153.553C650.894 153.553 649.775 154.725 649.775 156.17C649.775 157.616 650.894 158.788 652.273 158.788Z" fill="#0C0C0C"/>
<path d="M679.437 186.783C685.466 188.126 691.725 182.456 693.006 176.138C694.288 169.82 690.107 165.248 684.079 163.905L680.113 167.446L674.254 185.628L679.437 186.783Z" fill="#E98862"/>
<path d="M675.365 175.35C675.365 175.35 679.282 143.602 670.586 139.775C664.798 137.226 648.45 143.14 635.407 137.598C629.701 135.173 623.777 135.536 622.646 138.353C622.198 139.468 621.681 121.99 633.381 111.251C642.697 102.701 667.441 104.906 677.823 110.516C706.567 126.05 685.067 165.545 685.067 165.545L681.653 176.057L675.365 175.35Z" fill="#0C0C0C"/>
<g opacity="0.52">
<path d="M635.047 177.621L635.008 177.615C633.064 177.187 629.849 176.24 630.152 174.719C630.406 173.457 636.433 160.553 637.121 159.086C637.18 158.959 637.284 158.863 637.411 158.817C637.538 158.772 637.677 158.781 637.797 158.843C637.918 158.905 638.01 159.014 638.053 159.147C638.097 159.28 638.088 159.426 638.029 159.552C635.355 165.266 631.315 174.079 631.143 174.937C631.262 175.341 633.203 176.134 635.215 176.576C635.341 176.606 635.452 176.685 635.524 176.798C635.596 176.911 635.625 177.048 635.603 177.182C635.582 177.316 635.512 177.436 635.409 177.518C635.305 177.599 635.176 177.636 635.047 177.621Z" fill="#0C0C0C"/>
</g>
<path d="M634.599 145.365C632.689 144.355 630.554 143.903 628.42 144.057C627.371 144.126 626.338 144.36 625.356 144.75C624.384 145.131 623.461 145.64 622.611 146.264C622.469 146.359 622.368 146.508 622.33 146.681C622.292 146.853 622.32 147.034 622.409 147.184C622.497 147.335 622.638 147.443 622.802 147.485C622.966 147.527 623.139 147.5 623.284 147.41L623.329 147.383C624.109 146.876 624.946 146.474 625.822 146.186C626.685 145.897 627.585 145.747 628.491 145.741C630.282 145.713 632.048 146.182 633.61 147.1L633.669 147.136C633.778 147.205 633.9 147.25 634.026 147.269C634.152 147.288 634.28 147.28 634.403 147.247C634.527 147.214 634.642 147.155 634.744 147.075C634.846 146.995 634.931 146.894 634.996 146.779C635.06 146.664 635.102 146.537 635.119 146.405C635.137 146.272 635.129 146.138 635.096 146.009C635.064 145.88 635.007 145.759 634.93 145.653C634.853 145.547 634.756 145.458 634.646 145.391L634.599 145.365Z" fill="#0C0C0C"/>
<path d="M648.882 149.41C650.617 148.944 652.439 148.966 654.163 149.474C655.037 149.725 655.869 150.112 656.632 150.623C657.408 151.138 658.119 151.752 658.748 152.452L658.783 152.488C658.902 152.609 659.061 152.677 659.226 152.678C659.392 152.679 659.552 152.613 659.672 152.494C659.793 152.374 659.864 152.211 659.872 152.037C659.881 151.864 659.825 151.694 659.716 151.563C659.047 150.731 658.281 149.991 657.435 149.361C656.581 148.72 655.639 148.216 654.643 147.867C652.619 147.142 650.445 147.002 648.351 147.462C648.228 147.491 648.11 147.544 648.006 147.62C647.902 147.696 647.813 147.792 647.745 147.904C647.606 148.13 647.559 148.404 647.614 148.666C647.668 148.929 647.82 149.157 648.036 149.302C648.251 149.447 648.513 149.497 648.763 149.439L648.812 149.426L648.882 149.41Z" fill="#0C0C0C"/>
<path d="M631.991 182.519C637.617 183.992 643.551 183.458 648.855 181.002C649.039 180.918 649.242 180.891 649.44 180.923C649.638 180.955 649.824 181.046 649.975 181.185C650.125 181.323 650.235 181.504 650.292 181.705C650.348 181.907 650.349 182.121 650.294 182.323C649.307 185.777 646.528 191.946 639.329 191.435C634.681 191.107 632.011 186.815 630.764 184.063C630.677 183.872 630.645 183.659 630.67 183.45C630.696 183.24 630.778 183.043 630.907 182.88C631.036 182.718 631.206 182.598 631.398 182.534C631.59 182.47 631.796 182.465 631.991 182.519Z" fill="white"/>
<path d="M654.316 115.775C657.004 109.162 655.708 102.249 651.42 100.335C647.133 98.4215 641.478 102.231 638.79 108.844C636.101 115.457 637.398 122.369 641.685 124.283C645.972 126.197 651.627 122.388 654.316 115.775Z" fill="#0C0C0C"/>
<path d="M660.8 253.12C687.107 251.821 688.214 228.422 688.214 228.422C688.214 228.422 701.249 229.305 709.915 230.533C724.102 232.545 733.46 237.586 740.908 245.39C747.837 252.651 752.054 260.506 747.59 310.656C744.359 346.968 746.634 426.84 746.634 426.84H586.319C586.319 426.84 575.125 311.451 573.797 295.104C571.264 263.899 564.109 257.011 578.607 240.937C589.121 229.279 616.264 228.422 627.19 228.424C627.367 228.424 624.975 254.89 660.8 253.12Z" fill="#367CFF"/>
<path d="M573.419 248.163L531.97 340.245L450.231 275.832L417.765 321.072L526 406.364C526.969 407.118 527.981 407.809 529.03 408.434C532.122 410.249 535.526 411.409 539.046 411.846C542.567 412.284 546.135 411.99 549.547 410.982C552.958 409.975 556.148 408.273 558.932 405.973C561.716 403.674 564.041 400.823 565.774 397.582L566.243 396.706L629.479 278.427L573.419 248.163Z" fill="#367CFF"/>
<path d="M752.785 427.649H22.7218C22.5171 427.649 22.3209 427.563 22.1762 427.412C22.0314 427.26 21.9501 427.054 21.9501 426.84C21.9501 426.625 22.0314 426.42 22.1762 426.268C22.3209 426.116 22.5171 426.031 22.7218 426.031H752.785C752.989 426.031 753.185 426.116 753.33 426.268C753.475 426.42 753.556 426.625 753.556 426.84C753.556 427.054 753.475 427.26 753.33 427.412C753.185 427.563 752.989 427.649 752.785 427.649Z" fill="#292A2E"/>
<path d="M593.99 306.562H203.048V446.595H593.99V306.562Z" fill="white"/>
<path d="M594.376 447H202.663V306.158H594.376V447ZM203.434 446.191H593.604V306.967H203.434V446.191Z" fill="#0C0C0C"/>
<path d="M183.744 349.359L207.877 338.064C208.407 337.816 208.981 337.687 209.562 337.684C210.142 337.681 210.717 337.805 211.25 338.047C211.782 338.29 212.261 338.646 212.655 339.093C213.049 339.54 213.35 340.068 213.539 340.644C213.855 341.718 213.78 342.877 213.328 343.896C212.875 344.915 212.078 345.722 211.09 346.16L205.915 348.586L225.524 348.797C227.705 348.78 230.39 350.222 230.247 352.786C230.253 353.777 229.939 354.741 229.355 355.52C228.772 356.3 227.953 356.849 227.033 357.078C227.039 357.099 227.042 357.121 227.043 357.143C227.04 357.16 227.037 357.177 227.033 357.193L230.396 357.168C231.018 357.164 231.633 357.305 232.197 357.581C232.761 357.858 233.258 358.263 233.654 358.766C234.05 359.269 234.333 359.859 234.484 360.492C234.635 361.125 234.649 361.785 234.526 362.424C234.311 363.427 233.774 364.323 233.005 364.961C232.236 365.599 231.281 365.941 230.3 365.929L228.869 365.94C228.85 365.983 228.824 366.023 228.792 366.057C229.76 366.285 230.62 366.866 231.216 367.697C231.813 368.528 232.108 369.554 232.049 370.592C231.954 371.726 231.453 372.781 230.648 373.545C229.843 374.31 228.792 374.728 227.706 374.716L224.151 374.743C224.201 374.779 224.242 374.827 224.271 374.884C224.3 374.94 224.316 375.002 224.318 375.066C224.315 375.142 224.291 375.216 224.249 375.279C225.057 375.733 225.701 376.452 226.081 377.327C226.462 378.202 226.557 379.184 226.353 380.121C226.119 381.1 225.577 381.968 224.814 382.585C224.051 383.201 223.112 383.53 222.149 383.517L192.162 383.741C187.967 383.772 183.859 382.49 180.364 380.059C176.869 377.628 174.146 374.159 172.545 370.096C171.164 366.593 171.142 362.663 172.482 359.142C173.822 355.622 176.419 352.787 179.722 351.241L183.744 349.359Z" fill="#E98862"/>
<g opacity="0.2">
<path d="M207.623 356.965C207.624 357.072 207.666 357.173 207.738 357.248C207.81 357.322 207.907 357.364 208.009 357.364L226.657 357.54C226.759 357.541 226.858 357.499 226.931 357.424C227.004 357.349 227.045 357.246 227.046 357.139C227.047 357.032 227.007 356.928 226.936 356.852C226.864 356.775 226.766 356.732 226.664 356.731L208.016 356.555C207.913 356.555 207.815 356.597 207.743 356.673C207.67 356.749 207.63 356.852 207.63 356.959L207.623 356.965Z" fill="#0C0C0C"/>
</g>
<g opacity="0.2">
<path d="M207.322 365.585C207.323 365.691 207.365 365.792 207.437 365.867C207.509 365.942 207.606 365.983 207.708 365.983L228.519 366.18C228.621 366.18 228.719 366.137 228.792 366.062C228.864 365.986 228.905 365.883 228.905 365.776C228.901 365.67 228.86 365.569 228.788 365.494C228.716 365.419 228.62 365.375 228.519 365.371L207.708 365.175C207.657 365.174 207.606 365.184 207.559 365.204C207.512 365.225 207.469 365.254 207.432 365.292C207.396 365.329 207.367 365.374 207.348 365.423C207.328 365.473 207.318 365.526 207.318 365.579L207.322 365.585Z" fill="#0C0C0C"/>
</g>
<g opacity="0.2">
<path d="M206.945 374.912C206.946 375.018 206.987 375.119 207.06 375.194C207.132 375.268 207.229 375.31 207.33 375.31L223.931 375.467C224.034 375.468 224.132 375.426 224.205 375.351C224.278 375.276 224.32 375.174 224.321 375.066C224.322 374.959 224.282 374.856 224.21 374.779C224.138 374.703 224.041 374.659 223.938 374.658L207.337 374.502C207.235 374.502 207.137 374.544 207.065 374.62C206.992 374.696 206.952 374.799 206.952 374.906L206.945 374.912Z" fill="#0C0C0C"/>
</g>
<path d="M190.652 394.386L56.8542 426.259C52.4094 426.765 47.913 426.186 43.7177 424.566C39.5224 422.946 35.7424 420.33 32.6743 416.922C29.6061 413.514 27.3333 409.407 26.0342 404.924C24.735 400.441 24.4449 395.703 25.1865 391.083L40.498 262.024C41.7713 254.093 45.9991 247.017 52.2512 242.353C58.5033 237.688 66.2676 235.817 73.836 237.152C81.4044 238.486 88.157 242.917 92.6082 249.468C97.0594 256.02 98.8447 264.156 97.5714 272.087L90.1981 364.462L183.156 342.417L190.652 394.386Z" fill="#367CFF"/>
<path d="M71.3871 368.092C71.2902 368.091 71.1972 368.052 71.1265 367.982C71.0558 367.913 71.0126 367.818 71.0055 367.717C70.9984 367.616 71.0279 367.515 71.0882 367.436C71.1484 367.356 71.235 367.303 71.3308 367.288L89.9751 363.116C90.0252 363.107 90.0765 363.11 90.1259 363.122C90.1753 363.135 90.2218 363.157 90.2626 363.189C90.3035 363.221 90.3379 363.261 90.3638 363.306C90.3896 363.352 90.4065 363.403 90.4134 363.456C90.4284 363.562 90.4027 363.669 90.342 363.756C90.2812 363.842 90.1903 363.899 90.0893 363.915L71.445 368.087C71.4258 368.09 71.4065 368.092 71.3871 368.092Z" fill="#0C0C0C"/>
<path d="M60.8685 426.84C60.7662 426.847 60.6654 426.811 60.5883 426.74C60.5113 426.669 60.4642 426.569 60.4576 426.462C60.4509 426.355 60.4852 426.249 60.5528 426.168C60.6205 426.088 60.716 426.038 60.8183 426.031L189.812 394.194L182.503 343.008L90.0993 363.911C90.0395 363.919 89.9789 363.912 89.922 363.891C89.8651 363.87 89.8136 363.836 89.7713 363.791C89.7292 363.746 89.6979 363.69 89.68 363.63C89.662 363.569 89.6579 363.505 89.6679 363.443L94.8512 310.663C94.859 310.61 94.8767 310.56 94.9034 310.514C94.9301 310.469 94.9652 310.43 95.0066 310.399C95.0481 310.368 95.095 310.346 95.1447 310.334C95.1943 310.323 95.2457 310.322 95.2957 310.331C95.3966 310.349 95.4866 310.408 95.546 310.496C95.6053 310.583 95.6291 310.691 95.6121 310.797L90.5191 363.035L182.683 342.116C182.732 342.101 182.784 342.098 182.835 342.105C182.886 342.111 182.935 342.129 182.98 342.156C183.024 342.184 183.063 342.22 183.094 342.263C183.124 342.306 183.147 342.355 183.159 342.408L190.655 394.381C190.678 394.483 190.663 394.591 190.612 394.682C190.561 394.772 190.479 394.838 190.382 394.866L60.9186 426.837C60.902 426.839 60.8853 426.84 60.8685 426.84Z" fill="#0C0C0C"/>
<path d="M606.041 373.618L581.909 362.324C581.378 362.075 580.805 361.946 580.224 361.943C579.643 361.94 579.068 362.064 578.536 362.306C578.003 362.549 577.525 362.905 577.131 363.352C576.737 363.799 576.436 364.328 576.248 364.903C575.931 365.977 576.006 367.136 576.458 368.155C576.911 369.174 577.708 369.981 578.696 370.419L583.871 372.845L564.261 373.057C562.081 373.04 559.395 374.481 559.539 377.046C559.533 378.036 559.847 379 560.431 379.779C561.014 380.559 561.833 381.108 562.753 381.337C562.747 381.358 562.744 381.38 562.743 381.403C562.745 381.419 562.748 381.436 562.753 381.452L559.39 381.427C558.768 381.423 558.153 381.564 557.589 381.84C557.025 382.117 556.527 382.521 556.131 383.025C555.736 383.528 555.452 384.118 555.301 384.751C555.151 385.384 555.136 386.044 555.26 386.683C555.474 387.686 556.011 388.581 556.78 389.22C557.55 389.858 558.504 390.2 559.485 390.188L560.917 390.199C560.936 390.242 560.962 390.282 560.994 390.316C560.026 390.544 559.167 391.125 558.57 391.956C557.973 392.787 557.678 393.813 557.737 394.851C557.833 395.985 558.333 397.04 559.139 397.804C559.944 398.569 560.995 398.987 562.081 398.975L565.636 399.002C565.585 399.038 565.544 399.086 565.515 399.142C565.486 399.199 565.47 399.261 565.469 399.325C565.471 399.402 565.495 399.476 565.538 399.538C564.729 399.992 564.085 400.712 563.705 401.586C563.325 402.461 563.229 403.443 563.433 404.38C563.667 405.359 564.209 406.228 564.972 406.844C565.735 407.46 566.675 407.789 567.638 407.776L597.625 408C601.82 408.032 605.928 406.749 609.424 404.318C612.919 401.886 615.641 398.416 617.242 394.353C618.622 390.849 618.645 386.92 617.305 383.399C615.965 379.878 613.368 377.044 610.065 375.498L606.041 373.618Z" fill="#E98862"/>
<g opacity="0.2">
<path d="M582.162 381.225C582.161 381.331 582.12 381.432 582.048 381.507C581.975 381.581 581.878 381.623 581.777 381.623L563.128 381.799C563.078 381.799 563.027 381.789 562.98 381.769C562.934 381.749 562.891 381.72 562.855 381.683C562.818 381.646 562.79 381.601 562.77 381.553C562.75 381.504 562.74 381.451 562.739 381.398C562.739 381.345 562.748 381.292 562.767 381.243C562.786 381.194 562.814 381.149 562.85 381.111C562.885 381.073 562.927 381.043 562.974 381.022C563.021 381.002 563.071 380.991 563.121 380.99L581.77 380.814C581.872 380.814 581.97 380.856 582.042 380.932C582.115 381.008 582.155 381.111 582.155 381.218L582.162 381.225Z" fill="#0C0C0C"/>
</g>
<g opacity="0.2">
<path d="M582.463 389.844C582.462 389.95 582.421 390.05 582.35 390.125C582.278 390.199 582.182 390.242 582.081 390.243L561.269 390.439C561.167 390.439 561.069 390.397 560.997 390.321C560.924 390.245 560.884 390.142 560.884 390.035C560.887 389.929 560.929 389.828 561 389.753C561.072 389.678 561.168 389.634 561.269 389.63L582.081 389.434C582.183 389.434 582.281 389.477 582.353 389.552C582.426 389.628 582.466 389.731 582.466 389.838L582.463 389.844Z" fill="#0C0C0C"/>
</g>
<g opacity="0.2">
<path d="M582.841 399.171C582.84 399.277 582.799 399.378 582.727 399.453C582.654 399.528 582.557 399.569 582.456 399.569L565.855 399.726C565.804 399.727 565.754 399.717 565.707 399.697C565.66 399.677 565.617 399.648 565.581 399.61C565.545 399.573 565.516 399.529 565.496 399.48C565.476 399.431 565.466 399.379 565.465 399.326C565.465 399.272 565.474 399.22 565.493 399.171C565.512 399.121 565.54 399.076 565.576 399.039C565.611 399.001 565.654 398.971 565.7 398.95C565.747 398.929 565.797 398.918 565.848 398.918L582.449 398.761C582.551 398.761 582.649 398.803 582.721 398.879C582.794 398.955 582.835 399.058 582.835 399.165L582.841 399.171Z" fill="#0C0C0C"/>
</g>
<path d="M606.85 418.645L732.931 426.258C737.376 426.765 741.872 426.186 746.068 424.566C750.263 422.946 754.043 420.329 757.111 416.921C760.179 413.513 762.452 409.407 763.751 404.924C765.05 400.441 765.34 395.703 764.599 391.083L749.29 262.02C748.66 258.093 747.297 254.335 745.281 250.959C743.264 247.584 740.633 244.658 737.537 242.349C734.441 240.039 730.942 238.391 727.238 237.499C723.535 236.606 719.7 236.487 715.952 237.148C712.205 237.808 708.618 239.236 705.397 241.349C702.176 243.463 699.384 246.22 697.18 249.464C694.976 252.708 693.403 256.375 692.552 260.256C691.7 264.137 691.586 268.156 692.217 272.083L699.59 370.118L607.404 366.672L606.85 418.645Z" fill="#367CFF"/>
<path d="M718.398 369.709C718.495 369.708 718.588 369.669 718.659 369.6C718.73 369.531 718.773 369.436 718.78 369.335C718.788 369.233 718.758 369.133 718.698 369.053C718.638 368.974 718.551 368.921 718.455 368.905L699.811 368.776C699.761 368.768 699.709 368.77 699.66 368.782C699.611 368.795 699.564 368.818 699.523 368.849C699.482 368.881 699.448 368.921 699.422 368.967C699.396 369.012 699.379 369.063 699.372 369.116C699.357 369.222 699.383 369.33 699.444 369.416C699.504 369.502 699.596 369.56 699.697 369.575L718.341 369.704C718.36 369.707 718.379 369.709 718.398 369.709Z" fill="#0C0C0C"/>
<path d="M728.918 426.84C729.021 426.847 729.121 426.811 729.198 426.74C729.275 426.669 729.322 426.569 729.329 426.461C729.335 426.354 729.301 426.249 729.233 426.168C729.166 426.087 729.07 426.038 728.968 426.031L607.689 418.457L608.053 367.27L699.684 369.575C699.744 369.583 699.805 369.576 699.862 369.555C699.919 369.534 699.97 369.5 700.012 369.455C700.055 369.409 700.086 369.354 700.104 369.294C700.122 369.233 700.126 369.169 700.116 369.106L694.933 310.666C694.925 310.614 694.908 310.563 694.881 310.518C694.854 310.473 694.819 310.433 694.778 310.402C694.736 310.372 694.689 310.35 694.64 310.338C694.59 310.326 694.539 310.325 694.489 310.335C694.439 310.343 694.391 310.362 694.348 310.391C694.305 310.419 694.268 310.455 694.238 310.499C694.209 310.542 694.188 310.591 694.176 310.643C694.165 310.694 694.163 310.748 694.172 310.801L699.269 368.699L607.877 366.378C607.827 366.364 607.775 366.36 607.724 366.367C607.673 366.374 607.624 366.391 607.58 366.419C607.535 366.446 607.497 366.482 607.466 366.525C607.435 366.569 607.412 366.618 607.4 366.67L606.849 418.644C606.825 418.746 606.84 418.853 606.891 418.944C606.942 419.035 607.025 419.101 607.121 419.129L728.865 426.832C728.883 426.836 728.9 426.839 728.918 426.84Z" fill="#0C0C0C"/>
<path d="M295.733 398.186H285.485L279.737 374.821C279.524 373.99 279.161 372.271 278.649 369.665C278.136 367.059 277.841 365.31 277.763 364.417C277.647 365.512 277.357 367.271 276.892 369.695C276.427 372.119 276.069 373.848 275.818 374.883L270.099 398.186H259.88L249.051 353.711H257.906L263.334 377.988C264.283 382.47 264.97 386.354 265.395 389.639C265.511 388.483 265.777 386.693 266.194 384.27C266.611 381.847 267.003 379.966 267.37 378.627L273.554 353.711H282.06L288.243 378.627C288.514 379.742 288.852 381.446 289.259 383.737C289.666 386.028 289.975 387.996 290.185 389.64C290.379 388.058 290.687 386.086 291.111 383.723C291.535 381.359 291.921 379.448 292.269 377.989L297.67 353.712H306.525L295.733 398.186Z" fill="#FF8A00"/>
<path d="M336.319 398.186H311.874V353.711H336.319V361.438H320.875V371.203H335.245V378.927H320.875V390.397H336.319V398.186Z" fill="#FF8A00"/>
<path d="M345.173 398.186V353.711H354.173V390.4H371.388V398.188L345.173 398.186Z" fill="#FF8A00"/>
<path d="M396.792 360.918C395.266 360.845 393.747 361.173 392.372 361.872C390.998 362.57 389.811 363.618 388.921 364.918C387.063 367.586 386.134 371.303 386.135 376.069C386.135 385.988 389.686 390.948 396.788 390.948C400.497 390.797 404.156 390.004 407.618 388.603V396.512C403.911 398.078 399.943 398.854 395.947 398.794C389.774 398.794 385.051 396.832 381.779 392.907C378.507 388.982 376.872 383.349 376.873 376.007C376.785 371.816 377.609 367.66 379.283 363.854C380.767 360.515 383.181 357.726 386.207 355.852C389.429 353.939 393.086 352.977 396.788 353.069C401.102 353.117 405.35 354.188 409.212 356.202L406.308 363.869C404.748 363.09 403.149 362.399 401.519 361.8C400.002 361.229 398.404 360.931 396.792 360.918Z" fill="#FF8A00"/>
<path d="M455.173 375.886C455.173 383.248 453.431 388.906 449.947 392.862C446.463 396.817 441.47 398.794 434.967 398.794C428.464 398.794 423.471 396.817 419.987 392.862C416.503 388.907 414.761 383.228 414.761 375.825C414.761 368.422 416.508 362.769 420.002 358.865C423.495 354.961 428.503 353.009 435.024 353.008C441.547 353.008 446.535 354.976 449.991 358.911C453.446 362.846 455.174 368.505 455.173 375.886ZM424.196 375.886C424.196 380.855 425.097 384.597 426.897 387.112C428.698 389.626 431.388 390.884 434.967 390.884C442.148 390.884 445.739 385.885 445.738 375.886C445.738 365.867 442.167 360.857 435.025 360.857C431.445 360.857 428.744 362.12 426.923 364.645C425.101 367.17 424.192 370.917 424.196 375.886Z" fill="#FF8A00"/>
<path d="M481.94 398.186L471.721 363.292H471.46C471.827 370.39 472.011 375.126 472.011 377.499V398.186H463.969V353.711H476.221L486.266 387.723H486.439L497.094 353.711H509.345V398.186H500.956V377.133C500.956 376.14 500.97 374.994 500.998 373.695C501.027 372.397 501.157 368.949 501.39 363.352H501.129L490.185 398.186H481.94Z" fill="#FF8A00"/>
<path d="M544.473 398.186H520.028V353.711H544.472V361.438H529.029V371.203H543.4V378.927H529.029V390.397H544.473V398.186Z" fill="#FF8A00"/>
</g>
<defs>
<clipPath id="clip0_102_191">
<rect width="765" height="447" fill="white"/>
</clipPath>
</defs>
</svg>
