<svg width="811" height="775" viewBox="0 0 811 775" fill="none" xmlns="http://www.w3.org/2000/svg">
<path opacity="0.2" d="M28.548 100.376L27.755 100.176L-223.934 627.108L663.322 695.6L664.322 695.677L696.832 267.927L696.896 267.086L28.548 100.376ZM283.429 439.241L-220.442 624.437L28.5 103.258L283.429 439.241ZM284.907 440.828L659.7 693.309L-217.75 625.579L284.907 440.828ZM285.37 438.492L30.819 103L692.666 268.087L285.37 438.492ZM662.533 692.809L287.139 439.92L694.712 269.4L662.533 692.809Z" fill="#367CFF"/>
<path d="M810.231 276.835C809.429 297.12 803.728 316.91 793.614 334.513C783.5 352.116 769.275 367.008 752.154 377.918C735.034 388.827 715.526 395.429 695.298 397.16C675.071 398.891 654.725 395.698 636 387.856C627.218 384.175 618.888 379.496 611.176 373.91C596.436 363.268 584.167 349.569 575.21 333.748V333.734C565.659 316.813 560.162 297.907 559.151 278.503C558.139 259.099 561.641 239.724 569.381 221.902C577.121 204.079 588.888 188.294 603.758 175.787C618.628 163.28 636.196 154.391 655.081 149.819C673.966 145.246 693.654 145.116 712.598 149.436C731.542 153.757 749.226 162.412 764.261 174.72C779.296 187.029 791.272 202.656 799.248 220.374C807.224 238.092 810.983 257.418 810.23 276.834L810.231 276.835Z" fill="white"/>
<path opacity="0.09" d="M810.231 276.835C809.429 297.12 803.728 316.91 793.614 334.513C783.5 352.116 769.275 367.008 752.154 377.918C735.034 388.827 715.526 395.429 695.298 397.16C675.071 398.891 654.725 395.698 636 387.856C627.218 384.175 618.888 379.496 611.176 373.91C596.436 363.268 584.167 349.569 575.21 333.748V333.734C565.659 316.813 560.162 297.907 559.151 278.503C558.139 259.099 561.641 239.724 569.381 221.902C577.121 204.079 588.888 188.294 603.758 175.787C618.628 163.28 636.196 154.391 655.081 149.819C673.966 145.246 693.654 145.116 712.598 149.436C731.542 153.757 749.226 162.412 764.261 174.72C779.296 187.029 791.272 202.656 799.248 220.374C807.224 238.092 810.983 257.418 810.23 276.834L810.231 276.835Z" fill="#367CFF"/>
<path d="M714.367 176.256C714.367 176.256 744.412 176.624 734.053 218.029L731.232 218.167L725.504 218.446" fill="#0C0C0C"/>
<path d="M680.819 261.47C680.959 261.457 681.513 287.283 711.532 286.198C732.314 285.45 740.556 263.751 741.032 263.769C738.816 263.208 735.08 262.369 734.109 261.803C730.914 259.924 726.947 257.943 726.141 251.565C725.677 247.889 727.43 229.245 727.257 225.538L695.173 231.403C695.315 239.225 697.724 257.437 686.697 260.216C684.861 260.676 682.888 261.087 680.819 261.47Z" fill="#E98862"/>
<path opacity="0.52" d="M693.884 253.09C694.445 251.504 694.83 249.86 695.033 248.19C695.531 244.38 695.61 240.526 695.27 236.699C701.769 236.077 707.963 233.645 713.149 229.679C713.655 231.879 716.534 241.541 715.549 243.579C713.7 247.433 705.464 253.54 693.884 253.09Z" fill="#0C0C0C"/>
<path d="M701.167 248.527C713.744 247.627 728.916 239.97 729.443 222.927L729.919 207.552C730.446 190.512 721.919 176.421 705.88 175.925C689.836 175.425 677.416 188.871 676.889 205.911L676.679 212.718C676.647 215.057 676.775 217.396 677.061 219.718C677.773 225.858 678.879 235.194 682.922 241.569C686.738 247.587 693.132 249.1 701.167 248.527Z" fill="#E98862"/>
<path d="M728.286 228.091C733.162 228.241 737.276 223.147 737.427 218.272C737.578 213.397 733.708 210.585 728.833 210.434L726.219 213.623L724.094 227.961L728.286 228.091Z" fill="#E98862"/>
<path d="M677.714 224.864C678.595 225.908 679.723 226.716 680.995 227.213C682.268 227.71 683.645 227.881 685 227.71C687.9 227.345 689.823 228.535 692.244 228.296C694.276 228.096 694.628 227.157 698.096 226.952C711.483 226.159 721.529 225.315 722.181 208.516L730.7 200.949C730.7 200.949 734.507 247.501 709.328 253.689C693.856 257.489 679.345 256.1 677.479 241.569C675.963 229.762 677.714 224.864 677.714 224.864Z" fill="#0C0C0C"/>
<path d="M684.057 215.142C685.149 215.142 686.034 214.257 686.034 213.165C686.034 212.073 685.149 211.188 684.057 211.188C682.965 211.188 682.08 212.073 682.08 213.165C682.08 214.257 682.965 215.142 684.057 215.142Z" fill="#0C0C0C"/>
<path d="M701.719 214.774C702.811 214.774 703.696 213.889 703.696 212.797C703.696 211.705 702.811 210.82 701.719 210.82C700.627 210.82 699.742 211.705 699.742 212.797C699.742 213.889 700.627 214.774 701.719 214.774Z" fill="#0C0C0C"/>
<path d="M723.577 220.165C723.577 220.165 722.37 196.019 715.084 194.396C710.231 193.315 698.295 200.009 687.392 197.723C682.623 196.723 678.058 197.823 677.554 200.077C677.354 200.969 673.58 193.058 681.254 183.432C687.363 175.768 707.229 173.612 716.066 176.322C740.538 183.828 729.82 211.515 729.82 211.515L728.571 219.809L723.577 220.165Z" fill="#0C0C0C"/>
<path d="M734.698 200.695C741.901 200.695 747.74 194.856 747.74 187.653C747.74 180.45 741.901 174.611 734.698 174.611C727.495 174.611 721.656 180.45 721.656 187.653C721.656 194.856 727.495 200.695 734.698 200.695Z" fill="#0C0C0C"/>
<g opacity="0.52">
<path d="M692.483 227.52H692.452C690.881 227.475 688.252 227.225 688.282 226.05C688.31 225.076 691.274 214.638 691.612 213.45C691.641 213.348 691.709 213.261 691.802 213.21C691.895 213.158 692.004 213.145 692.107 213.174C692.209 213.203 692.295 213.272 692.347 213.365C692.398 213.457 692.411 213.567 692.382 213.669C691.066 218.292 689.102 225.41 689.082 226.069C689.229 226.351 690.847 226.669 692.474 226.716C692.58 226.715 692.682 226.756 692.758 226.83C692.834 226.904 692.877 227.005 692.878 227.111C692.88 227.218 692.839 227.32 692.765 227.396C692.69 227.471 692.589 227.515 692.483 227.516V227.52Z" fill="#0C0C0C"/>
</g>
<path d="M687.7 206.448C686.077 205.967 684.354 205.933 682.713 206.348C681.905 206.546 681.132 206.865 680.419 207.294C679.713 207.714 679.063 208.222 678.484 208.805C678.384 208.895 678.323 209.021 678.316 209.155C678.308 209.29 678.355 209.422 678.444 209.522C678.534 209.623 678.66 209.683 678.795 209.691C678.93 209.698 679.062 209.652 679.162 209.562L679.193 209.536C679.733 209.049 680.331 208.632 680.975 208.295C681.609 207.959 682.289 207.721 682.994 207.589C684.385 207.317 685.823 207.417 687.163 207.88L687.214 207.899C687.309 207.936 687.409 207.953 687.511 207.95C687.612 207.947 687.712 207.924 687.805 207.883C687.897 207.841 687.98 207.781 688.049 207.707C688.118 207.633 688.172 207.545 688.207 207.45C688.242 207.355 688.258 207.254 688.253 207.152C688.249 207.051 688.224 206.951 688.181 206.86C688.137 206.768 688.076 206.686 688 206.618C687.925 206.55 687.837 206.498 687.741 206.465L687.7 206.448Z" fill="#0C0C0C"/>
<path d="M699.348 207.882C700.636 207.29 702.058 207.051 703.469 207.187C704.184 207.25 704.885 207.42 705.548 207.694C706.221 207.967 706.857 208.323 707.441 208.755L707.473 208.777C707.582 208.848 707.714 208.874 707.841 208.851C707.969 208.828 708.083 208.757 708.16 208.652C708.237 208.547 708.271 208.417 708.254 208.288C708.238 208.159 708.173 208.041 708.073 207.959C707.44 207.435 706.744 206.993 706 206.643C705.249 206.286 704.448 206.043 703.625 205.924C701.951 205.672 700.24 205.874 698.671 206.511C698.487 206.591 698.341 206.74 698.266 206.926C698.19 207.112 698.191 207.32 698.268 207.505C698.345 207.691 698.492 207.838 698.677 207.916C698.862 207.994 699.071 207.996 699.257 207.922L699.294 207.906L699.348 207.882Z" fill="#0C0C0C"/>
<path d="M779.441 325.957C778.323 334.4 777.232 345.997 776.257 357.988C772.449 362.041 768.376 365.838 764.067 369.354C761.328 371.579 758.5 373.694 755.585 375.7C739.821 386.46 721.818 393.496 702.936 396.276C684.053 399.056 664.786 397.507 646.59 391.746C646.342 380.608 646.004 365.584 645.668 351.82C645.283 335.943 644.894 321.727 644.685 317.056C643.823 298.518 638.909 286.149 642.624 276.035C643.735 273.041 645.521 270.343 647.843 268.152C656.498 259.681 677.997 259.874 686.62 260.209C686.77 260.215 684.106 280.116 712.477 279.876C733.33 279.705 734.894 262.082 734.894 262.082C734.894 262.082 745.17 263.151 751.994 264.336C763.156 266.291 770.413 270.385 776.06 276.499C781.329 282.2 784.437 288.252 779.441 325.957Z" fill="#367CFF"/>
<path d="M612.648 262.171L613.506 240.936C613.526 240.469 613.448 240.003 613.277 239.568C613.107 239.132 612.847 238.738 612.516 238.408C612.184 238.079 611.787 237.822 611.351 237.655C610.914 237.487 610.448 237.413 609.981 237.436C609.121 237.505 608.318 237.892 607.726 238.52C607.135 239.148 606.798 239.973 606.781 240.836L606.597 245.39L600.6 230.807C599.962 229.174 598.134 227.578 596.349 228.415C595.641 228.692 595.048 229.201 594.667 229.858C594.285 230.516 594.138 231.283 594.249 232.035C594.232 232.037 594.215 232.041 594.199 232.046C594.188 232.052 594.177 232.06 594.167 232.068L593.183 229.55C593.001 229.083 592.716 228.664 592.351 228.321C591.986 227.978 591.549 227.721 591.071 227.569C590.594 227.417 590.089 227.373 589.593 227.441C589.097 227.509 588.622 227.686 588.203 227.961C587.552 228.406 587.074 229.062 586.848 229.818C586.623 230.574 586.663 231.384 586.964 232.114L587.383 233.185C587.358 233.211 587.337 233.242 587.322 233.276C586.871 232.618 586.201 232.142 585.432 231.933C584.663 231.723 583.844 231.794 583.122 232.133C582.343 232.527 581.741 233.201 581.437 234.02C581.132 234.839 581.148 235.742 581.48 236.55L582.52 239.212C582.479 239.184 582.432 239.167 582.383 239.162C582.334 239.156 582.284 239.162 582.238 239.18C582.184 239.204 582.138 239.243 582.106 239.292C581.542 238.817 580.837 238.541 580.1 238.505C579.363 238.47 578.635 238.678 578.028 239.097C577.399 239.55 576.942 240.202 576.73 240.947C576.518 241.693 576.564 242.488 576.86 243.204L585.637 265.663C586.865 268.805 589.003 271.508 591.777 273.427C594.552 275.346 597.836 276.393 601.209 276.433C604.118 276.467 606.925 275.366 609.035 273.364C611.145 271.361 612.391 268.615 612.509 265.709L612.648 262.171Z" fill="#E98862"/>
<g opacity="0.2">
<path d="M600.111 246.5C600.035 246.529 599.951 246.528 599.876 246.495C599.801 246.463 599.742 246.403 599.711 246.328L594.028 232.451C594.01 232.413 594 232.371 593.999 232.329C593.997 232.287 594.004 232.245 594.02 232.205C594.035 232.166 594.058 232.13 594.088 232.1C594.117 232.07 594.153 232.046 594.192 232.03C594.231 232.014 594.273 232.007 594.315 232.007C594.357 232.008 594.399 232.017 594.437 232.035C594.476 232.052 594.51 232.077 594.539 232.108C594.567 232.139 594.589 232.176 594.603 232.216L600.286 246.093C600.302 246.13 600.309 246.171 600.309 246.212C600.309 246.253 600.301 246.293 600.285 246.331C600.269 246.368 600.246 246.402 600.217 246.431C600.188 246.46 600.154 246.482 600.116 246.498L600.111 246.5Z" fill="#0C0C0C"/>
</g>
<g opacity="0.2">
<path d="M594.06 249.176C593.984 249.205 593.899 249.204 593.824 249.172C593.75 249.139 593.69 249.079 593.66 249.003L587.318 233.516C587.288 233.44 587.289 233.356 587.321 233.281C587.353 233.206 587.413 233.147 587.488 233.116C587.564 233.089 587.647 233.091 587.721 233.122C587.795 233.154 587.855 233.212 587.888 233.285L594.23 248.772C594.261 248.848 594.261 248.934 594.229 249.01C594.197 249.085 594.136 249.146 594.06 249.177V249.176Z" fill="#0C0C0C"/>
</g>
<g opacity="0.2">
<path d="M587.523 252.111C587.447 252.14 587.362 252.139 587.287 252.107C587.213 252.074 587.153 252.014 587.123 251.938L582.064 239.585C582.033 239.509 582.033 239.423 582.065 239.347C582.097 239.272 582.157 239.212 582.234 239.18C582.31 239.149 582.395 239.15 582.471 239.181C582.547 239.213 582.607 239.274 582.638 239.35L587.7 251.7C587.731 251.776 587.731 251.862 587.699 251.937C587.667 252.013 587.606 252.074 587.53 252.105L587.523 252.111Z" fill="#0C0C0C"/>
</g>
<path d="M682.941 295.463L631.261 374.919C629.381 377.807 626.863 380.226 623.902 381.989C619.498 379.56 615.247 376.862 611.175 373.91C602.495 367.647 594.652 360.3 587.835 352.048L576.98 267.884L620.423 260.923L625.376 301.435L645.224 270.922L682.941 295.463Z" fill="#367CFF"/>
<path d="M689 231.855C693.74 232.17 698.451 230.895 702.386 228.234C702.523 228.142 702.682 228.091 702.847 228.087C703.011 228.083 703.173 228.126 703.314 228.21C703.455 228.295 703.569 228.418 703.643 228.565C703.716 228.712 703.747 228.877 703.73 229.041C703.413 231.841 702.03 236.991 696.155 237.647C692.362 238.07 689.613 235.157 688.228 233.22C688.132 233.086 688.077 232.927 688.068 232.763C688.059 232.598 688.098 232.435 688.179 232.291C688.26 232.148 688.38 232.031 688.526 231.953C688.671 231.876 688.836 231.842 689 231.855Z" fill="white"/>
<path d="M793.455 334.887C785.818 348.054 775.861 359.731 764.067 369.354C761.328 371.579 758.5 373.695 755.585 375.7L735.4 298.909L780.858 286.952L793.455 334.887Z" fill="#367CFF"/>
<path d="M756.027 375.4C755.883 375.494 755.727 375.6 755.585 375.7C755.443 375.8 755.297 375.9 755.153 375.993L739.769 317.493L740.74 317.24L756.027 375.4Z" fill="#0C0C0C"/>
<path d="M645.79 355.437C645.665 355.432 645.546 355.38 645.458 355.291C645.369 355.203 645.317 355.085 645.311 354.96L644.319 333.16C644.313 333.027 644.36 332.898 644.45 332.8C644.539 332.702 644.664 332.643 644.797 332.637C644.929 332.631 645.059 332.678 645.157 332.768C645.255 332.857 645.313 332.982 645.319 333.115L646.31 354.915C646.316 355.047 646.269 355.176 646.18 355.274C646.091 355.372 645.966 355.431 645.834 355.437H645.79Z" fill="#0C0C0C"/>
<path d="M271.92 557.165C342.676 557.165 400.035 499.806 400.035 429.05C400.035 358.294 342.676 300.935 271.92 300.935C201.164 300.935 143.805 358.294 143.805 429.05C143.805 499.806 201.164 557.165 271.92 557.165Z" fill="white"/>
<path opacity="0.09" d="M400.036 429.047C400.036 454.385 392.522 479.155 378.445 500.223C364.368 521.291 344.359 537.711 320.95 547.408C297.54 557.105 271.781 559.642 246.929 554.698C222.078 549.755 199.25 537.554 181.333 519.637C163.416 501.72 151.215 478.892 146.272 454.041C141.328 429.189 143.865 403.43 153.562 380.02C163.259 356.611 179.679 336.602 200.747 322.525C221.815 308.448 246.585 300.934 271.923 300.934C288.764 300.872 305.452 304.143 321.023 310.559C336.595 316.975 350.743 326.41 362.651 338.319C374.56 350.227 383.995 364.375 390.411 379.947C396.827 395.518 400.098 412.205 400.036 429.047Z" fill="#367CFF"/>
<path d="M215.21 353.485C215.21 353.485 213.922 372.825 209.57 379.842C197.044 400.042 193.415 422.767 205.959 434.642C218.503 446.517 298.514 446.68 304.575 419.372C309.675 396.382 298.727 393.91 296.063 374.945C294.857 366.364 291.54 348.37 291.54 348.37" fill="#0A0A0A"/>
<path d="M283.865 415.365C283.727 415.347 282.195 440.778 252.651 438.565C232.199 437.033 224.907 415.333 224.438 415.333C226.643 414.865 230.356 414.183 231.338 413.661C234.558 411.93 238.543 410.13 239.581 403.875C240.181 400.275 239.164 381.829 239.481 378.182L270.875 385.189C270.437 392.889 267.366 410.749 278.127 413.909C279.912 414.428 281.841 414.909 283.865 415.365Z" fill="#E98862"/>
<path opacity="0.5" d="M271.309 406.608C270.818 405.023 270.501 403.389 270.365 401.735C270.02 397.961 270.089 394.161 270.57 390.402C264.189 389.541 258.178 386.908 253.219 382.802C252.636 384.955 249.43 394.362 250.319 396.409C252 400.274 259.88 406.608 271.309 406.608Z" fill="#0C0C0C"/>
<path d="M267.25 398.685C254.872 399.885 238.857 394.931 235.54 378.448L232.546 363.575C229.229 347.092 235.197 331.987 250.716 328.864C266.236 325.74 280.526 336.764 283.843 353.251L285.169 359.835C286.442 366.16 289.334 396.548 267.25 398.685Z" fill="#E98862"/>
<path opacity="0.1" d="M259.381 377.089C261.418 376.846 262.924 375.438 262.746 373.943C262.568 372.449 260.772 371.434 258.735 371.677C256.699 371.92 255.192 373.329 255.37 374.823C255.549 376.318 257.344 377.332 259.381 377.089Z" fill="#0C0C0C"/>
<path opacity="0.1" d="M280.905 371.112C281.088 372.603 282.883 373.612 284.92 373.376C285.272 373.334 285.619 373.255 285.955 373.142C286.049 371.363 286.055 369.651 286.003 368.067C285.437 367.926 284.85 367.892 284.272 367.967C282.235 368.206 280.729 369.614 280.905 371.112Z" fill="#0C0C0C"/>
<path opacity="0.5" d="M271.905 375.723H271.935C272.564 375.591 273.185 375.424 273.795 375.223C274.706 374.923 275.895 374.418 275.733 373.594C275.544 372.654 270.933 363.039 270.406 361.945C270.357 361.855 270.275 361.788 270.178 361.757C270.08 361.725 269.974 361.733 269.882 361.777C269.79 361.821 269.718 361.899 269.682 361.995C269.645 362.091 269.647 362.196 269.686 362.291C271.653 366.391 274.822 373.119 274.949 373.751C274.849 374.046 273.338 374.622 271.777 374.937C271.678 374.96 271.591 375.019 271.535 375.104C271.478 375.188 271.455 375.291 271.472 375.391C271.488 375.491 271.542 375.582 271.622 375.644C271.703 375.706 271.804 375.735 271.905 375.725V375.723Z" fill="#0C0C0C"/>
<path d="M220.163 368.914L234.077 366.196C244.587 361.796 247.569 343.484 247.569 343.484C247.569 343.484 260.54 355.837 291.54 348.367C291.54 348.367 284.806 305.091 239.032 318.227C224.272 322.462 213.817 337.507 215.372 357.433C216.461 371.4 220.163 368.914 220.163 368.914Z" fill="#0A0A0A"/>
<path d="M237.514 383.276C232.798 384.225 227.959 379.949 227.014 375.232C226.069 370.515 229.364 367.145 234.081 366.196L237.147 368.867L241.573 382.46L237.514 383.276Z" fill="#E98862"/>
<path d="M273.751 354.277C274.931 353.441 276.311 352.934 277.751 352.807C278.474 352.738 279.203 352.778 279.914 352.926C280.631 353.072 281.327 353.307 281.986 353.626L282.007 353.635C282.079 353.664 282.16 353.665 282.233 353.636C282.306 353.608 282.365 353.552 282.399 353.481C282.432 353.411 282.437 353.33 282.412 353.255C282.388 353.181 282.336 353.119 282.267 353.082C281.569 352.713 280.828 352.435 280.06 352.252C279.287 352.064 278.491 351.993 277.697 352.042C276.09 352.131 274.536 352.649 273.197 353.542C273.145 353.575 273.1 353.618 273.065 353.669C273.03 353.719 273.006 353.776 272.994 353.837C272.981 353.897 272.981 353.959 272.993 354.019C273.005 354.08 273.029 354.137 273.064 354.188C273.099 354.239 273.143 354.282 273.195 354.315C273.247 354.349 273.305 354.371 273.365 354.382C273.426 354.392 273.488 354.39 273.548 354.376C273.608 354.362 273.664 354.336 273.714 354.3L273.724 354.293L273.751 354.277Z" fill="#0C0C0C"/>
<path d="M261.041 356.033C259.461 355.719 257.826 355.835 256.306 356.368C255.555 356.627 254.847 356.998 254.206 357.468C253.567 357.931 252.989 358.473 252.485 359.08C252.434 359.141 252.408 359.219 252.413 359.298C252.418 359.377 252.454 359.451 252.512 359.504C252.571 359.557 252.648 359.586 252.727 359.584C252.806 359.582 252.882 359.549 252.937 359.492L252.953 359.475C253.438 358.927 253.991 358.443 254.598 358.034C255.198 357.625 255.856 357.308 256.551 357.095C257.93 356.663 259.399 356.603 260.809 356.922L260.844 356.93C260.903 356.946 260.965 356.949 261.025 356.941C261.086 356.933 261.144 356.912 261.196 356.881C261.249 356.85 261.295 356.808 261.331 356.759C261.367 356.71 261.393 356.654 261.408 356.594C261.422 356.535 261.425 356.473 261.415 356.413C261.405 356.353 261.383 356.295 261.351 356.243C261.319 356.191 261.276 356.146 261.226 356.111C261.176 356.076 261.12 356.051 261.06 356.038L261.041 356.033Z" fill="#0C0C0C"/>
<path d="M234.086 365.968C243.439 362.487 246.542 356.028 247.499 351.221C248.117 348.015 248.059 344.716 247.329 341.534L247.039 341.614C247.759 344.754 247.814 348.011 247.202 351.174C246.259 355.901 243.202 362.257 233.981 365.687L234.086 365.968Z" fill="#0C0C0C"/>
<path d="M352.338 410.3L357.938 391.3C358.061 390.883 358.27 390.495 358.55 390.163C358.831 389.831 359.178 389.56 359.569 389.369C359.96 389.179 360.387 389.071 360.822 389.054C361.256 389.037 361.69 389.11 362.095 389.27C362.833 389.588 363.427 390.169 363.761 390.9C364.095 391.631 364.146 392.46 363.904 393.226L362.704 397.3L372.357 386.222C373.409 384.971 375.499 384.109 376.824 385.382C377.366 385.838 377.737 386.465 377.877 387.159C378.017 387.853 377.918 388.575 377.595 389.205C377.609 389.212 377.623 389.22 377.635 389.23C377.643 389.239 377.651 389.249 377.657 389.259L379.279 387.33C379.58 386.973 379.956 386.688 380.381 386.495C380.806 386.302 381.268 386.206 381.735 386.215C382.201 386.223 382.66 386.335 383.078 386.544C383.496 386.752 383.861 387.051 384.149 387.418C384.59 388.006 384.816 388.727 384.789 389.462C384.762 390.196 384.483 390.899 384 391.453L383.31 392.274C383.325 392.305 383.334 392.339 383.336 392.374C383.931 391.928 384.665 391.708 385.407 391.754C386.149 391.8 386.851 392.108 387.387 392.623C387.957 393.204 388.287 393.979 388.311 394.792C388.335 395.606 388.051 396.399 387.516 397.012L385.801 399.05C385.845 399.038 385.892 399.037 385.937 399.047C385.982 399.056 386.024 399.077 386.06 399.106C386.1 399.143 386.129 399.192 386.143 399.245C386.784 398.995 387.489 398.963 388.15 399.154C388.811 399.345 389.391 399.747 389.8 400.3C390.219 400.888 390.427 401.6 390.391 402.321C390.354 403.042 390.076 403.73 389.6 404.273L375.136 421.473C373.112 423.879 370.417 425.625 367.394 426.488C364.371 427.352 361.16 427.293 358.171 426.319C355.594 425.48 353.446 423.668 352.183 421.27C350.92 418.872 350.642 416.076 351.408 413.476L352.338 410.3Z" fill="#E98862"/>
<g opacity="0.2">
<path d="M368.09 400.222C368.148 400.269 368.222 400.292 368.297 400.286C368.371 400.279 368.44 400.245 368.49 400.189L377.656 389.642C377.706 389.584 377.731 389.509 377.726 389.432C377.721 389.356 377.685 389.284 377.627 389.234C377.569 389.184 377.493 389.159 377.417 389.164C377.34 389.169 377.269 389.205 377.219 389.263L368.053 399.809C368.028 399.838 368.009 399.871 367.997 399.907C367.985 399.943 367.98 399.981 367.983 400.019C367.986 400.057 367.996 400.094 368.013 400.128C368.03 400.162 368.053 400.192 368.082 400.217L368.09 400.222Z" fill="#0C0C0C"/>
</g>
<g opacity="0.2">
<path d="M372.63 404.392C372.688 404.439 372.762 404.463 372.837 404.456C372.911 404.45 372.981 404.415 373.03 404.359L383.259 392.589C383.284 392.56 383.303 392.527 383.315 392.491C383.327 392.455 383.332 392.417 383.329 392.379C383.326 392.341 383.316 392.304 383.299 392.27C383.282 392.236 383.259 392.206 383.23 392.181C383.171 392.133 383.096 392.11 383.02 392.115C382.944 392.121 382.874 392.155 382.822 392.21L372.6 403.98C372.575 404.009 372.556 404.042 372.544 404.078C372.532 404.114 372.527 404.152 372.53 404.19C372.533 404.228 372.543 404.265 372.56 404.299C372.577 404.333 372.6 404.363 372.629 404.388L372.63 404.392Z" fill="#0C0C0C"/>
</g>
<g opacity="0.2">
<path d="M377.521 408.938C377.579 408.986 377.653 409.009 377.728 409.002C377.802 408.996 377.872 408.961 377.921 408.905L386.081 399.517C386.126 399.459 386.148 399.385 386.14 399.311C386.133 399.237 386.098 399.169 386.042 399.12C385.986 399.072 385.914 399.046 385.84 399.05C385.766 399.053 385.696 399.084 385.644 399.137L377.484 408.526C377.459 408.555 377.44 408.588 377.428 408.624C377.416 408.66 377.411 408.698 377.414 408.736C377.417 408.774 377.427 408.811 377.444 408.845C377.461 408.879 377.484 408.909 377.513 408.934L377.521 408.938Z" fill="#0C0C0C"/>
</g>
<path d="M386.419 418.594L364.769 516.814C364.719 517.034 364.669 517.264 364.609 517.484C359.747 522.572 354.479 527.257 348.859 531.493C347.729 532.334 346.599 533.164 345.439 533.964C344.722 534.044 344.001 534.084 343.279 534.084C339.42 534.083 335.63 533.067 332.288 531.138C328.946 529.209 326.17 526.435 324.239 523.094L282.979 451.7L321.079 429.691L333.989 452.031L343.449 409.121L386.419 418.594Z" fill="#FFC107"/>
<path d="M319.789 463.374C319.659 464.933 319.399 467.714 319.039 471.374C317.239 490.084 313.029 531.784 311.079 551.054C286.444 558.929 260.008 559.198 235.219 551.824H235.209C216.902 546.344 200.056 536.831 185.909 523.984C185.989 506.754 185.739 487.374 184.579 474.914C181.109 437.683 184.389 431.854 189.779 426.464C190.219 426.024 190.679 425.594 191.139 425.174C196.709 420.114 203.699 416.814 213.889 415.433C220.629 414.524 230.769 413.864 230.769 413.864C230.769 413.864 231.629 431.243 252.099 432.203C279.969 433.514 278.109 413.864 278.249 413.864C285.259 413.864 300.859 414.304 310.699 419.314C310.709 419.314 310.709 419.314 310.719 419.324C312.7 420.288 314.503 421.584 316.049 423.154C327.319 435.094 321.759 440.2 319.789 463.374Z" fill="#FFC107"/>
<path d="M276.054 378.972C272.032 381.017 267.444 381.663 263.014 380.81C262.861 380.781 262.702 380.796 262.557 380.854C262.412 380.912 262.286 381.01 262.195 381.136C262.103 381.263 262.05 381.413 262.041 381.568C262.031 381.724 262.066 381.879 262.142 382.016C263.465 384.343 266.596 388.322 271.97 386.701C275.44 385.654 276.752 382.084 277.238 379.875C277.272 379.722 277.261 379.563 277.207 379.416C277.153 379.269 277.058 379.141 276.934 379.046C276.81 378.951 276.661 378.894 276.505 378.881C276.349 378.867 276.193 378.899 276.054 378.972Z" fill="white"/>
<path d="M276.306 361.086C277.379 361.086 278.249 360.216 278.249 359.143C278.249 358.07 277.379 357.2 276.306 357.2C275.233 357.2 274.363 358.07 274.363 359.143C274.363 360.216 275.233 361.086 276.306 361.086Z" fill="#0C0C0C"/>
<path d="M257.632 364.355C258.705 364.355 259.575 363.485 259.575 362.412C259.575 361.339 258.705 360.469 257.632 360.469C256.559 360.469 255.689 361.339 255.689 362.412C255.689 363.485 256.559 364.355 257.632 364.355Z" fill="#0C0C0C"/>
<path d="M315.492 505.319C315.479 505.32 315.467 505.32 315.454 505.319C315.375 505.308 315.304 505.266 315.256 505.203C315.208 505.14 315.187 505.06 315.198 504.981L318.633 470.372C318.638 470.333 318.65 470.295 318.67 470.26C318.69 470.226 318.716 470.196 318.748 470.172C318.779 470.148 318.816 470.131 318.854 470.121C318.893 470.111 318.933 470.11 318.972 470.116C319.051 470.127 319.122 470.169 319.17 470.232C319.218 470.295 319.239 470.375 319.228 470.454L315.793 505.063C315.782 505.135 315.746 505.201 315.691 505.248C315.635 505.295 315.565 505.32 315.492 505.319Z" fill="#0C0C0C"/>
<path d="M294.7 503.652L313.475 495.267C313.887 495.084 314.333 494.988 314.784 494.986C315.236 494.985 315.682 495.077 316.096 495.257C316.51 495.437 316.882 495.701 317.188 496.032C317.494 496.364 317.728 496.755 317.875 497.182C318.122 497.979 318.064 498.839 317.713 499.595C317.362 500.352 316.743 500.951 315.975 501.277L311.949 503.077L327.205 503.234C328.905 503.222 330.991 504.292 330.879 506.196C330.884 506.931 330.639 507.647 330.185 508.225C329.731 508.804 329.094 509.212 328.379 509.382C328.383 509.398 328.386 509.414 328.386 509.43C328.384 509.442 328.382 509.455 328.379 509.467L330.995 509.449C331.479 509.446 331.958 509.551 332.396 509.756C332.834 509.961 333.222 510.261 333.529 510.635C333.837 511.008 334.058 511.446 334.175 511.915C334.292 512.385 334.304 512.875 334.208 513.349C334.041 514.093 333.623 514.758 333.024 515.231C332.426 515.704 331.683 515.958 330.92 515.949L329.807 515.957C329.792 515.989 329.772 516.019 329.747 516.044C330.5 516.213 331.169 516.645 331.633 517.262C332.098 517.878 332.328 518.64 332.282 519.411C332.207 520.253 331.817 521.035 331.191 521.602C330.564 522.169 329.747 522.48 328.902 522.471L326.137 522.49C326.176 522.517 326.209 522.554 326.231 522.596C326.253 522.638 326.265 522.685 326.266 522.733C326.264 522.79 326.245 522.844 326.213 522.891C326.843 523.228 327.344 523.764 327.64 524.414C327.936 525.065 328.01 525.794 327.85 526.491C327.668 527.218 327.247 527.863 326.653 528.321C326.059 528.779 325.329 529.023 324.579 529.014L301.25 529.18C297.986 529.203 294.79 528.251 292.071 526.446C289.352 524.641 287.234 522.065 285.988 519.048C284.913 516.447 284.896 513.529 285.938 510.915C286.981 508.3 289.002 506.196 291.572 505.048L294.7 503.652Z" fill="#E98862"/>
<g opacity="0.2">
<path d="M313.278 509.3C313.278 509.38 313.31 509.456 313.366 509.512C313.422 509.568 313.498 509.6 313.578 509.6L328.086 509.731C328.166 509.732 328.242 509.701 328.299 509.645C328.356 509.589 328.388 509.513 328.388 509.434C328.389 509.354 328.358 509.277 328.302 509.221C328.247 509.164 328.171 509.132 328.091 509.131L313.581 509C313.501 509 313.425 509.032 313.369 509.088C313.313 509.144 313.281 509.22 313.281 509.3H313.278Z" fill="#0C0C0C"/>
</g>
<g opacity="0.2">
<path d="M313.044 515.7C313.044 515.779 313.076 515.856 313.132 515.912C313.188 515.968 313.264 516 313.344 516L329.534 516.146C329.614 516.146 329.69 516.114 329.746 516.058C329.802 516.002 329.834 515.925 329.834 515.846C329.832 515.767 329.799 515.692 329.744 515.636C329.688 515.58 329.613 515.548 329.534 515.546L313.343 515.4C313.263 515.4 313.187 515.431 313.131 515.488C313.075 515.544 313.044 515.62 313.044 515.7Z" fill="#0C0C0C"/>
</g>
<g opacity="0.2">
<path d="M312.75 522.623C312.75 522.703 312.782 522.779 312.838 522.835C312.894 522.891 312.97 522.923 313.05 522.923L325.965 523.04C326.045 523.04 326.121 523.008 326.177 522.952C326.233 522.896 326.265 522.82 326.265 522.74C326.265 522.66 326.233 522.584 326.177 522.528C326.121 522.472 326.045 522.44 325.965 522.44L313.05 522.324C312.97 522.324 312.894 522.356 312.838 522.412C312.782 522.468 312.75 522.544 312.75 522.624V522.623Z" fill="#0C0C0C"/>
</g>
<path d="M300.079 537.084L235.219 551.824H235.209C216.902 546.344 200.056 536.831 185.909 523.984C184.389 522.604 182.902 521.19 181.449 519.743C178.916 517.214 176.492 514.585 174.179 511.854L183.259 438.814C184.25 432.926 187.538 427.673 192.402 424.21C197.266 420.747 203.306 419.358 209.194 420.349C215.082 421.34 220.335 424.628 223.798 429.492C227.261 434.356 228.65 440.396 227.659 446.284L221.919 514.864L294.239 498.493L300.079 537.084Z" fill="#FFC107"/>
<path d="M207.29 517.558C207.251 517.561 207.211 517.556 207.173 517.544C207.136 517.531 207.101 517.512 207.071 517.486C207.041 517.46 207.017 517.429 206.999 517.394C206.981 517.358 206.97 517.32 206.967 517.28C206.965 517.241 206.969 517.201 206.982 517.164C206.994 517.126 207.014 517.092 207.039 517.062C207.065 517.032 207.097 517.007 207.132 516.989C207.167 516.972 207.206 516.961 207.245 516.958L221.745 513.858C221.784 513.852 221.824 513.854 221.862 513.863C221.9 513.873 221.936 513.89 221.968 513.913C222 513.936 222.027 513.966 222.047 514C222.068 514.033 222.081 514.071 222.087 514.11C222.093 514.149 222.091 514.189 222.081 514.227C222.072 514.265 222.055 514.301 222.031 514.333C222.008 514.365 221.978 514.391 221.944 514.412C221.91 514.432 221.873 514.445 221.834 514.451L207.329 517.551C207.316 517.554 207.303 517.557 207.29 517.558Z" fill="#0C0C0C"/>
<path d="M300.079 537.084C300.095 537.161 300.082 537.241 300.041 537.308C300 537.375 299.935 537.423 299.859 537.444L236.849 552.294C236.449 552.183 236.059 552.074 235.669 551.953L299.419 536.944L293.739 498.944L221.849 514.453C221.802 514.461 221.755 514.457 221.71 514.444C221.665 514.43 221.623 514.406 221.589 514.374C221.559 514.338 221.537 514.297 221.523 514.252C221.509 514.207 221.504 514.161 221.509 514.114L225.539 474.924C225.546 474.885 225.561 474.848 225.582 474.815C225.604 474.782 225.631 474.753 225.664 474.731C225.696 474.708 225.733 474.693 225.772 474.685C225.81 474.676 225.85 474.676 225.889 474.683C225.967 474.695 226.037 474.738 226.084 474.802C226.131 474.866 226.151 474.946 226.139 475.024L222.169 513.814L293.869 498.274C293.908 498.263 293.949 498.261 293.989 498.268C294.028 498.275 294.066 498.291 294.099 498.314C294.133 498.333 294.164 498.358 294.188 498.389C294.212 498.42 294.229 498.455 294.239 498.493L300.079 537.084Z" fill="#0C0C0C"/>
<path d="M56.956 244.618C124.505 244.618 179.265 189.858 179.265 122.309C179.265 54.7596 124.505 0 56.956 0C-10.5934 0 -65.353 54.7596 -65.353 122.309C-65.353 189.858 -10.5934 244.618 56.956 244.618Z" fill="white"/>
<path opacity="0.09" d="M56.956 244.618C124.505 244.618 179.265 189.858 179.265 122.309C179.265 54.7596 124.505 0 56.956 0C-10.5934 0 -65.353 54.7596 -65.353 122.309C-65.353 189.858 -10.5934 244.618 56.956 244.618Z" fill="#367CFF"/>
<path d="M80.606 49.0681C80.606 49.0681 88.351 40.6741 87.752 24.6861C87.289 12.3071 77.573 22.1401 77.573 22.1401C77.573 22.1401 77.152 13.2301 70.973 15.2401C64.794 17.2501 62.894 27.0341 62.894 27.0341" fill="#0C0C0C"/>
<path d="M38.388 22.1901C38.388 22.1901 7.54298 31.2551 26.629 71.8211L29.446 71.5031L35.164 70.8591" fill="#0C0C0C"/>
<path d="M82.0999 113.9C81.9599 113.882 80.3999 139.76 50.3369 137.5C29.5249 135.941 22.104 113.86 21.627 113.86C23.871 113.383 26.6439 112.66 27.7459 112.411C30.148 111.854 32.3233 110.578 33.9827 108.754C35.642 106.93 36.7066 104.644 37.0349 102.2C37.6439 98.5321 36.6109 79.7661 36.9289 76.0551L68.8749 83.1851C68.4289 91.0241 65.3049 109.195 76.2549 112.411C78.0779 112.944 80.0409 113.434 82.0999 113.9Z" fill="#E98862"/>
<path opacity="0.52" d="M69.324 104.986C68.8241 103.373 68.5019 101.711 68.363 100.028C68.0121 96.1879 68.0822 92.3209 68.572 88.496C62.0789 87.6196 55.9619 84.9394 50.916 80.76C50.322 82.951 47.06 92.524 47.963 94.606C49.671 98.542 57.694 104.986 69.324 104.986Z" fill="#0C0C0C"/>
<path d="M64.109 96.747C51.509 97.88 35.244 92.731 31.983 75.935L29.04 60.78C25.779 43.98 31.957 28.655 47.771 25.585C63.585 22.514 78.049 33.835 81.311 50.631L82.611 57.34C83.0188 59.6513 83.268 61.9877 83.357 64.333C83.639 70.533 84.044 79.956 81.064 86.922C78.252 93.5 72.161 96.024 64.109 96.747Z" fill="#E98862"/>
<path opacity="0.5" d="M66.014 80.1421C68.3217 80.0987 70.5869 79.5136 72.627 78.4341C72.6714 78.414 72.7112 78.3852 72.7441 78.3493C72.777 78.3134 72.8023 78.2712 72.8185 78.2253C72.8347 78.1794 72.8414 78.1307 72.8383 78.0821C72.8352 78.0335 72.8223 77.9861 72.8004 77.9426C72.7784 77.8991 72.7479 77.8606 72.7107 77.8292C72.6735 77.7978 72.6303 77.7743 72.5837 77.7601C72.5372 77.7458 72.4882 77.7411 72.4398 77.7463C72.3914 77.7515 72.3445 77.7664 72.302 77.7901C67.902 80.0111 63.773 79.9901 60.366 77.7361C60.2973 77.6885 60.2262 77.6444 60.153 77.6041C60.1105 77.5832 60.0643 77.5709 60.0171 77.5679C59.9699 77.5648 59.9225 77.5711 59.8777 77.5864C59.8329 77.6017 59.7915 77.6256 59.756 77.6569C59.7204 77.6882 59.6914 77.7261 59.6705 77.7686C59.6496 77.8111 59.6373 77.8573 59.6343 77.9045C59.6313 77.9517 59.6376 77.9991 59.6528 78.0439C59.6681 78.0887 59.692 78.1301 59.7233 78.1656C59.7546 78.2012 59.7925 78.2302 59.835 78.2511C59.862 78.2661 59.906 78.2961 59.968 78.3371C61.7587 79.5272 63.8639 80.1557 66.014 80.1421Z" fill="#0C0C0C"/>
<path opacity="0.52" d="M66.1249 83.5591C66.5423 83.5578 66.9588 83.521 67.3699 83.4491C67.4166 83.4411 67.4612 83.4241 67.5012 83.3989C67.5412 83.3737 67.5759 83.3409 67.6032 83.3023C67.6306 83.2637 67.6501 83.2201 67.6606 83.174C67.6711 83.1279 67.6724 83.0802 67.6644 83.0336C67.6565 82.9869 67.6394 82.9423 67.6143 82.9023C67.5891 82.8623 67.5563 82.8276 67.5177 82.8003C67.4791 82.7729 67.4355 82.7534 67.3894 82.7429C67.3433 82.7324 67.2956 82.7311 67.2489 82.7391C66.6049 82.9004 65.9339 82.9227 65.2805 82.8044C64.6272 82.6861 64.0065 82.43 63.4599 82.0531C63.388 81.9923 63.2951 81.9621 63.2012 81.969C63.1073 81.9759 63.0198 82.0193 62.9575 82.09C62.8952 82.1606 62.8631 82.2529 62.8681 82.3469C62.873 82.441 62.9146 82.5293 62.984 82.5931C63.8877 83.2687 64.9977 83.6101 66.1249 83.5591Z" fill="#0C0C0C"/>
<path d="M77.526 61.572C78.6217 61.572 79.51 60.6837 79.51 59.588C79.51 58.4923 78.6217 57.604 77.526 57.604C76.4303 57.604 75.542 58.4923 75.542 59.588C75.542 60.6837 76.4303 61.572 77.526 61.572Z" fill="#0C0C0C"/>
<path d="M58.234 63.827C59.3297 63.827 60.218 62.9387 60.218 61.843C60.218 60.7473 59.3297 59.859 58.234 59.859C57.1383 59.859 56.25 60.7473 56.25 61.843C56.25 62.9387 57.1383 63.827 58.234 63.827Z" fill="#0C0C0C"/>
<path d="M33.959 80.861C29.153 81.794 24.259 77.409 23.325 72.603C22.391 67.797 25.774 64.391 30.579 63.458L33.679 66.197L38.089 80.059L33.959 80.861Z" fill="#E98862"/>
<path d="M37.3499 72.2531C37.3499 72.2531 34.6649 48.1381 41.6219 45.3601C46.2549 43.5091 59.1559 48.2211 69.5889 44.2051C74.1529 42.4471 78.853 42.8051 79.713 44.9561C80.054 45.8071 80.6999 32.5681 71.5509 24.2651C64.2669 17.6551 44.5869 18.9781 36.2669 23.0841C13.2299 34.4531 29.7759 64.6841 29.7759 64.6841L32.3459 72.7001L37.3499 72.2531Z" fill="#0C0C0C"/>
<g opacity="0.52">
<path d="M68.972 74.1701H69.003C70.553 73.8701 73.119 73.2031 72.903 72.0441C72.718 71.0831 68.103 61.2191 67.579 60.0981C67.5566 60.0503 67.525 60.0075 67.486 59.9719C67.4471 59.9364 67.4015 59.9089 67.3519 59.891C67.3023 59.873 67.2497 59.8651 67.197 59.8675C67.1444 59.8699 67.0927 59.8827 67.045 59.9051C66.9972 59.9275 66.9544 59.959 66.9188 59.998C66.8833 60.0369 66.8558 60.0825 66.8379 60.1321C66.8199 60.1817 66.812 60.2343 66.8144 60.287C66.8168 60.3396 66.8296 60.3913 66.852 60.4391C68.898 64.8071 71.988 71.5391 72.114 72.1941C72.014 72.4941 70.462 73.0731 68.858 73.3801C68.7519 73.3958 68.6564 73.4531 68.5926 73.5393C68.5287 73.6255 68.5017 73.7335 68.5175 73.8396C68.5332 73.9457 68.5905 74.0411 68.6767 74.105C68.7629 74.1688 68.8709 74.1958 68.977 74.1801L68.972 74.1701Z" fill="#0C0C0C"/>
</g>
<path d="M70.0679 50.0001C71.6186 49.2567 73.3412 48.9457 75.0539 49.1001C75.894 49.1708 76.7189 49.367 77.5009 49.6821C78.2731 49.9891 79.0036 50.3923 79.6749 50.8821C79.7995 50.9683 79.8858 51.0994 79.9157 51.248C79.9455 51.3965 79.9166 51.5508 79.835 51.6784C79.7534 51.8061 79.6254 51.8971 79.478 51.9322C79.3307 51.9674 79.1754 51.9441 79.0449 51.8671L78.9999 51.8511C78.3912 51.4624 77.736 51.1516 77.0499 50.9261C76.3751 50.7008 75.6702 50.5791 74.9589 50.5651C73.5568 50.526 72.1693 50.8582 70.9369 51.5281L70.8859 51.5571C70.7856 51.6143 70.6751 51.6513 70.5605 51.6658C70.446 51.6804 70.3297 51.6722 70.2183 51.6418C70.1069 51.6114 70.0026 51.5593 69.9114 51.4886C69.8201 51.4179 69.7437 51.3299 69.6864 51.2296C69.6291 51.1293 69.5922 51.0188 69.5777 50.9042C69.5631 50.7897 69.5713 50.6734 69.6017 50.562C69.6322 50.4506 69.6842 50.3463 69.7549 50.2551C69.8256 50.1638 69.9136 50.0873 70.0139 50.0301L70.0679 50.0001Z" fill="#0C0C0C"/>
<path d="M58.6929 53.0741C57.3424 52.6962 55.916 52.6813 54.5579 53.0311C53.8677 53.2028 53.2075 53.4783 52.5999 53.8481C51.9798 54.2204 51.4086 54.6689 50.8999 55.1831L50.8679 55.2151C50.7583 55.3212 50.6116 55.3803 50.4591 55.3798C50.3066 55.3793 50.1603 55.3192 50.0514 55.2124C49.9425 55.1056 49.8796 54.9605 49.8761 54.808C49.8727 54.6555 49.9289 54.5077 50.0329 54.3961C50.5775 53.7679 51.1995 53.2111 51.8839 52.7391C52.5766 52.2577 53.3373 51.8825 54.1409 51.6261C54.9442 51.3613 55.78 51.2078 56.6249 51.1701C57.4902 51.1225 58.3578 51.1979 59.2019 51.3941C59.4289 51.4471 59.6256 51.5882 59.7486 51.7862C59.8716 51.9843 59.911 52.2231 59.8579 52.4501C59.8049 52.6771 59.6638 52.8738 59.4658 52.9968C59.2677 53.1198 59.0289 53.1591 58.8019 53.1061L58.7499 53.0921L58.6929 53.0741Z" fill="#0C0C0C"/>
<path d="M64.7775 34.0234C68.2079 32.6331 69.3299 27.4128 67.2836 22.3634C65.2373 17.314 60.7975 14.3477 57.3671 15.7379C53.9367 17.1281 52.8146 22.3485 54.861 27.3979C56.9073 32.4472 61.3471 35.4136 64.7775 34.0234Z" fill="#0C0C0C"/>
<path d="M123.65 140.641C123.77 148.931 120.53 158.251 119.45 170.871C119.23 173.431 118.71 179.071 118.02 186.421C116.89 198.591 115.29 215.421 113.89 230.591C93.8688 241.1 71.3293 245.86 48.7687 244.346C26.208 242.832 4.50701 235.101 -13.9301 222.011C-14.3701 221.681 -14.8101 221.361 -15.2501 221.051C-16.4201 203.901 -17.8001 185.901 -19.0601 174.531C-21.4301 153.301 -24.6601 142.731 -22.8501 135.591C-22.7051 134.983 -22.5111 134.388 -22.2701 133.811C-17.0601 121.171 -0.470091 115.531 10.7699 114.011C17.6299 113.081 27.9499 112.411 27.9499 112.411C27.9499 112.411 28.8199 130.091 49.6499 131.071C78.0099 132.411 76.1199 112.411 76.2599 112.411C80.8499 112.411 105.86 115.751 112.11 119.831C113.158 120.511 114.16 121.26 115.11 122.071C117.825 124.336 120.001 127.178 121.479 130.391C122.956 133.604 123.698 137.105 123.65 140.641Z" fill="#221EEA"/>
<path d="M19.2299 153.461L-13.9301 222.011C-14.3701 221.681 -14.8101 221.361 -15.2501 221.051C-28.1047 211.625 -39.0065 199.793 -47.3501 186.211L-22.8501 135.591L-21.8801 133.581L19.2299 153.461Z" fill="#221EEA"/>
<path d="M16.0299 161.351L-14.1301 221.861C-14.3301 221.711 -14.5201 221.571 -14.7201 221.441L15.3999 161.041C15.4432 160.957 15.5176 160.893 15.6073 160.863C15.697 160.833 15.7949 160.84 15.8799 160.881C15.9621 160.924 16.0241 160.997 16.0522 161.085C16.0803 161.173 16.0723 161.269 16.0299 161.351Z" fill="white"/>
<path d="M168.95 171.551C162.939 185.175 154.498 197.59 144.04 208.191L118.02 186.421L84.97 158.761L115.11 122.071L115.2 121.961L168.95 171.551Z" fill="#221EEA"/>
<path d="M118.421 186.688C118.506 186.684 118.586 186.649 118.648 186.59C118.709 186.531 118.747 186.452 118.754 186.367L120.471 166.237C120.479 166.144 120.45 166.052 120.39 165.98C120.33 165.909 120.244 165.864 120.151 165.856C120.058 165.849 119.967 165.879 119.896 165.939C119.825 165.999 119.78 166.084 119.771 166.176L118.054 186.307C118.046 186.4 118.075 186.492 118.135 186.563C118.195 186.634 118.281 186.679 118.374 186.687L118.421 186.688Z" fill="white"/>
<path d="M632.877 774.25C697.305 774.25 749.534 722.021 749.534 657.593C749.534 593.165 697.305 540.936 632.877 540.936C568.449 540.936 516.22 593.165 516.22 657.593C516.22 722.021 568.449 774.25 632.877 774.25Z" fill="white"/>
<path opacity="0.09" d="M516.219 657.59C516.219 680.662 523.06 703.216 535.878 722.4C548.697 741.584 566.915 756.536 588.231 765.366C609.547 774.195 633.003 776.506 655.632 772.005C678.261 767.503 699.047 756.393 715.361 740.079C731.676 723.764 742.786 702.978 747.287 680.349C751.789 657.721 749.479 634.265 740.649 612.949C731.82 591.633 716.868 573.414 697.684 560.596C678.5 547.778 655.946 540.936 632.874 540.936C617.539 540.879 602.344 543.858 588.166 549.701C573.987 555.543 561.105 564.134 550.261 574.977C539.417 585.821 530.827 598.703 524.984 612.882C519.142 627.06 516.163 642.255 516.219 657.59Z" fill="#367CFF"/>
<path d="M685.811 593.218C683.948 614.818 685.675 622.142 694.644 634.518C702.209 644.952 659.166 636.083 640.122 632.691L656.927 583.573C656.927 583.573 686.465 585.633 685.811 593.218Z" fill="#0A0A0A"/>
<path d="M620.106 584.231C614.487 605.17 615.118 611.648 604.122 622.644C595.009 631.758 630.527 633.611 649.585 636.922L650.549 585.022C650.549 585.022 622.08 576.878 620.106 584.231Z" fill="#0A0A0A"/>
<path d="M622 645.133C622.125 645.116 623.521 668.273 650.422 666.254C669.045 664.859 675.685 645.1 676.112 645.1C673.984 644.746 671.885 644.237 669.831 643.577C666.899 642.001 663.27 640.361 662.325 634.667C661.78 631.384 662.704 614.592 662.42 611.267L633.833 617.648C634.233 624.662 637.033 640.922 627.233 643.799C625.6 644.279 623.843 644.717 622 645.133Z" fill="#FBBEA6"/>
<path opacity="0.5" d="M633.432 637.158C633.88 635.715 634.168 634.227 634.292 632.721C634.607 629.285 634.544 625.824 634.106 622.402C639.916 621.618 645.39 619.219 649.906 615.48C650.437 617.441 653.356 626.006 652.548 627.869C651.019 631.391 643.84 637.158 633.432 637.158Z" fill="#0C0C0C"/>
<path d="M637.129 629.944C648.4 631.034 662.982 626.526 666.003 611.517L668.729 597.974C671.75 582.965 666.315 569.211 652.184 566.367C638.052 563.523 625.04 573.567 622.019 588.573L620.813 594.573C619.654 600.328 617.02 628 637.129 629.944Z" fill="#FBBEA6"/>
<path d="M682.369 602.249L669.656 600.856C644.78 596.282 638.688 576.209 638.688 576.209C638.688 576.209 628.253 590.14 619.393 586.941C619.393 586.941 622.249 553.35 661.581 559.253C677.035 561.572 685.81 574.383 685.81 591.567C685.81 604.2 682.369 602.249 682.369 602.249Z" fill="#0A0A0A"/>
<path opacity="0.1" d="M647.939 608.208C648.101 606.847 646.73 605.565 644.875 605.343C643.02 605.122 641.385 606.046 641.223 607.406C641.06 608.767 642.432 610.049 644.287 610.271C646.142 610.492 647.777 609.568 647.939 608.208Z" fill="#0C0C0C"/>
<path opacity="0.1" d="M624.7 604.837C624.534 606.195 622.9 607.118 621.044 606.899C620.723 606.86 620.408 606.788 620.102 606.685C620.016 605.065 620.011 603.507 620.058 602.064C620.573 601.935 621.107 601.904 621.634 601.972C623.484 602.191 624.856 603.473 624.7 604.837Z" fill="#0C0C0C"/>
<path opacity="0.5" d="M632.891 609.036H632.863C632.291 608.917 631.726 608.766 631.17 608.584C630.34 608.306 629.254 607.851 629.405 607.1C629.577 606.245 633.777 597.489 634.255 596.494C634.275 596.449 634.303 596.409 634.339 596.376C634.375 596.343 634.416 596.317 634.462 596.3C634.508 596.284 634.556 596.276 634.605 596.278C634.653 596.281 634.701 596.293 634.745 596.314C634.789 596.335 634.828 596.365 634.86 596.401C634.893 596.438 634.917 596.48 634.933 596.526C634.948 596.572 634.954 596.621 634.95 596.67C634.947 596.718 634.933 596.766 634.911 596.809C633.119 600.537 630.234 606.668 630.118 607.244C630.98 607.829 631.971 608.199 633.006 608.323C633.098 608.342 633.178 608.396 633.231 608.473C633.284 608.55 633.305 608.644 633.291 608.737C633.276 608.829 633.226 608.912 633.152 608.969C633.077 609.025 632.984 609.051 632.891 609.041V609.036Z" fill="#0C0C0C"/>
<path d="M664.205 615.913C668.5 616.777 672.905 612.884 673.77 608.589C674.635 604.294 671.63 601.225 667.335 600.361L664.543 602.793L660.513 615.17L664.205 615.913Z" fill="#FBBEA6"/>
<path d="M631.21 589.507C630.68 589.131 630.102 588.829 629.491 588.607C628.873 588.375 628.225 588.229 627.567 588.174C626.909 588.111 626.244 588.148 625.597 588.283C624.944 588.416 624.31 588.63 623.711 588.922L623.692 588.93C623.627 588.953 623.556 588.951 623.492 588.925C623.428 588.899 623.376 588.85 623.347 588.787C623.317 588.725 623.312 588.654 623.332 588.588C623.352 588.522 623.396 588.465 623.455 588.43C624.09 588.095 624.765 587.84 625.464 587.673C626.168 587.502 626.894 587.438 627.617 587.483C629.082 587.564 630.497 588.037 631.717 588.852C631.805 588.915 631.865 589.011 631.884 589.118C631.903 589.226 631.879 589.336 631.818 589.426C631.757 589.516 631.663 589.579 631.556 589.6C631.45 589.622 631.339 589.602 631.247 589.543L631.237 589.536L631.21 589.507Z" fill="#0C0C0C"/>
<path d="M642.783 591.107C644.221 590.82 645.71 590.926 647.094 591.412C647.779 591.647 648.425 591.984 649.01 592.412C649.592 592.833 650.118 593.326 650.577 593.879C650.627 593.933 650.653 594.005 650.649 594.079C650.646 594.153 650.614 594.222 650.559 594.272C650.505 594.321 650.432 594.348 650.359 594.344C650.285 594.341 650.216 594.308 650.166 594.254L650.151 594.239C649.708 593.74 649.204 593.299 648.651 592.927C648.104 592.554 647.505 592.266 646.872 592.072C645.616 591.678 644.279 591.624 642.995 591.914L642.964 591.922C642.856 591.948 642.743 591.931 642.648 591.873C642.553 591.816 642.485 591.723 642.458 591.616C642.431 591.508 642.449 591.394 642.506 591.299C642.564 591.204 642.656 591.136 642.764 591.11L642.783 591.107Z" fill="#0C0C0C"/>
<path d="M578.674 760.91C574.088 758.91 570.657 756.77 562.826 750.87C557.175 746.628 551.924 741.88 547.137 736.683L587.347 660.169L589.095 656.845L625.363 675.912L593.903 735.782L593.758 736.046L594.031 737.111" fill="#FF8A00"/>
<path d="M712.4 699.359C711.344 710.705 711.116 728.351 711.189 744.04C696.027 757.792 677.512 767.311 657.505 771.638C637.497 775.965 616.703 774.948 597.214 768.689C594.829 745.029 591.282 710.26 589.283 688.851C587.257 666.675 581.299 659.351 597.56 648.731C606.52 644.17 620.724 643.769 627.108 643.769C624.941 664.789 669.24 667.376 670.341 643.769C703.474 646.867 718.813 647.637 712.4 699.359Z" fill="#FF8A00"/>
<path d="M629.112 611.994C632.774 613.856 636.952 614.445 640.986 613.667C641.126 613.64 641.27 613.654 641.403 613.707C641.535 613.76 641.649 613.849 641.733 613.964C641.816 614.08 641.865 614.217 641.873 614.359C641.882 614.501 641.849 614.642 641.78 614.767C640.58 616.886 637.724 620.509 632.831 619.033C629.671 618.079 628.477 614.833 628.031 612.818C628 612.678 628.009 612.533 628.058 612.398C628.107 612.264 628.194 612.146 628.307 612.059C628.421 611.973 628.558 611.92 628.7 611.909C628.843 611.897 628.986 611.927 629.112 611.994Z" fill="white"/>
<path d="M628.883 595.708C629.86 595.708 630.652 594.916 630.652 593.939C630.652 592.962 629.86 592.17 628.883 592.17C627.906 592.17 627.114 592.962 627.114 593.939C627.114 594.916 627.906 595.708 628.883 595.708Z" fill="#0C0C0C"/>
<path d="M645.887 598.684C646.864 598.684 647.656 597.892 647.656 596.915C647.656 595.938 646.864 595.146 645.887 595.146C644.91 595.146 644.118 595.938 644.118 596.915C644.118 597.892 644.91 598.684 645.887 598.684Z" fill="#0C0C0C"/>
<path d="M593.2 727.041H593.234C593.306 727.031 593.371 726.992 593.414 726.935C593.458 726.877 593.477 726.804 593.467 726.732L590.339 695.219C590.335 695.183 590.324 695.148 590.306 695.117C590.288 695.086 590.264 695.058 590.235 695.036C590.206 695.015 590.173 694.999 590.138 694.99C590.103 694.982 590.067 694.98 590.031 694.986C589.995 694.991 589.961 695.002 589.93 695.021C589.899 695.039 589.872 695.063 589.85 695.091C589.829 695.12 589.813 695.153 589.804 695.187C589.795 695.222 589.793 695.258 589.798 695.294L592.925 726.808C592.935 726.873 592.968 726.933 593.019 726.976C593.069 727.019 593.134 727.042 593.2 727.041Z" fill="#0C0C0C"/>
<path d="M589.111 703.041H557.182V742.2H589.111V703.041Z" fill="white"/>
<path d="M576.036 722.621C576.037 720.035 576.804 717.507 578.241 715.357C579.678 713.207 581.721 711.531 584.11 710.542C586.5 709.553 589.129 709.295 591.665 709.8C594.202 710.304 596.531 711.55 598.36 713.379C600.188 715.208 601.433 717.538 601.937 720.075C602.441 722.611 602.182 725.24 601.192 727.629C600.202 730.018 598.526 732.06 596.376 733.497C594.225 734.933 591.697 735.7 589.111 735.7C585.644 735.696 582.32 734.317 579.869 731.864C577.417 729.412 576.039 726.088 576.036 722.621ZM581.391 722.621C581.391 724.148 581.844 725.64 582.692 726.91C583.54 728.179 584.746 729.169 586.157 729.753C587.567 730.338 589.12 730.49 590.617 730.193C592.115 729.895 593.49 729.159 594.57 728.08C595.65 727 596.385 725.624 596.683 724.127C596.981 722.629 596.828 721.077 596.243 719.667C595.659 718.256 594.67 717.05 593.4 716.202C592.13 715.354 590.638 714.901 589.111 714.901C587.064 714.903 585.102 715.717 583.655 717.165C582.208 718.612 581.393 720.574 581.391 722.621Z" fill="white"/>
<path d="M588.857 727.467C588.964 726.804 589.301 726.201 589.809 725.762C590.317 725.323 590.963 725.077 591.634 725.067C591.616 725.04 591.602 725.01 591.595 724.978L590.644 724.772C589.981 724.641 589.384 724.285 588.954 723.764C588.523 723.243 588.286 722.589 588.282 721.914C588.288 721.49 588.388 721.073 588.575 720.693C588.762 720.312 589.031 719.978 589.363 719.715C589.694 719.451 590.081 719.264 590.493 719.167C590.906 719.071 591.335 719.067 591.749 719.157L593.992 719.641C593.992 719.633 593.992 719.625 593.992 719.616C593.997 719.598 594.004 719.581 594.012 719.564C593.427 719.289 592.953 718.825 592.667 718.246C592.38 717.667 592.298 717.008 592.434 716.377C592.679 714.718 594.67 714.172 596.128 714.487L601.938 715.527L599.977 714.227C599.358 713.798 598.925 713.151 598.766 712.416C598.606 711.68 598.731 710.912 599.116 710.265C599.326 709.938 599.601 709.657 599.923 709.44C600.246 709.223 600.609 709.074 600.991 709.002C601.373 708.93 601.765 708.936 602.145 709.021C602.524 709.105 602.882 709.266 603.197 709.494L626.616 736.294L621.416 733.935C619.802 736.309 617.516 738.146 614.851 739.212C612.186 740.278 609.264 740.523 606.458 739.917L593.758 737.149C593.095 737.018 592.498 736.662 592.067 736.141C591.636 735.62 591.399 734.967 591.395 734.291C591.404 733.681 591.608 733.091 591.977 732.605C592.345 732.119 592.859 731.764 593.444 731.591C593.426 731.548 593.419 731.501 593.425 731.455C593.432 731.411 593.45 731.37 593.477 731.335C593.503 731.3 593.539 731.273 593.579 731.255L591.235 730.749C590.497 730.605 589.84 730.186 589.399 729.577C588.957 728.967 588.764 728.213 588.857 727.467Z" fill="#FBBEA6"/>
<path opacity="0.2" d="M598.234 720.585C598.295 720.572 598.35 720.538 598.388 720.489C598.427 720.44 598.448 720.379 598.447 720.317C598.445 720.254 598.423 720.194 598.382 720.147C598.341 720.1 598.286 720.068 598.224 720.057L594.301 719.393C594.266 719.386 594.229 719.385 594.193 719.392C594.158 719.399 594.124 719.413 594.094 719.434C594.064 719.454 594.039 719.48 594.019 719.511C594 719.541 593.986 719.575 593.98 719.611C593.974 719.647 593.976 719.683 593.984 719.719C593.992 719.754 594.008 719.787 594.029 719.816C594.051 719.845 594.078 719.87 594.109 719.888C594.14 719.906 594.175 719.918 594.211 719.923L598.134 720.587C598.167 720.593 598.201 720.592 598.234 720.585Z" fill="#0C0C0C"/>
<path opacity="0.2" d="M597.287 726.134C597.348 726.121 597.403 726.087 597.442 726.039C597.481 725.99 597.501 725.929 597.5 725.867C597.5 725.804 597.477 725.744 597.437 725.697C597.396 725.649 597.34 725.617 597.279 725.606L591.905 724.653C591.869 724.645 591.833 724.644 591.797 724.65C591.761 724.657 591.727 724.67 591.696 724.691C591.666 724.711 591.64 724.737 591.62 724.767C591.6 724.798 591.586 724.832 591.58 724.868C591.573 724.904 591.574 724.941 591.582 724.976C591.591 725.012 591.606 725.045 591.628 725.075C591.65 725.104 591.677 725.129 591.708 725.147C591.74 725.166 591.775 725.177 591.811 725.182L597.185 726.136C597.219 726.142 597.253 726.141 597.287 726.134Z" fill="#0C0C0C"/>
<path opacity="0.2" d="M596.3 732.15C596.362 732.137 596.417 732.103 596.456 732.053C596.494 732.004 596.515 731.942 596.513 731.879C596.511 731.816 596.487 731.756 596.446 731.709C596.404 731.662 596.347 731.63 596.285 731.621L593.736 731.231C593.668 731.224 593.599 731.244 593.545 731.287C593.491 731.329 593.455 731.39 593.445 731.458C593.434 731.526 593.45 731.595 593.489 731.652C593.529 731.708 593.588 731.748 593.655 731.762L596.204 732.153C596.236 732.158 596.268 732.157 596.3 732.15Z" fill="#0C0C0C"/>
<path d="M728.667 724.154C714.299 744.815 693.652 760.293 669.79 768.289L669.781 768.28C664.481 767.243 613.922 747.28 607.234 745.969L614.552 711.83C633.342 715.569 667.612 729.983 686.509 733.736L673.177 673.289C672.694 670.619 672.746 667.879 673.329 665.23C673.913 662.58 675.017 660.072 676.577 657.852C678.137 655.632 680.123 653.744 682.418 652.297C684.714 650.85 687.273 649.873 689.949 649.423C692.625 648.973 695.364 649.059 698.006 649.675C700.648 650.292 703.142 651.426 705.343 653.014C707.543 654.601 709.407 656.61 710.825 658.923C712.244 661.236 713.189 663.808 713.606 666.489L728.667 724.154Z" fill="#FF8A00"/>
<path d="M700.832 738.186C700.9 738.185 700.965 738.158 701.015 738.111C701.065 738.064 701.095 738 701.1 737.932C701.105 737.864 701.085 737.797 701.043 737.743C701.001 737.69 700.94 737.653 700.873 737.642L686.665 732.822C686.629 732.816 686.593 732.817 686.558 732.826C686.523 732.834 686.49 732.85 686.461 732.871C686.432 732.893 686.408 732.92 686.389 732.951C686.371 732.982 686.359 733.016 686.354 733.052C686.343 733.123 686.362 733.196 686.405 733.255C686.448 733.313 686.512 733.351 686.584 733.362L700.792 738.182C700.805 738.185 700.819 738.186 700.832 738.186Z" fill="#0C0C0C"/>
<path d="M686.883 733.053C686.891 733.138 686.865 733.224 686.81 733.29C686.779 733.32 686.741 733.342 686.7 733.354C686.659 733.367 686.615 733.37 686.573 733.363L615.007 712.24L607.835 745.84L669.462 768.388C669.271 768.452 669.07 768.515 668.879 768.579C668.742 768.625 668.606 768.67 668.46 768.707L607.434 746.3C607.365 746.281 607.306 746.237 607.269 746.176C607.231 746.115 607.219 746.042 607.234 745.972L614.552 711.833C614.561 711.798 614.577 711.766 614.598 711.738C614.62 711.709 614.648 711.686 614.679 711.669C614.709 711.648 614.744 711.634 614.78 711.627C614.816 711.621 614.853 711.623 614.889 711.633L686.282 732.783L678.2 699.459C678.19 699.388 678.209 699.316 678.251 699.258C678.294 699.2 678.357 699.161 678.428 699.15C678.463 699.143 678.5 699.143 678.535 699.15C678.57 699.158 678.604 699.172 678.633 699.192C678.663 699.212 678.688 699.238 678.708 699.268C678.727 699.299 678.741 699.332 678.747 699.368L686.883 733.053Z" fill="#0C0C0C"/>
</svg>
