<svg width="378" height="269" viewBox="0 0 378 269" fill="none" xmlns="http://www.w3.org/2000/svg">
<path opacity="0.2" d="M113.045 34.8722L112.776 34.8027L27.4751 217.871L328.18 241.667L328.519 241.694L339.537 93.0834L339.559 92.7913L113.045 34.8722ZM199.428 152.602L28.6586 216.944L113.029 35.8735L199.428 152.602ZM199.929 153.153L326.952 240.871L29.571 217.34L199.929 153.153ZM200.086 152.342L113.815 35.7839L338.125 93.139L200.086 152.342ZM327.912 240.698L200.686 152.838L338.818 93.5952L327.912 240.698Z" fill="#367CFF"/>
<path d="M377.968 96.1797C377.697 103.227 375.764 110.103 372.337 116.218C368.909 122.334 364.088 127.508 358.285 131.298C352.483 135.088 345.871 137.382 339.016 137.983C332.161 138.585 325.265 137.476 318.919 134.751C315.942 133.472 313.119 131.847 310.506 129.906C305.51 126.209 301.352 121.449 298.316 115.953V115.948C295.079 110.069 293.216 103.501 292.873 96.7592C292.531 90.0177 293.717 83.2866 296.341 77.0946C298.964 70.9027 302.952 65.4186 307.992 61.0732C313.031 56.7279 318.985 53.6397 325.386 52.0512C331.786 50.4627 338.459 50.4172 344.879 51.9183C351.299 53.4195 357.293 56.4263 362.388 60.7026C367.484 64.9788 371.543 70.4081 374.246 76.5637C376.949 82.7194 378.223 89.4338 377.968 96.1793L377.968 96.1797Z" fill="white"/>
<path opacity="0.09" d="M377.968 96.1797C377.697 103.227 375.764 110.103 372.337 116.218C368.909 122.334 364.088 127.508 358.285 131.298C352.483 135.088 345.871 137.382 339.016 137.983C332.161 138.585 325.265 137.476 318.919 134.751C315.942 133.472 313.119 131.847 310.506 129.906C305.51 126.209 301.352 121.449 298.316 115.953V115.948C295.079 110.069 293.216 103.501 292.873 96.7592C292.531 90.0177 293.717 83.2866 296.341 77.0946C298.964 70.9027 302.952 65.4186 307.992 61.0732C313.031 56.7279 318.985 53.6397 325.386 52.0512C331.786 50.4627 338.459 50.4172 344.879 51.9183C351.299 53.4195 357.293 56.4263 362.388 60.7026C367.484 64.9788 371.543 70.4081 374.246 76.5637C376.949 82.7194 378.223 89.4338 377.968 96.1793L377.968 96.1797Z" fill="#367CFF"/>
<path d="M345.479 61.2358C345.479 61.2358 355.662 61.3637 352.151 75.7488L351.195 75.7967L349.254 75.8937" fill="#0C0C0C"/>
<path d="M334.11 90.8406C334.157 90.8361 334.345 99.8086 344.519 99.4317C351.562 99.1718 354.355 91.633 354.517 91.6393C353.766 91.4444 352.5 91.1529 352.17 90.9563C351.088 90.3035 349.743 89.6152 349.47 87.3993C349.313 86.1222 349.907 79.6448 349.848 78.3569L338.974 80.3946C339.023 83.1121 339.839 89.4394 336.102 90.4049C335.48 90.5647 334.811 90.7075 334.11 90.8406Z" fill="#E98862"/>
<path opacity="0.52" d="M338.538 87.9304C338.728 87.3792 338.858 86.8084 338.927 86.228C339.096 84.9043 339.123 83.5656 339.007 82.2358C341.21 82.0198 343.309 81.1748 345.067 79.7969C345.238 80.5612 346.214 83.918 345.88 84.6261C345.254 85.965 342.462 88.0868 338.538 87.9304Z" fill="#0C0C0C"/>
<path d="M341.006 86.3446C345.269 86.0319 350.411 83.3717 350.589 77.4505L350.751 72.1089C350.929 66.1888 348.039 61.2932 342.603 61.1209C337.166 60.9472 332.956 65.6186 332.778 71.5388L332.707 73.9037C332.696 74.7164 332.739 75.5289 332.836 76.3356C333.077 78.4688 333.452 81.7124 334.823 83.9272C336.116 86.018 338.283 86.5436 341.006 86.3446Z" fill="#E98862"/>
<path d="M350.196 79.2438C351.849 79.296 353.243 77.5262 353.294 75.8325C353.346 74.1388 352.034 73.1618 350.382 73.1094L349.496 74.2173L348.776 79.1987L350.196 79.2438Z" fill="#E98862"/>
<path d="M333.057 78.1231C333.355 78.4859 333.738 78.7665 334.169 78.9392C334.6 79.1119 335.067 79.1712 335.526 79.1119C336.509 78.9851 337.161 79.3985 337.981 79.3155C338.67 79.246 338.789 78.9197 339.965 78.8485C344.502 78.573 347.906 78.2798 348.127 72.4434L351.015 69.8145C351.015 69.8145 352.305 85.9877 343.771 88.1376C338.528 89.4578 333.61 88.9752 332.977 83.9268C332.463 79.8248 333.057 78.1231 333.057 78.1231Z" fill="#0C0C0C"/>
<path d="M335.206 74.7458C335.576 74.7458 335.876 74.4383 335.876 74.0589C335.876 73.6796 335.576 73.3721 335.206 73.3721C334.836 73.3721 334.536 73.6796 334.536 74.0589C334.536 74.4383 334.836 74.7458 335.206 74.7458Z" fill="#0C0C0C"/>
<path d="M341.192 74.6174C341.562 74.6174 341.862 74.3098 341.862 73.9305C341.862 73.5512 341.562 73.2437 341.192 73.2437C340.821 73.2437 340.521 73.5512 340.521 73.9305C340.521 74.3098 340.821 74.6174 341.192 74.6174Z" fill="#0C0C0C"/>
<path d="M348.601 76.4913C348.601 76.4913 348.192 68.1024 345.723 67.5385C344.078 67.163 340.033 69.4886 336.338 68.6944C334.721 68.347 333.174 68.7291 333.003 69.5122C332.936 69.8221 331.657 67.0737 334.257 63.7294C336.328 61.0667 343.061 60.3177 346.056 61.2592C354.35 63.8669 350.717 73.4861 350.717 73.4861L350.294 76.3676L348.601 76.4913Z" fill="#0C0C0C"/>
<path d="M352.37 69.7263C354.811 69.7263 356.79 67.6976 356.79 65.1952C356.79 62.6927 354.811 60.6641 352.37 60.6641C349.929 60.6641 347.95 62.6927 347.95 65.1952C347.95 67.6976 349.929 69.7263 352.37 69.7263Z" fill="#0C0C0C"/>
<g opacity="0.52">
<path d="M338.062 79.0459H338.052C337.519 79.0303 336.628 78.9434 336.638 78.5352C336.648 78.1968 337.652 74.5704 337.767 74.1577C337.777 74.1222 337.8 74.0922 337.831 74.0742C337.863 74.0563 337.9 74.0519 337.934 74.0619C337.969 74.072 337.998 74.0958 338.016 74.128C338.033 74.1602 338.038 74.1983 338.028 74.2337C337.582 75.8399 336.916 78.3128 336.909 78.5418C336.959 78.6398 337.508 78.7503 338.059 78.7666C338.095 78.7662 338.13 78.7804 338.155 78.8062C338.181 78.832 338.196 78.8671 338.196 78.904C338.196 78.9408 338.183 78.9764 338.157 79.0027C338.132 79.0291 338.098 79.0441 338.062 79.0445V79.0459Z" fill="#0C0C0C"/>
</g>
<path d="M336.441 71.7241C335.891 71.5571 335.308 71.5451 334.751 71.6894C334.478 71.7583 334.215 71.8691 333.974 72.018C333.735 72.164 333.514 72.3404 333.318 72.543C333.284 72.5742 333.264 72.618 333.261 72.6648C333.258 72.7115 333.274 72.7574 333.305 72.7923C333.335 72.8271 333.378 72.8482 333.423 72.8507C333.469 72.8533 333.514 72.8372 333.548 72.806L333.558 72.797C333.741 72.6278 333.944 72.483 334.162 72.3658C334.377 72.2492 334.608 72.1665 334.847 72.1205C335.318 72.026 335.805 72.0609 336.26 72.2216L336.277 72.2282C336.309 72.2409 336.343 72.247 336.377 72.246C336.412 72.2451 336.446 72.2371 336.477 72.2226C336.508 72.2081 336.536 72.1873 336.56 72.1615C336.583 72.1357 336.601 72.1053 336.613 72.0723C336.625 72.0392 336.63 72.004 336.629 71.9688C336.627 71.9336 336.619 71.8991 336.604 71.8672C336.59 71.8353 336.569 71.8068 336.543 71.7832C336.518 71.7597 336.488 71.7416 336.455 71.73L336.441 71.7241Z" fill="#0C0C0C"/>
<path d="M340.388 72.2222C340.825 72.0167 341.307 71.9334 341.785 71.9808C342.027 72.0025 342.265 72.0619 342.49 72.1569C342.718 72.2517 342.933 72.3756 343.131 72.5255L343.142 72.5332C343.179 72.5578 343.224 72.567 343.267 72.559C343.31 72.5509 343.349 72.5261 343.375 72.4897C343.401 72.4533 343.412 72.4081 343.407 72.3633C343.401 72.3185 343.379 72.2776 343.345 72.249C343.131 72.0669 342.895 71.9133 342.643 71.7918C342.388 71.6677 342.117 71.5835 341.838 71.542C341.271 71.4543 340.691 71.5248 340.159 71.7459C340.096 71.7736 340.047 71.8253 340.022 71.89C339.996 71.9546 339.996 72.027 340.022 72.0914C340.049 72.1558 340.098 72.2071 340.161 72.2342C340.224 72.2613 340.294 72.262 340.358 72.2361L340.37 72.2306L340.388 72.2222Z" fill="#0C0C0C"/>
<path d="M367.533 113.246C367.154 116.179 366.784 120.208 366.454 124.374C365.163 125.782 363.783 127.102 362.323 128.323C361.394 129.096 360.436 129.831 359.448 130.528C354.105 134.266 348.004 136.711 341.604 137.677C335.205 138.642 328.675 138.104 322.508 136.103C322.424 132.233 322.309 127.013 322.195 122.231C322.065 116.715 321.933 111.776 321.862 110.154C321.57 103.713 319.905 99.4158 321.164 95.9019C321.54 94.8618 322.145 93.9246 322.932 93.1632C325.866 90.2201 333.152 90.2872 336.075 90.4036C336.125 90.4057 335.222 97.3198 344.838 97.2364C351.905 97.177 352.435 91.0543 352.435 91.0543C352.435 91.0543 355.918 91.4257 358.231 91.8374C362.014 92.5166 364.473 93.939 366.387 96.0631C368.173 98.0438 369.226 100.146 367.533 113.246Z" fill="#367CFF"/>
<path d="M311.004 91.0855L311.295 83.708C311.301 83.5458 311.275 83.3839 311.217 83.2327C311.159 83.0815 311.071 82.9443 310.959 82.8299C310.847 82.7155 310.712 82.6263 310.564 82.5682C310.416 82.51 310.258 82.4841 310.1 82.492C309.809 82.5162 309.536 82.6504 309.336 82.8686C309.136 83.0869 309.021 83.3736 309.016 83.6733L308.953 85.2554L306.921 80.1889C306.704 79.6216 306.085 79.0671 305.48 79.3579C305.24 79.4542 305.039 79.6309 304.91 79.8593C304.781 80.0878 304.731 80.3543 304.768 80.6156C304.763 80.6163 304.757 80.6176 304.751 80.6194C304.747 80.6216 304.744 80.6242 304.74 80.627L304.407 79.7522C304.345 79.5902 304.249 79.4443 304.125 79.3253C304.001 79.2062 303.853 79.117 303.691 79.0641C303.53 79.0112 303.358 78.996 303.19 79.0195C303.022 79.0431 302.861 79.1048 302.719 79.2002C302.499 79.355 302.336 79.5827 302.26 79.8454C302.184 80.108 302.197 80.3896 302.299 80.643L302.441 81.0151C302.433 81.0244 302.426 81.0351 302.421 81.0467C302.268 80.8183 302.041 80.6529 301.78 80.5802C301.519 80.5074 301.242 80.532 300.997 80.6496C300.733 80.7867 300.529 81.0208 300.426 81.3053C300.323 81.5897 300.328 81.9036 300.441 82.1842L300.793 83.109C300.779 83.0996 300.763 83.0936 300.747 83.0917C300.73 83.0897 300.713 83.0919 300.698 83.0979C300.679 83.1062 300.664 83.1198 300.653 83.1368C300.462 82.9719 300.223 82.8759 299.973 82.8636C299.723 82.8514 299.477 82.9236 299.271 83.0691C299.058 83.2265 298.903 83.453 298.831 83.712C298.759 83.9709 298.775 84.2472 298.875 84.496L301.85 92.2987C302.266 93.3903 302.99 94.3297 303.931 94.9963C304.871 95.663 305.984 96.0266 307.127 96.0405C308.113 96.0525 309.064 95.67 309.78 94.9743C310.495 94.2786 310.917 93.3245 310.957 92.3147L311.004 91.0855Z" fill="#E98862"/>
<g opacity="0.2">
<path d="M306.755 85.6405C306.73 85.6507 306.701 85.6501 306.676 85.639C306.65 85.6278 306.63 85.6069 306.62 85.5807L304.694 80.7595C304.688 80.7462 304.684 80.7319 304.684 80.7172C304.683 80.7025 304.686 80.6879 304.691 80.6743C304.696 80.6606 304.704 80.6482 304.714 80.6377C304.724 80.6273 304.736 80.619 304.749 80.6135C304.762 80.608 304.777 80.6052 304.791 80.6055C304.805 80.6057 304.819 80.609 304.832 80.615C304.845 80.621 304.857 80.6297 304.867 80.6405C304.876 80.6513 304.884 80.664 304.889 80.6779L306.815 85.4991C306.82 85.5122 306.822 85.5262 306.822 85.5404C306.822 85.5546 306.82 85.5686 306.814 85.5817C306.809 85.5948 306.801 85.6066 306.791 85.6166C306.781 85.6266 306.77 85.6344 306.757 85.6398L306.755 85.6405Z" fill="#0C0C0C"/>
</g>
<g opacity="0.2">
<path d="M304.706 86.57C304.68 86.5803 304.651 86.5798 304.626 86.5685C304.6 86.5572 304.58 86.5362 304.57 86.5099L302.421 81.1294C302.411 81.1031 302.411 81.0738 302.422 81.0478C302.432 81.0218 302.453 81.0012 302.478 80.9904C302.504 80.981 302.532 80.9818 302.557 80.9927C302.582 81.0036 302.602 81.0237 302.614 81.0491L304.763 86.4297C304.774 86.4561 304.774 86.4858 304.763 86.5122C304.752 86.5386 304.731 86.5595 304.706 86.5704V86.57Z" fill="#0C0C0C"/>
</g>
<g opacity="0.2">
<path d="M302.49 87.5898C302.464 87.6 302.436 87.5995 302.41 87.5882C302.385 87.577 302.365 87.5559 302.354 87.5297L300.64 83.2379C300.629 83.2115 300.629 83.1818 300.64 83.1555C300.651 83.1291 300.672 83.1082 300.697 83.0974C300.723 83.0866 300.752 83.0867 300.778 83.0977C300.803 83.1088 300.824 83.1298 300.834 83.1563L302.55 87.447C302.561 87.4735 302.56 87.5031 302.55 87.5295C302.539 87.5559 302.518 87.5768 302.492 87.5877L302.49 87.5898Z" fill="#0C0C0C"/>
</g>
<path d="M334.828 102.651L317.313 130.256C316.675 131.259 315.822 132.099 314.819 132.712C313.326 131.868 311.885 130.931 310.505 129.905C307.563 127.729 304.905 125.177 302.595 122.31L298.916 93.0693L313.64 90.6509L315.318 104.726L322.045 94.1248L334.828 102.651Z" fill="#367CFF"/>
<path d="M336.882 80.5527C338.489 80.6621 340.085 80.2194 341.419 79.2947C341.465 79.2628 341.52 79.2452 341.575 79.2437C341.631 79.2423 341.686 79.2572 341.734 79.2866C341.782 79.316 341.82 79.3587 341.845 79.4098C341.87 79.4609 341.88 79.5182 341.875 79.575C341.767 80.5478 341.298 82.3371 339.307 82.565C338.022 82.7119 337.09 81.6999 336.621 81.0269C336.588 80.9804 336.57 80.9253 336.567 80.8681C336.564 80.811 336.577 80.7541 336.604 80.7043C336.632 80.6545 336.672 80.6138 336.722 80.5869C336.771 80.5601 336.827 80.5482 336.882 80.5527Z" fill="white"/>
<path d="M372.283 116.349C369.695 120.923 366.32 124.98 362.323 128.323C361.395 129.096 360.436 129.831 359.448 130.528L352.607 103.849L368.014 99.6948L372.283 116.349Z" fill="#367CFF"/>
<path d="M359.598 130.422C359.549 130.455 359.496 130.492 359.448 130.527C359.4 130.561 359.35 130.596 359.301 130.629L354.088 110.304L354.417 110.216L359.598 130.422Z" fill="#0C0C0C"/>
<path d="M322.237 123.488C322.194 123.486 322.154 123.468 322.124 123.437C322.094 123.407 322.076 123.365 322.074 123.322L321.738 115.748C321.736 115.702 321.752 115.657 321.782 115.623C321.813 115.589 321.855 115.569 321.9 115.567C321.945 115.565 321.989 115.581 322.022 115.612C322.055 115.643 322.075 115.686 322.077 115.732L322.413 123.306C322.415 123.352 322.399 123.397 322.369 123.431C322.338 123.465 322.296 123.486 322.251 123.488H322.237Z" fill="#0C0C0C"/>
<path d="M195.527 193.572C219.507 193.572 238.947 173.644 238.947 149.061C238.947 124.479 219.507 104.551 195.527 104.551C171.546 104.551 152.106 124.479 152.106 149.061C152.106 173.644 171.546 193.572 195.527 193.572Z" fill="white"/>
<path opacity="0.09" d="M238.947 149.061C238.947 157.864 236.401 166.47 231.63 173.789C226.859 181.109 220.077 186.814 212.144 190.183C204.21 193.551 195.479 194.433 187.057 192.715C178.634 190.998 170.898 186.759 164.825 180.534C158.753 174.309 154.618 166.378 152.942 157.744C151.267 149.11 152.127 140.161 155.413 132.028C158.7 123.895 164.265 116.944 171.405 112.053C178.545 107.162 186.94 104.552 195.528 104.552C201.235 104.53 206.891 105.666 212.168 107.896C217.446 110.125 222.241 113.402 226.277 117.54C230.313 121.677 233.51 126.593 235.685 132.002C237.86 137.412 238.968 143.21 238.947 149.061Z" fill="#367CFF"/>
<path d="M176.307 122.809C176.307 122.809 175.871 129.528 174.396 131.966C170.15 138.984 168.92 146.879 173.172 151.005C177.423 155.13 204.54 155.187 206.594 145.7C208.323 137.712 204.612 136.853 203.709 130.265C203.301 127.283 202.177 121.032 202.177 121.032" fill="#0A0A0A"/>
<path d="M199.575 144.309C199.528 144.303 199.009 153.138 188.996 152.369C182.064 151.837 179.593 144.298 179.434 144.298C180.181 144.135 181.44 143.898 181.772 143.717C182.864 143.115 184.214 142.49 184.566 140.317C184.769 139.066 184.425 132.658 184.532 131.391L195.172 133.825C195.024 136.5 193.983 142.705 197.63 143.803C198.235 143.983 198.889 144.15 199.575 144.309Z" fill="#E98862"/>
<path opacity="0.5" d="M195.32 141.266C195.153 140.715 195.046 140.147 195 139.573C194.883 138.262 194.906 136.941 195.069 135.636C192.907 135.337 190.869 134.422 189.189 132.995C188.991 133.743 187.904 137.011 188.206 137.723C188.775 139.065 191.446 141.266 195.32 141.266Z" fill="#0C0C0C"/>
<path d="M193.944 138.514C189.749 138.931 184.321 137.21 183.197 131.483L182.182 126.316C181.058 120.589 183.08 115.341 188.34 114.256C193.6 113.171 198.443 117.001 199.567 122.729L200.017 125.016C200.448 127.214 201.428 137.771 193.944 138.514Z" fill="#E98862"/>
<path opacity="0.1" d="M191.278 131.01C191.968 130.926 192.478 130.436 192.418 129.917C192.358 129.398 191.749 129.045 191.059 129.13C190.368 129.214 189.858 129.704 189.918 130.223C189.979 130.742 190.587 131.094 191.278 131.01Z" fill="#0C0C0C"/>
<path opacity="0.1" d="M198.572 128.933C198.634 129.451 199.242 129.801 199.932 129.719C200.052 129.705 200.169 129.677 200.283 129.638C200.315 129.02 200.317 128.425 200.299 127.875C200.108 127.826 199.909 127.814 199.713 127.84C199.022 127.923 198.512 128.412 198.572 128.933Z" fill="#0C0C0C"/>
<path opacity="0.5" d="M195.521 130.535H195.531C195.744 130.489 195.955 130.431 196.162 130.361C196.471 130.257 196.873 130.082 196.819 129.795C196.755 129.469 195.192 126.128 195.013 125.748C194.996 125.717 194.969 125.694 194.936 125.683C194.903 125.672 194.867 125.675 194.836 125.69C194.804 125.705 194.78 125.732 194.768 125.766C194.755 125.799 194.756 125.836 194.769 125.869C195.436 127.293 196.51 129.63 196.553 129.85C196.519 129.953 196.007 130.153 195.478 130.262C195.444 130.27 195.415 130.291 195.396 130.32C195.376 130.349 195.369 130.385 195.374 130.42C195.38 130.455 195.398 130.486 195.425 130.508C195.453 130.529 195.487 130.539 195.521 130.536V130.535Z" fill="#0C0C0C"/>
<path d="M177.985 128.169L182.701 127.224C186.263 125.696 187.274 119.334 187.274 119.334C187.274 119.334 191.67 123.625 202.176 121.03C202.176 121.03 199.894 105.995 184.38 110.559C179.378 112.03 175.835 117.257 176.362 124.18C176.731 129.032 177.985 128.169 177.985 128.169Z" fill="#0A0A0A"/>
<path d="M183.867 133.159C182.269 133.488 180.629 132.003 180.308 130.364C179.988 128.725 181.105 127.554 182.703 127.225L183.743 128.153L185.243 132.875L183.867 133.159Z" fill="#E98862"/>
<path d="M196.148 123.084C196.548 122.794 197.016 122.617 197.504 122.573C197.749 122.549 197.996 122.563 198.237 122.615C198.48 122.665 198.716 122.747 198.939 122.858L198.946 122.861C198.971 122.871 198.998 122.871 199.023 122.861C199.048 122.851 199.068 122.832 199.079 122.808C199.09 122.783 199.092 122.755 199.084 122.729C199.075 122.703 199.058 122.682 199.034 122.669C198.798 122.541 198.547 122.444 198.286 122.38C198.025 122.315 197.755 122.29 197.486 122.307C196.941 122.338 196.414 122.518 195.961 122.829C195.943 122.84 195.928 122.855 195.916 122.873C195.904 122.89 195.896 122.91 195.892 122.931C195.887 122.952 195.887 122.974 195.891 122.995C195.896 123.015 195.904 123.035 195.915 123.053C195.927 123.071 195.942 123.086 195.96 123.097C195.977 123.109 195.997 123.117 196.018 123.12C196.038 123.124 196.059 123.123 196.079 123.118C196.1 123.114 196.119 123.105 196.136 123.092L196.139 123.09L196.148 123.084Z" fill="#0C0C0C"/>
<path d="M191.84 123.693C191.304 123.584 190.75 123.624 190.235 123.81C189.98 123.9 189.74 124.029 189.523 124.192C189.307 124.353 189.111 124.541 188.94 124.752C188.922 124.773 188.914 124.8 188.915 124.827C188.917 124.855 188.929 124.881 188.949 124.899C188.969 124.918 188.995 124.928 189.022 124.927C189.049 124.926 189.074 124.915 189.093 124.895L189.098 124.889C189.263 124.699 189.45 124.531 189.656 124.389C189.859 124.246 190.082 124.136 190.318 124.062C190.785 123.912 191.283 123.891 191.761 124.002L191.773 124.005C191.793 124.01 191.814 124.012 191.834 124.009C191.855 124.006 191.875 123.999 191.892 123.988C191.91 123.977 191.926 123.963 191.938 123.946C191.95 123.928 191.959 123.909 191.964 123.888C191.969 123.868 191.97 123.846 191.966 123.825C191.963 123.804 191.956 123.784 191.945 123.766C191.934 123.748 191.919 123.733 191.902 123.72C191.885 123.708 191.866 123.7 191.846 123.695L191.84 123.693Z" fill="#0C0C0C"/>
<path d="M182.705 127.146C185.875 125.937 186.927 123.693 187.251 122.023C187.46 120.909 187.441 119.763 187.193 118.657L187.095 118.685C187.339 119.776 187.358 120.907 187.15 122.006C186.831 123.649 185.795 125.857 182.669 127.049L182.705 127.146Z" fill="#0C0C0C"/>
<path d="M222.782 142.548L224.68 135.947C224.721 135.802 224.792 135.668 224.887 135.552C224.982 135.437 225.1 135.343 225.232 135.276C225.365 135.21 225.509 135.173 225.657 135.167C225.804 135.161 225.951 135.186 226.088 135.242C226.339 135.352 226.54 135.554 226.653 135.808C226.766 136.062 226.784 136.35 226.701 136.616L226.295 138.032L229.566 134.183C229.923 133.748 230.631 133.449 231.08 133.891C231.264 134.05 231.39 134.267 231.437 134.508C231.485 134.75 231.451 135 231.342 135.219C231.346 135.222 231.351 135.225 231.355 135.228C231.358 135.231 231.36 135.234 231.363 135.238L231.912 134.568C232.014 134.444 232.142 134.345 232.286 134.278C232.43 134.211 232.587 134.177 232.745 134.18C232.903 134.183 233.058 134.222 233.2 134.295C233.341 134.367 233.465 134.471 233.563 134.599C233.712 134.803 233.789 135.053 233.78 135.309C233.771 135.564 233.676 135.808 233.512 136L233.278 136.286C233.284 136.296 233.287 136.308 233.287 136.32C233.489 136.165 233.738 136.089 233.989 136.105C234.241 136.121 234.479 136.228 234.66 136.407C234.853 136.609 234.965 136.878 234.973 137.16C234.981 137.443 234.885 137.719 234.704 137.932L234.123 138.64C234.138 138.636 234.154 138.635 234.169 138.639C234.184 138.642 234.198 138.649 234.21 138.659C234.224 138.672 234.234 138.689 234.239 138.707C234.456 138.621 234.695 138.61 234.919 138.676C235.143 138.742 235.339 138.882 235.478 139.074C235.62 139.278 235.691 139.526 235.678 139.776C235.666 140.027 235.572 140.266 235.41 140.454L230.508 146.43C229.822 147.266 228.909 147.873 227.884 148.172C226.86 148.472 225.771 148.452 224.758 148.114C223.885 147.822 223.157 147.193 222.729 146.36C222.301 145.526 222.207 144.555 222.466 143.652L222.782 142.548Z" fill="#E98862"/>
<g opacity="0.2">
<path d="M228.12 139.046C228.14 139.062 228.165 139.07 228.19 139.068C228.215 139.066 228.239 139.054 228.256 139.035L231.362 135.37C231.379 135.35 231.388 135.324 231.386 135.297C231.384 135.271 231.372 135.246 231.352 135.229C231.333 135.211 231.307 135.202 231.281 135.204C231.255 135.206 231.231 135.219 231.214 135.239L228.107 138.903C228.099 138.913 228.093 138.924 228.089 138.937C228.084 138.949 228.083 138.962 228.084 138.976C228.085 138.989 228.088 139.002 228.094 139.013C228.1 139.025 228.108 139.036 228.117 139.044L228.12 139.046Z" fill="#0C0C0C"/>
</g>
<g opacity="0.2">
<path d="M229.659 140.496C229.678 140.512 229.703 140.52 229.729 140.518C229.754 140.516 229.778 140.504 229.794 140.484L233.261 136.395C233.269 136.385 233.276 136.373 233.28 136.361C233.284 136.348 233.286 136.335 233.285 136.322C233.284 136.309 233.28 136.296 233.275 136.284C233.269 136.272 233.261 136.262 233.251 136.253C233.231 136.237 233.206 136.228 233.18 136.23C233.154 136.232 233.13 136.244 233.113 136.263L229.649 140.352C229.64 140.362 229.634 140.374 229.63 140.386C229.625 140.399 229.624 140.412 229.625 140.425C229.626 140.438 229.629 140.451 229.635 140.463C229.641 140.475 229.649 140.485 229.658 140.494L229.659 140.496Z" fill="#0C0C0C"/>
</g>
<g opacity="0.2">
<path d="M231.317 142.075C231.336 142.091 231.361 142.099 231.387 142.097C231.412 142.095 231.435 142.083 231.452 142.063L234.218 138.802C234.233 138.781 234.24 138.756 234.238 138.73C234.235 138.704 234.224 138.681 234.205 138.664C234.186 138.647 234.161 138.638 234.136 138.639C234.111 138.64 234.087 138.651 234.07 138.67L231.304 141.932C231.296 141.942 231.289 141.953 231.285 141.966C231.281 141.978 231.279 141.991 231.28 142.005C231.281 142.018 231.285 142.031 231.29 142.042C231.296 142.054 231.304 142.065 231.314 142.073L231.317 142.075Z" fill="#0C0C0C"/>
</g>
<path d="M234.333 145.429L226.995 179.553C226.978 179.629 226.961 179.709 226.941 179.786C225.293 181.553 223.508 183.181 221.603 184.653C221.22 184.945 220.837 185.233 220.444 185.511C220.201 185.539 219.956 185.553 219.712 185.553C218.404 185.552 217.119 185.199 215.987 184.529C214.854 183.859 213.913 182.895 213.259 181.735L199.275 156.931L212.188 149.284L216.563 157.046L219.769 142.138L234.333 145.429Z" fill="#FFC107"/>
<path d="M211.751 160.988C211.707 161.53 211.619 162.496 211.497 163.767C210.887 170.268 209.46 184.755 208.799 191.45C200.45 194.186 191.49 194.279 183.089 191.718H183.085C176.881 189.814 171.171 186.509 166.377 182.045C166.404 176.059 166.319 169.326 165.926 164.997C164.75 152.062 165.862 150.037 167.688 148.165C167.838 148.012 167.993 147.862 168.149 147.716C170.037 145.959 172.406 144.812 175.86 144.332C178.144 144.016 181.581 143.787 181.581 143.787C181.581 143.787 181.872 149.825 188.81 150.159C198.255 150.614 197.625 143.787 197.672 143.787C200.048 143.787 205.335 143.94 208.67 145.681C208.674 145.681 208.674 145.681 208.677 145.684C209.348 146.019 209.959 146.469 210.483 147.015C214.303 151.163 212.419 152.937 211.751 160.988Z" fill="#FFC107"/>
<path d="M196.929 131.665C195.566 132.375 194.011 132.6 192.509 132.303C192.457 132.293 192.403 132.298 192.354 132.318C192.305 132.339 192.263 132.373 192.232 132.416C192.201 132.46 192.182 132.512 192.179 132.567C192.176 132.621 192.188 132.675 192.214 132.722C192.662 133.531 193.723 134.913 195.544 134.35C196.72 133.986 197.165 132.746 197.33 131.978C197.341 131.925 197.338 131.87 197.319 131.819C197.301 131.768 197.269 131.723 197.227 131.69C197.185 131.657 197.134 131.637 197.081 131.633C197.029 131.628 196.976 131.639 196.929 131.665Z" fill="white"/>
<path d="M197.014 125.45C197.377 125.45 197.672 125.148 197.672 124.775C197.672 124.402 197.377 124.1 197.014 124.1C196.65 124.1 196.355 124.402 196.355 124.775C196.355 125.148 196.65 125.45 197.014 125.45Z" fill="#0C0C0C"/>
<path d="M190.685 126.585C191.049 126.585 191.344 126.283 191.344 125.91C191.344 125.537 191.049 125.235 190.685 125.235C190.321 125.235 190.027 125.537 190.027 125.91C190.027 126.283 190.321 126.585 190.685 126.585Z" fill="#0C0C0C"/>
<path d="M210.295 175.56C210.291 175.56 210.287 175.56 210.283 175.56C210.256 175.556 210.232 175.542 210.215 175.519C210.199 175.497 210.192 175.47 210.196 175.442L211.36 163.418C211.362 163.405 211.366 163.391 211.372 163.379C211.379 163.368 211.388 163.357 211.399 163.349C211.41 163.34 211.422 163.334 211.435 163.331C211.448 163.328 211.462 163.327 211.475 163.329C211.502 163.333 211.526 163.348 211.542 163.37C211.558 163.392 211.565 163.42 211.562 163.447L210.397 175.471C210.394 175.496 210.381 175.519 210.363 175.535C210.344 175.551 210.32 175.56 210.295 175.56Z" fill="#0C0C0C"/>
<path d="M203.248 174.98L209.611 172.067C209.75 172.003 209.902 171.97 210.054 171.969C210.207 171.969 210.359 172.001 210.499 172.063C210.639 172.126 210.765 172.218 210.869 172.333C210.973 172.448 211.052 172.584 211.102 172.732C211.186 173.009 211.166 173.308 211.047 173.57C210.928 173.833 210.718 174.042 210.458 174.155L209.093 174.78L214.264 174.835C214.84 174.83 215.547 175.202 215.509 175.864C215.511 176.119 215.428 176.368 215.274 176.569C215.12 176.77 214.904 176.911 214.662 176.971C214.663 176.976 214.664 176.982 214.664 176.987C214.664 176.992 214.663 176.996 214.662 177L215.548 176.994C215.713 176.993 215.875 177.029 216.023 177.1C216.172 177.172 216.303 177.276 216.407 177.406C216.512 177.536 216.586 177.688 216.626 177.851C216.666 178.014 216.67 178.184 216.637 178.349C216.581 178.607 216.439 178.838 216.236 179.003C216.033 179.167 215.782 179.255 215.523 179.252L215.146 179.255C215.141 179.266 215.134 179.276 215.126 179.285C215.381 179.344 215.607 179.494 215.765 179.708C215.922 179.922 216 180.187 215.985 180.455C215.959 180.747 215.827 181.019 215.615 181.216C215.402 181.413 215.126 181.521 214.839 181.518L213.902 181.525C213.915 181.534 213.926 181.547 213.934 181.561C213.941 181.576 213.946 181.592 213.946 181.609C213.945 181.629 213.939 181.648 213.928 181.664C214.141 181.781 214.311 181.967 214.411 182.193C214.512 182.419 214.537 182.673 214.483 182.915C214.421 183.167 214.278 183.391 214.077 183.55C213.876 183.71 213.628 183.794 213.374 183.791L205.467 183.849C204.361 183.857 203.278 183.526 202.356 182.899C201.435 182.272 200.717 181.377 200.295 180.329C199.931 179.425 199.925 178.411 200.278 177.503C200.631 176.595 201.316 175.864 202.187 175.465L203.248 174.98Z" fill="#E98862"/>
<g opacity="0.2">
<path d="M209.543 176.944C209.543 176.972 209.554 176.998 209.573 177.018C209.592 177.038 209.618 177.049 209.645 177.049L214.562 177.094C214.589 177.094 214.615 177.084 214.634 177.064C214.653 177.045 214.664 177.018 214.664 176.991C214.664 176.963 214.654 176.936 214.635 176.916C214.616 176.897 214.59 176.885 214.563 176.885L209.646 176.839C209.619 176.839 209.593 176.85 209.574 176.87C209.555 176.89 209.544 176.916 209.544 176.944H209.543Z" fill="#0C0C0C"/>
</g>
<g opacity="0.2">
<path d="M209.464 179.167C209.464 179.194 209.475 179.221 209.494 179.241C209.513 179.26 209.539 179.271 209.566 179.271L215.053 179.322C215.08 179.322 215.106 179.311 215.125 179.291C215.144 179.272 215.154 179.245 215.154 179.218C215.154 179.19 215.143 179.164 215.124 179.144C215.105 179.125 215.079 179.114 215.053 179.113L209.565 179.062C209.538 179.062 209.512 179.073 209.493 179.093C209.474 179.112 209.464 179.139 209.464 179.167Z" fill="#0C0C0C"/>
</g>
<g opacity="0.2">
<path d="M209.366 181.572C209.366 181.599 209.377 181.626 209.396 181.646C209.415 181.665 209.441 181.676 209.468 181.676L213.845 181.717C213.872 181.717 213.898 181.706 213.917 181.686C213.936 181.667 213.946 181.64 213.946 181.612C213.946 181.585 213.936 181.558 213.917 181.538C213.898 181.519 213.872 181.508 213.845 181.508L209.468 181.467C209.441 181.467 209.415 181.478 209.396 181.498C209.377 181.518 209.366 181.544 209.366 181.572V181.572Z" fill="#0C0C0C"/>
</g>
<path d="M205.071 186.597L183.089 191.718H183.086C176.881 189.814 171.172 186.509 166.377 182.045C165.862 181.566 165.358 181.075 164.866 180.572C164.007 179.693 163.186 178.78 162.402 177.831L165.479 152.455C165.815 150.41 166.93 148.585 168.578 147.382C170.226 146.178 172.274 145.696 174.269 146.04C176.264 146.384 178.045 147.527 179.218 149.217C180.392 150.906 180.863 153.005 180.527 155.051L178.582 178.877L203.092 173.189L205.071 186.597Z" fill="#FFC107"/>
<path d="M173.622 179.812C173.609 179.813 173.596 179.811 173.583 179.807C173.57 179.803 173.558 179.796 173.548 179.787C173.538 179.778 173.53 179.767 173.524 179.755C173.518 179.743 173.514 179.729 173.513 179.716C173.512 179.702 173.514 179.688 173.518 179.675C173.522 179.662 173.529 179.65 173.537 179.64C173.546 179.629 173.557 179.621 173.569 179.615C173.581 179.608 173.594 179.605 173.607 179.604L178.521 178.527C178.535 178.525 178.548 178.525 178.561 178.528C178.574 178.532 178.586 178.538 178.597 178.546C178.608 178.554 178.617 178.564 178.624 178.576C178.631 178.588 178.635 178.601 178.637 178.614C178.639 178.628 178.639 178.642 178.635 178.655C178.632 178.668 178.626 178.681 178.618 178.692C178.61 178.703 178.6 178.712 178.589 178.719C178.577 178.726 178.565 178.731 178.551 178.733L173.635 179.81C173.631 179.811 173.627 179.812 173.622 179.812Z" fill="#0C0C0C"/>
<path d="M205.071 186.595C205.076 186.622 205.071 186.65 205.058 186.673C205.044 186.696 205.022 186.713 204.996 186.72L183.641 191.88C183.505 191.841 183.373 191.803 183.241 191.761L204.847 186.547L202.922 173.345L178.557 178.733C178.541 178.736 178.525 178.734 178.51 178.73C178.495 178.725 178.481 178.717 178.469 178.705C178.459 178.693 178.451 178.679 178.447 178.663C178.442 178.648 178.44 178.631 178.442 178.615L179.808 165C179.81 164.986 179.815 164.973 179.822 164.962C179.83 164.95 179.839 164.94 179.85 164.932C179.861 164.925 179.874 164.919 179.887 164.916C179.9 164.913 179.913 164.913 179.926 164.916C179.953 164.92 179.977 164.935 179.993 164.957C180.008 164.979 180.015 165.007 180.011 165.034L178.666 178.511L202.966 173.112C202.979 173.108 202.993 173.107 203.006 173.11C203.02 173.112 203.033 173.118 203.044 173.126C203.056 173.132 203.066 173.141 203.074 173.152C203.082 173.162 203.088 173.175 203.091 173.188L205.071 186.595Z" fill="#0C0C0C"/>
<path d="M39.8137 244.856C61.8023 244.856 79.6275 226.584 79.6275 204.043C79.6275 181.503 61.8023 163.23 39.8137 163.23C17.8252 163.23 0 181.503 0 204.043C0 226.584 17.8252 244.856 39.8137 244.856Z" fill="white"/>
<path opacity="0.09" d="M39.8137 244.856C61.8023 244.856 79.6275 226.584 79.6275 204.043C79.6275 181.503 61.8023 163.23 39.8137 163.23C17.8252 163.23 0 181.503 0 204.043C0 226.584 17.8252 244.856 39.8137 244.856Z" fill="#367CFF"/>
<path d="M28.8501 180.894C28.8501 180.894 29.2815 193.186 37.285 193.751L38.6407 177.542L28.8501 180.894Z" fill="#0A0A0A"/>
<path d="M30.3911 196.261C33.0097 196.261 35.1325 194.085 35.1325 191.401C35.1325 188.717 33.0097 186.541 30.3911 186.541C27.7725 186.541 25.6497 188.717 25.6497 191.401C25.6497 194.085 27.7725 196.261 30.3911 196.261Z" fill="#0A0A0A"/>
<path d="M48.9427 199.456C48.9003 199.45 48.4319 207.42 39.3992 206.725C33.1458 206.246 30.9165 199.445 30.7734 199.445C31.488 199.324 32.1929 199.148 32.8825 198.921C33.8671 198.379 35.0855 197.814 35.4027 195.854C35.5857 194.724 35.2756 188.944 35.3708 187.801L44.9696 189.998C44.834 192.412 43.8966 198.008 47.1868 198.999C47.7338 199.163 48.3235 199.313 48.9427 199.456Z" fill="#E98862"/>
<path opacity="0.5" d="M45.1034 196.712C44.953 196.215 44.8561 195.702 44.8147 195.183C44.7093 194.001 44.7303 192.81 44.8774 191.632C42.9265 191.362 41.0885 190.536 39.5723 189.249C39.3941 189.924 38.4139 192.872 38.6854 193.513C39.1985 194.728 41.6092 196.712 45.1034 196.712Z" fill="#0C0C0C"/>
<path d="M43.6002 194.564C39.7986 194.614 35.046 192.647 34.4569 187.412L33.9255 182.687C33.3361 177.452 35.5408 172.89 40.3493 172.323C45.1575 171.754 49.2289 175.573 49.8183 180.808L50.0535 182.899C50.2795 184.909 50.3832 194.476 43.6002 194.564Z" fill="#E98862"/>
<path d="M48.6753 182.76C49.0045 182.76 49.2714 182.486 49.2714 182.149C49.2714 181.811 49.0045 181.538 48.6753 181.538C48.346 181.538 48.0791 181.811 48.0791 182.149C48.0791 182.486 48.346 182.76 48.6753 182.76Z" fill="#0C0C0C"/>
<path d="M42.582 183.473C42.9112 183.473 43.1781 183.199 43.1781 182.862C43.1781 182.524 42.9112 182.25 42.582 182.25C42.2527 182.25 41.9858 182.524 41.9858 182.862C41.9858 183.199 42.2527 183.473 42.582 183.473Z" fill="#0C0C0C"/>
<path opacity="0.5" d="M45.606 187.515H45.6155C45.8103 187.491 46.0037 187.455 46.1947 187.409C46.4801 187.338 46.8563 187.213 46.8268 186.951C46.7929 186.653 45.6342 183.528 45.502 183.173C45.4963 183.158 45.4877 183.144 45.4766 183.132C45.4656 183.12 45.4524 183.11 45.4378 183.104C45.4232 183.097 45.4074 183.093 45.3914 183.093C45.3753 183.092 45.3594 183.095 45.3444 183.101C45.3294 183.107 45.3157 183.116 45.3041 183.127C45.2924 183.138 45.2831 183.152 45.2765 183.167C45.27 183.182 45.2664 183.198 45.2659 183.214C45.2655 183.231 45.2682 183.247 45.2739 183.263C45.7684 184.593 46.5618 186.779 46.5841 186.98C46.2791 187.156 45.9373 187.254 45.5874 187.267C45.5551 187.269 45.5252 187.285 45.5041 187.31C45.483 187.335 45.4726 187.368 45.475 187.401C45.4775 187.434 45.4927 187.465 45.5173 187.487C45.5418 187.508 45.5738 187.519 45.606 187.516V187.515Z" fill="#0C0C0C"/>
<path opacity="0.5" d="M44.7469 189.694C45.5279 189.648 46.2874 189.415 46.9644 189.013C46.9911 188.996 47.0104 188.969 47.0183 188.938C47.0262 188.907 47.0221 188.874 47.007 188.846C46.9918 188.818 46.9666 188.797 46.9367 188.787C46.9067 188.777 46.8743 188.78 46.8461 188.794C45.3841 189.623 43.9857 189.671 42.8029 188.933C42.779 188.917 42.7543 188.903 42.729 188.89C42.6997 188.878 42.6671 188.879 42.638 188.891C42.6089 188.903 42.5856 188.926 42.5728 188.956C42.56 188.985 42.5588 189.019 42.5694 189.049C42.58 189.079 42.6016 189.104 42.6297 189.119C42.6388 189.124 42.6544 189.133 42.6758 189.147C43.2977 189.537 44.0188 189.727 44.7469 189.694Z" fill="#0C0C0C"/>
<path d="M30.016 184.031L34.3246 183.547C37.6388 182.45 39.0159 176.807 39.0159 176.807C39.0159 176.807 41.9858 180.269 50.7867 178.688C50.7867 178.688 50.4458 167.057 37.0607 168.695C32.4002 169.265 28.886 174.056 28.8498 180.321C28.8247 184.71 30.016 184.031 30.016 184.031Z" fill="#0A0A0A"/>
<path d="M34.9352 188.971C33.4738 189.145 32.1089 187.682 31.9405 186.183C31.7721 184.685 32.8634 183.72 34.3248 183.547L35.1907 184.461L36.1915 188.823L34.9352 188.971Z" fill="#E98862"/>
<path d="M46.5668 180.622C46.9978 180.378 47.485 180.256 47.9774 180.271C48.2205 180.276 48.4615 180.319 48.6921 180.398C48.9213 180.475 49.1401 180.582 49.3432 180.715C49.3635 180.729 49.3781 180.749 49.3839 180.773C49.3896 180.797 49.3861 180.823 49.3741 180.844C49.3621 180.866 49.3425 180.881 49.3194 180.888C49.2962 180.895 49.2714 180.893 49.25 180.881L49.2439 180.878C49.0514 180.761 48.8453 180.669 48.6305 180.605C48.4176 180.539 48.1964 180.508 47.9743 180.51C47.5324 180.513 47.0989 180.635 46.718 180.864L46.7088 180.87C46.6931 180.881 46.6754 180.888 46.6569 180.892C46.6383 180.895 46.6193 180.895 46.6009 180.89C46.5826 180.886 46.5652 180.878 46.5499 180.867C46.5346 180.856 46.5217 180.841 46.5119 180.825C46.5021 180.808 46.4957 180.79 46.4929 180.771C46.4902 180.752 46.4913 180.732 46.496 180.714C46.5008 180.695 46.5092 180.677 46.5207 180.662C46.5323 180.647 46.5467 180.634 46.5631 180.625L46.5668 180.622Z" fill="#0C0C0C"/>
<path d="M42.706 181.352C42.2847 181.215 41.8354 181.195 41.4042 181.295C41.187 181.343 40.9782 181.425 40.785 181.538C40.5897 181.65 40.4089 181.787 40.2468 181.945L40.2417 181.95C40.2233 181.964 40.2005 181.97 40.1776 181.968C40.1548 181.966 40.1335 181.955 40.1178 181.938C40.1021 181.921 40.0932 181.898 40.0926 181.875C40.092 181.851 40.0998 181.829 40.1146 181.811C40.2836 181.634 40.4735 181.48 40.6799 181.352C40.8876 181.223 41.1132 181.125 41.349 181.064C41.8258 180.938 42.3271 180.945 42.8005 181.084C42.8188 181.089 42.836 181.097 42.851 181.109C42.866 181.121 42.8785 181.136 42.8878 181.153C42.8972 181.169 42.9031 181.188 42.9052 181.207C42.9073 181.226 42.9056 181.246 42.9003 181.264C42.8949 181.283 42.8859 181.3 42.8738 181.315C42.8618 181.33 42.8469 181.342 42.8302 181.351C42.8134 181.36 42.795 181.365 42.7762 181.367C42.7573 181.368 42.7384 181.366 42.7205 181.36H42.7168L42.706 181.352Z" fill="#0C0C0C"/>
<path opacity="0.52" d="M44.8281 190.877C44.9695 190.871 45.11 190.853 45.2484 190.823C45.2791 190.815 45.3057 190.795 45.3226 190.768C45.3394 190.74 45.3452 190.707 45.3386 190.675C45.3321 190.643 45.3137 190.615 45.2875 190.597C45.2612 190.579 45.2291 190.572 45.1979 190.578C44.9819 190.642 44.7549 190.659 44.5321 190.627C44.3093 190.594 44.0958 190.513 43.9059 190.39C43.8809 190.369 43.8487 190.359 43.8164 190.362C43.7842 190.365 43.7546 190.382 43.7341 190.407C43.7136 190.433 43.7039 190.466 43.7072 190.499C43.7104 190.532 43.7263 190.562 43.7514 190.583C44.0664 190.806 44.4469 190.91 44.8281 190.877Z" fill="#0C0C0C"/>
<path opacity="0.1" d="M41.7563 187.611C42.3831 187.589 42.8783 187.189 42.8622 186.717C42.8461 186.246 42.3248 185.882 41.698 185.905C41.0712 185.927 40.576 186.327 40.5921 186.799C40.6082 187.27 41.1294 187.634 41.7563 187.611Z" fill="#0C0C0C"/>
<path opacity="0.1" d="M48.4649 186.31C48.4825 186.781 49.0034 187.144 49.6304 187.123C49.7388 187.119 49.8465 187.103 49.9517 187.077C50.0259 186.524 50.0714 185.989 50.0961 185.493C49.9273 185.434 49.7493 185.408 49.5711 185.416C48.9455 185.438 48.4507 185.837 48.4649 186.31Z" fill="#0C0C0C"/>
<path d="M62.4324 207.851C62.4053 210.634 61.4733 213.952 61.1412 217.961C61.0531 219.031 58.8125 222.127 58.4871 225.57C58.077 229.954 58.9891 236.791 59.1111 239.748C52.8134 243.32 45.6895 245.077 38.4959 244.833C31.3023 244.588 24.3077 242.351 18.2548 238.358C18.0922 230.764 17.899 221.387 17.6516 219.139C16.8483 211.718 17.0652 207.024 18.2243 204.828C20.1189 201.243 23.4911 200.149 27.0192 199.655C29.1747 199.356 32.4113 199.145 32.4113 199.145C32.4113 199.145 32.6858 204.832 39.2269 205.148C48.1302 205.579 47.5371 199.145 47.5812 199.145C50.811 199.145 56.9319 199.937 59.2771 201.576C61.7648 203.31 62.463 205.367 62.4324 207.851Z" fill="#FFC239"/>
<path d="M31.6727 212.18L19.5937 239.201C14.956 236.395 10.9208 232.654 7.73169 228.205L17.8076 205.665L31.6727 212.18Z" fill="#FFC239"/>
<path d="M72.1915 227.796C69.8252 231.18 66.9692 234.174 63.722 236.676C62.6533 237.503 61.5435 238.273 60.3973 238.983L47.9998 211.043L61.8817 204.567L72.1915 227.796Z" fill="#FFC239"/>
<path d="M122.672 84.9861C145.566 84.9861 164.125 65.9613 164.125 42.4931C164.125 19.0248 145.566 0 122.672 0C99.7788 0 81.22 19.0248 81.22 42.4931C81.22 65.9613 99.7788 84.9861 122.672 84.9861Z" fill="white"/>
<path opacity="0.09" d="M122.672 84.9861C145.566 84.9861 164.125 65.9613 164.125 42.4931C164.125 19.0248 145.566 0 122.672 0C99.7788 0 81.22 19.0248 81.22 42.4931C81.22 65.9613 99.7788 84.9861 122.672 84.9861Z" fill="#367CFF"/>
<path d="M130.687 17.0481C130.687 17.0481 133.312 14.1318 133.109 8.57722C132.952 4.27646 129.659 7.69268 129.659 7.69268C129.659 7.69268 129.516 4.59714 127.422 5.29546C125.328 5.99378 124.684 9.39298 124.684 9.39298" fill="#0C0C0C"/>
<path d="M116.38 7.70898C116.38 7.70898 105.926 10.8584 112.394 24.952L113.349 24.8415L115.287 24.6178" fill="#0C0C0C"/>
<path d="M131.192 39.5721C131.145 39.5658 130.616 48.5565 120.427 47.7713C113.374 47.2296 110.859 39.5582 110.697 39.5582C111.458 39.3925 112.397 39.1413 112.771 39.0548C113.585 38.8611 114.322 38.4179 114.885 37.7842C115.447 37.1505 115.808 36.3563 115.919 35.5072C116.125 34.2329 115.775 27.7131 115.883 26.4238L126.71 28.901C126.559 31.6244 125.5 37.9375 129.211 39.0548C129.829 39.2399 130.494 39.4102 131.192 39.5721Z" fill="#E98862"/>
<path opacity="0.52" d="M126.865 36.4753C126.695 35.915 126.586 35.3374 126.539 34.7528C126.42 33.4186 126.444 32.0751 126.61 30.7463C124.409 30.4418 122.336 29.5106 120.626 28.0586C120.424 28.8198 119.319 32.1457 119.625 32.869C120.204 34.2365 122.923 36.4753 126.865 36.4753Z" fill="#0C0C0C"/>
<path d="M125.096 33.612C120.826 34.0056 115.314 32.2167 114.209 26.3814L113.211 21.1162C112.106 15.2794 114.2 9.95517 119.559 8.88858C124.919 7.82164 129.821 11.7548 130.927 17.5902L131.367 19.921C131.505 20.724 131.59 21.5358 131.62 22.3506C131.716 24.5046 131.853 27.7784 130.843 30.1985C129.89 32.4839 127.825 33.3608 125.096 33.612Z" fill="#E98862"/>
<path opacity="0.5" d="M125.741 27.8438C126.523 27.8287 127.291 27.6255 127.982 27.2504C127.997 27.2434 128.011 27.2334 128.022 27.221C128.033 27.2085 128.042 27.1938 128.047 27.1779C128.053 27.1619 128.055 27.145 128.054 27.1281C128.053 27.1113 128.048 27.0948 128.041 27.0797C128.034 27.0646 128.023 27.0512 128.011 27.0403C127.998 27.0294 127.983 27.0212 127.968 27.0162C127.952 27.0113 127.935 27.0097 127.919 27.0115C127.902 27.0133 127.887 27.0184 127.872 27.0267C126.381 27.7983 124.982 27.791 123.827 27.0079C123.804 26.9914 123.779 26.9761 123.755 26.9621C123.74 26.9548 123.725 26.9505 123.709 26.9495C123.693 26.9484 123.677 26.9506 123.661 26.9559C123.646 26.9612 123.632 26.9695 123.62 26.9804C123.608 26.9913 123.598 27.0045 123.591 27.0192C123.584 27.034 123.58 27.05 123.579 27.0664C123.578 27.0828 123.58 27.0993 123.585 27.1149C123.59 27.1304 123.598 27.1448 123.609 27.1571C123.62 27.1695 123.632 27.1796 123.647 27.1868C123.656 27.1921 123.671 27.2025 123.692 27.2167C124.299 27.6302 125.012 27.8485 125.741 27.8438Z" fill="#0C0C0C"/>
<path opacity="0.52" d="M125.779 29.0308C125.92 29.0304 126.061 29.0176 126.201 28.9926C126.217 28.9898 126.232 28.9839 126.245 28.9751C126.259 28.9664 126.271 28.955 126.28 28.9416C126.289 28.9282 126.296 28.913 126.299 28.897C126.303 28.881 126.303 28.8644 126.301 28.8482C126.298 28.832 126.292 28.8165 126.284 28.8026C126.275 28.7887 126.264 28.7767 126.251 28.7672C126.238 28.7577 126.223 28.7509 126.207 28.7473C126.192 28.7436 126.176 28.7431 126.16 28.7459C125.941 28.802 125.714 28.8097 125.493 28.7686C125.271 28.7275 125.061 28.6385 124.876 28.5076C124.851 28.4865 124.82 28.476 124.788 28.4784C124.756 28.4808 124.726 28.4958 124.705 28.5204C124.684 28.5449 124.673 28.577 124.675 28.6097C124.677 28.6423 124.691 28.673 124.714 28.6952C125.021 28.9299 125.397 29.0485 125.779 29.0308Z" fill="#0C0C0C"/>
<path d="M129.644 21.3922C130.016 21.3922 130.317 21.0836 130.317 20.703C130.317 20.3223 130.016 20.0137 129.644 20.0137C129.273 20.0137 128.972 20.3223 128.972 20.703C128.972 21.0836 129.273 21.3922 129.644 21.3922Z" fill="#0C0C0C"/>
<path d="M123.105 22.175C123.476 22.175 123.777 21.8664 123.777 21.4857C123.777 21.105 123.476 20.7964 123.105 20.7964C122.734 20.7964 122.433 21.105 122.433 21.4857C122.433 21.8664 122.734 22.175 123.105 22.175Z" fill="#0C0C0C"/>
<path d="M114.878 28.0931C113.249 28.4172 111.591 26.8938 111.274 25.2241C110.958 23.5543 112.104 22.371 113.733 22.0469L114.783 22.9985L116.278 27.8145L114.878 28.0931Z" fill="#E98862"/>
<path d="M116.027 25.1026C116.027 25.1026 115.117 16.7245 117.475 15.7593C119.045 15.1163 123.418 16.7533 126.954 15.3581C128.5 14.7473 130.093 14.8717 130.385 15.619C130.5 15.9146 130.719 11.3151 127.619 8.43044C125.15 6.13397 118.48 6.59361 115.66 8.02013C107.853 11.97 113.46 22.473 113.46 22.473L114.331 25.2579L116.027 25.1026Z" fill="#0C0C0C"/>
<g opacity="0.52">
<path d="M126.744 25.769H126.755C127.28 25.6648 128.15 25.433 128.077 25.0304C128.014 24.6965 126.45 21.2695 126.272 20.8801C126.265 20.8635 126.254 20.8486 126.241 20.8362C126.228 20.8239 126.212 20.8143 126.195 20.8081C126.178 20.8019 126.161 20.7991 126.143 20.8C126.125 20.8008 126.107 20.8052 126.091 20.813C126.075 20.8208 126.061 20.8318 126.048 20.8453C126.036 20.8588 126.027 20.8747 126.021 20.8919C126.015 20.9091 126.012 20.9274 126.013 20.9457C126.014 20.964 126.018 20.9819 126.026 20.9985C126.719 22.5161 127.766 24.8549 127.809 25.0825C127.775 25.1867 127.249 25.3879 126.706 25.4945C126.67 25.5 126.637 25.5199 126.616 25.5499C126.594 25.5798 126.585 25.6173 126.59 25.6542C126.596 25.691 126.615 25.7242 126.644 25.7464C126.673 25.7686 126.71 25.778 126.746 25.7725L126.744 25.769Z" fill="#0C0C0C"/>
</g>
<path d="M127.116 17.372C127.641 17.1137 128.225 17.0057 128.805 17.0593C129.09 17.0839 129.37 17.152 129.635 17.2615C129.896 17.3682 130.144 17.5082 130.371 17.6784C130.414 17.7083 130.443 17.7539 130.453 17.8055C130.463 17.8571 130.453 17.9107 130.426 17.9551C130.398 17.9994 130.355 18.031 130.305 18.0433C130.255 18.0555 130.202 18.0474 130.158 18.0206L130.143 18.0151C129.936 17.88 129.714 17.772 129.482 17.6937C129.253 17.6154 129.014 17.5731 128.773 17.5683C128.298 17.5547 127.828 17.6701 127.41 17.9028L127.393 17.9129C127.359 17.9328 127.321 17.9456 127.283 17.9507C127.244 17.9557 127.204 17.9529 127.167 17.9423C127.129 17.9318 127.093 17.9137 127.062 17.8891C127.032 17.8645 127.006 17.834 126.986 17.7991C126.967 17.7643 126.954 17.7259 126.949 17.6861C126.944 17.6463 126.947 17.6059 126.958 17.5672C126.968 17.5285 126.985 17.4923 127.009 17.4606C127.033 17.4289 127.063 17.4023 127.097 17.3824L127.116 17.372Z" fill="#0C0C0C"/>
<path d="M123.261 18.4402C122.804 18.3089 122.32 18.3038 121.86 18.4253C121.626 18.485 121.402 18.5807 121.196 18.7091C120.986 18.8385 120.793 18.9943 120.62 19.1729L120.609 19.1841C120.572 19.2209 120.523 19.2415 120.471 19.2413C120.419 19.2411 120.37 19.2203 120.333 19.1831C120.296 19.146 120.274 19.0956 120.273 19.0426C120.272 18.9897 120.291 18.9383 120.326 18.8995C120.511 18.6813 120.722 18.4878 120.954 18.3238C121.188 18.1566 121.446 18.0263 121.719 17.9372C121.991 17.8452 122.274 17.7919 122.561 17.7787C122.854 17.7622 123.148 17.7884 123.434 17.8566C123.511 17.875 123.577 17.924 123.619 17.9928C123.661 18.0616 123.674 18.1446 123.656 18.2234C123.638 18.3023 123.59 18.3706 123.523 18.4134C123.456 18.4561 123.375 18.4698 123.298 18.4513L123.281 18.4465L123.261 18.4402Z" fill="#0C0C0C"/>
<path d="M125.323 11.8215C126.486 11.3385 126.866 9.52485 126.173 7.77058C125.479 6.0163 123.974 4.98572 122.812 5.46872C121.649 5.95172 121.269 7.76539 121.962 9.51966C122.656 11.2739 124.161 12.3045 125.323 11.8215Z" fill="#0C0C0C"/>
<path d="M145.275 48.8615C145.316 51.7416 144.218 54.9796 143.852 59.3641C143.777 60.2535 143.601 62.213 143.367 64.7665C142.984 68.9947 142.442 74.8418 141.968 80.1123C135.182 83.7632 127.543 85.4172 119.897 84.891C112.251 84.3649 104.896 81.6792 98.6473 77.1314C98.4982 77.0167 98.3491 76.9055 98.2 76.7978C97.8034 70.8395 97.3357 64.5859 96.9087 60.6357C96.1055 53.2599 95.0108 49.5876 95.6242 47.107C95.6733 46.8958 95.7391 46.6889 95.8208 46.4886C97.5865 42.0971 103.209 40.1377 107.019 39.6096C109.344 39.2865 112.841 39.0537 112.841 39.0537C112.841 39.0537 113.136 45.1962 120.196 45.5366C129.807 46.0022 129.167 39.0537 129.214 39.0537C130.77 39.0537 139.246 40.2141 141.364 41.6316C141.719 41.8679 142.059 42.1279 142.381 42.4098C143.301 43.1967 144.039 44.1842 144.539 45.3003C145.04 46.4165 145.292 47.6331 145.275 48.8615Z" fill="#221EEA"/>
<path d="M109.887 53.316L98.6488 77.1319C98.4997 77.0172 98.3506 76.906 98.2015 76.7983C93.8448 73.5236 90.15 69.4128 87.3223 64.6941L95.6257 47.1075L95.9544 46.4092L109.887 53.316Z" fill="#221EEA"/>
<path d="M108.802 56.0568L98.5801 77.0794C98.5123 77.0273 98.4479 76.9786 98.3801 76.9335L108.588 55.9491C108.603 55.9199 108.628 55.8977 108.659 55.8873C108.689 55.8769 108.722 55.8791 108.751 55.8935C108.779 55.9082 108.8 55.9337 108.809 55.9643C108.819 55.995 108.816 56.0282 108.802 56.0568Z" fill="white"/>
<path d="M160.629 59.6008C158.592 64.334 155.731 68.6475 152.187 72.3304L143.368 64.767L132.167 55.1573L142.382 42.4103L142.413 42.3721L160.629 59.6008Z" fill="#221EEA"/>
<path d="M143.505 64.8604C143.534 64.8589 143.561 64.8468 143.582 64.8263C143.602 64.8058 143.615 64.7783 143.618 64.7489L144.2 57.7552C144.202 57.723 144.193 57.6909 144.172 57.6661C144.152 57.6412 144.123 57.6257 144.091 57.6229C144.06 57.6206 144.029 57.6309 144.005 57.6516C143.981 57.6724 143.966 57.702 143.962 57.7341L143.381 64.728C143.378 64.7603 143.388 64.7923 143.408 64.817C143.429 64.8418 143.458 64.8572 143.489 64.8601L143.505 64.8604Z" fill="white"/>
<path d="M317.86 268.992C339.696 268.992 357.397 250.847 357.397 228.463C357.397 206.079 339.696 187.934 317.86 187.934C296.025 187.934 278.323 206.079 278.323 228.463C278.323 250.847 296.025 268.992 317.86 268.992Z" fill="white"/>
<path opacity="0.09" d="M278.324 228.462C278.323 236.478 280.642 244.314 284.986 250.979C289.331 257.644 295.505 262.839 302.73 265.906C309.954 268.974 317.903 269.776 325.573 268.213C333.242 266.649 340.287 262.789 345.816 257.121C351.345 251.453 355.111 244.231 356.636 236.369C358.162 228.508 357.379 220.359 354.386 212.953C351.394 205.547 346.327 199.218 339.825 194.764C333.323 190.311 325.679 187.934 317.86 187.934C312.662 187.914 307.513 188.949 302.707 190.979C297.902 193.009 293.536 195.993 289.861 199.761C286.186 203.528 283.274 208.004 281.294 212.93C279.314 217.855 278.304 223.134 278.324 228.462Z" fill="#367CFF"/>
<path d="M335.801 206.098C335.169 213.602 335.755 216.147 338.794 220.447C341.358 224.072 326.77 220.99 320.316 219.812L326.011 202.747C326.011 202.747 336.022 203.463 335.801 206.098Z" fill="#0A0A0A"/>
<path d="M313.532 202.976C311.628 210.251 311.842 212.502 308.115 216.322C305.026 219.488 317.064 220.132 323.523 221.283L323.85 203.251C323.85 203.251 314.201 200.422 313.532 202.976Z" fill="#0A0A0A"/>
<path d="M314.173 224.134C314.216 224.128 314.689 232.173 323.806 231.472C330.118 230.987 332.368 224.123 332.513 224.123C331.792 224 331.08 223.823 330.384 223.593C329.39 223.046 328.16 222.476 327.84 220.498C327.655 219.357 327.969 213.523 327.872 212.368L318.184 214.585C318.319 217.022 319.268 222.671 315.947 223.671C315.393 223.837 314.798 223.989 314.173 224.134Z" fill="#FBBEA6"/>
<path opacity="0.5" d="M318.048 221.363C318.2 220.862 318.297 220.345 318.339 219.822C318.446 218.628 318.425 217.426 318.276 216.237C320.246 215.964 322.101 215.131 323.631 213.832C323.811 214.513 324.8 217.489 324.527 218.136C324.008 219.36 321.575 221.363 318.048 221.363Z" fill="#0C0C0C"/>
<path d="M319.301 218.857C323.121 219.236 328.063 217.67 329.086 212.455L330.01 207.75C331.034 202.536 329.192 197.757 324.403 196.769C319.613 195.781 315.203 199.27 314.18 204.484L313.771 206.568C313.378 208.568 312.485 218.182 319.301 218.857Z" fill="#FBBEA6"/>
<path d="M334.634 209.236L330.325 208.752C321.894 207.163 319.829 200.189 319.829 200.189C319.829 200.189 316.293 205.029 313.29 203.917C313.29 203.917 314.258 192.247 327.588 194.298C332.826 195.104 335.8 199.554 335.8 205.525C335.8 209.914 334.634 209.236 334.634 209.236Z" fill="#0A0A0A"/>
<path opacity="0.1" d="M322.965 211.306C323.02 210.834 322.555 210.388 321.926 210.311C321.298 210.234 320.744 210.555 320.689 211.028C320.634 211.501 321.099 211.946 321.727 212.023C322.356 212.1 322.91 211.779 322.965 211.306Z" fill="#0C0C0C"/>
<path opacity="0.1" d="M315.088 210.134C315.032 210.606 314.478 210.927 313.849 210.851C313.741 210.837 313.634 210.812 313.53 210.776C313.501 210.214 313.499 209.672 313.515 209.171C313.69 209.126 313.871 209.116 314.049 209.139C314.676 209.215 315.141 209.66 315.088 210.134Z" fill="#0C0C0C"/>
<path opacity="0.5" d="M317.864 211.593H317.855C317.661 211.552 317.469 211.5 317.281 211.436C317 211.34 316.632 211.182 316.683 210.921C316.741 210.624 318.165 207.582 318.327 207.236C318.333 207.221 318.343 207.207 318.355 207.195C318.367 207.184 318.381 207.175 318.397 207.169C318.412 207.163 318.429 207.16 318.445 207.161C318.462 207.162 318.478 207.166 318.493 207.174C318.507 207.181 318.521 207.191 318.532 207.204C318.543 207.217 318.551 207.231 318.556 207.247C318.561 207.263 318.563 207.28 318.562 207.297C318.561 207.314 318.556 207.331 318.549 207.346C317.942 208.641 316.964 210.771 316.924 210.971C317.217 211.174 317.552 211.303 317.903 211.346C317.934 211.352 317.962 211.371 317.979 211.398C317.997 211.425 318.005 211.457 318 211.49C317.995 211.522 317.978 211.55 317.953 211.57C317.927 211.59 317.896 211.599 317.864 211.595V211.593Z" fill="#0C0C0C"/>
<path d="M328.478 213.982C329.933 214.282 331.426 212.93 331.719 211.438C332.012 209.946 330.994 208.879 329.538 208.579L328.592 209.424L327.226 213.724L328.478 213.982Z" fill="#FBBEA6"/>
<path d="M317.296 204.808C317.116 204.677 316.92 204.572 316.713 204.495C316.504 204.414 316.284 204.364 316.061 204.345C315.838 204.323 315.613 204.336 315.393 204.382C315.172 204.429 314.957 204.503 314.754 204.604L314.748 204.607C314.726 204.615 314.702 204.615 314.68 204.606C314.658 204.596 314.641 204.579 314.631 204.558C314.621 204.536 314.619 204.511 314.626 204.488C314.633 204.465 314.647 204.446 314.668 204.433C314.883 204.317 315.112 204.229 315.348 204.17C315.587 204.111 315.833 204.089 316.078 204.104C316.574 204.133 317.054 204.297 317.468 204.58C317.498 204.602 317.518 204.635 317.524 204.673C317.531 204.71 317.523 204.748 317.502 204.78C317.481 204.811 317.449 204.833 317.413 204.84C317.377 204.848 317.339 204.841 317.308 204.82L317.305 204.818L317.296 204.808Z" fill="#0C0C0C"/>
<path d="M321.218 205.365C321.706 205.265 322.21 205.302 322.679 205.471C322.911 205.552 323.13 205.67 323.328 205.818C323.526 205.965 323.704 206.136 323.86 206.328C323.876 206.347 323.885 206.372 323.884 206.397C323.883 206.423 323.872 206.447 323.853 206.464C323.835 206.482 323.811 206.491 323.786 206.49C323.761 206.488 323.737 206.477 323.72 206.458L323.715 206.453C323.565 206.28 323.394 206.127 323.207 205.997C323.022 205.868 322.818 205.767 322.604 205.7C322.178 205.563 321.725 205.544 321.29 205.645L321.279 205.648C321.243 205.657 321.204 205.651 321.172 205.631C321.14 205.611 321.117 205.579 321.108 205.542C321.099 205.504 321.105 205.465 321.124 205.432C321.144 205.399 321.175 205.375 321.212 205.366L321.218 205.365Z" fill="#0C0C0C"/>
<path d="M299.492 264.358C297.937 263.663 296.775 262.92 294.12 260.87C292.205 259.397 290.425 257.747 288.803 255.941L302.431 229.358L303.023 228.204L315.315 234.828L304.653 255.628L304.604 255.72L304.696 256.09" fill="#FF8A00"/>
<path d="M344.813 242.974C344.455 246.916 344.378 253.046 344.402 258.497C339.264 263.275 332.989 266.582 326.208 268.085C319.427 269.589 312.38 269.235 305.774 267.061C304.966 258.841 303.764 246.761 303.086 239.323C302.4 231.619 300.381 229.074 305.892 225.385C308.928 223.8 313.742 223.661 315.906 223.661C315.172 230.963 330.185 231.862 330.558 223.661C341.788 224.737 346.986 225.004 344.813 242.974Z" fill="#FF8A00"/>
<path d="M316.584 212.621C317.825 213.268 319.242 213.472 320.609 213.202C320.656 213.193 320.705 213.198 320.75 213.216C320.795 213.234 320.834 213.265 320.862 213.305C320.89 213.345 320.907 213.393 320.909 213.442C320.912 213.492 320.901 213.541 320.878 213.584C320.471 214.32 319.503 215.579 317.845 215.066C316.774 214.735 316.369 213.607 316.218 212.907C316.207 212.859 316.211 212.808 316.227 212.761C316.244 212.715 316.273 212.674 316.312 212.644C316.35 212.613 316.396 212.595 316.445 212.591C316.493 212.587 316.542 212.597 316.584 212.621Z" fill="white"/>
<path d="M316.507 206.963C316.838 206.963 317.106 206.688 317.106 206.348C317.106 206.009 316.838 205.734 316.507 205.734C316.176 205.734 315.907 206.009 315.907 206.348C315.907 206.688 316.176 206.963 316.507 206.963Z" fill="#0C0C0C"/>
<path d="M322.271 207.997C322.602 207.997 322.871 207.722 322.871 207.382C322.871 207.043 322.602 206.768 322.271 206.768C321.94 206.768 321.672 207.043 321.672 207.382C321.672 207.722 321.94 207.997 322.271 207.997Z" fill="#0C0C0C"/>
<path d="M304.415 252.591H304.426C304.451 252.587 304.473 252.574 304.487 252.554C304.502 252.533 304.509 252.508 304.505 252.483L303.445 241.535C303.444 241.522 303.44 241.51 303.434 241.499C303.428 241.488 303.419 241.479 303.41 241.471C303.4 241.464 303.389 241.458 303.377 241.455C303.365 241.452 303.353 241.452 303.341 241.454C303.329 241.456 303.317 241.46 303.306 241.466C303.296 241.472 303.287 241.481 303.279 241.49C303.272 241.5 303.267 241.512 303.264 241.524C303.261 241.536 303.26 241.548 303.262 241.561L304.321 252.51C304.325 252.532 304.336 252.553 304.353 252.568C304.37 252.583 304.392 252.591 304.415 252.591Z" fill="#0C0C0C"/>
<path d="M303.028 244.253H292.207V257.858H303.028V244.253Z" fill="white"/>
<path d="M298.597 251.056C298.597 250.158 298.857 249.279 299.344 248.532C299.831 247.785 300.523 247.203 301.333 246.86C302.143 246.516 303.034 246.426 303.894 246.602C304.753 246.777 305.543 247.21 306.162 247.845C306.782 248.481 307.204 249.29 307.375 250.171C307.546 251.053 307.458 251.966 307.122 252.796C306.787 253.626 306.219 254.336 305.49 254.835C304.761 255.334 303.904 255.6 303.028 255.6C301.853 255.599 300.726 255.119 299.896 254.267C299.065 253.416 298.598 252.261 298.597 251.056ZM300.412 251.056C300.412 251.586 300.565 252.105 300.853 252.546C301.14 252.987 301.549 253.331 302.027 253.534C302.505 253.737 303.031 253.79 303.538 253.687C304.046 253.583 304.512 253.328 304.878 252.953C305.244 252.577 305.493 252.1 305.594 251.579C305.695 251.059 305.643 250.52 305.445 250.03C305.247 249.54 304.912 249.121 304.482 248.826C304.051 248.531 303.545 248.374 303.028 248.374C302.334 248.375 301.669 248.658 301.179 249.16C300.688 249.663 300.412 250.345 300.412 251.056Z" fill="white"/>
<path d="M302.942 252.739C302.979 252.508 303.093 252.299 303.265 252.146C303.437 251.994 303.656 251.908 303.883 251.905C303.877 251.895 303.873 251.885 303.87 251.874L303.548 251.802C303.323 251.757 303.121 251.633 302.975 251.452C302.829 251.271 302.749 251.044 302.747 250.809C302.749 250.662 302.783 250.517 302.847 250.385C302.91 250.253 303.001 250.137 303.114 250.045C303.226 249.954 303.357 249.889 303.497 249.855C303.637 249.822 303.782 249.82 303.922 249.852L304.683 250.02C304.683 250.017 304.683 250.014 304.683 250.011C304.684 250.005 304.687 249.999 304.689 249.993C304.491 249.897 304.33 249.736 304.233 249.535C304.136 249.334 304.108 249.105 304.155 248.886C304.238 248.309 304.912 248.12 305.406 248.229L307.376 248.59L306.711 248.139C306.501 247.99 306.355 247.765 306.3 247.509C306.246 247.254 306.289 246.987 306.419 246.762C306.49 246.649 306.584 246.551 306.693 246.476C306.802 246.4 306.925 246.348 307.055 246.323C307.184 246.298 307.317 246.301 307.446 246.33C307.574 246.359 307.695 246.415 307.802 246.494L315.739 255.805L313.977 254.986C313.43 255.81 312.655 256.449 311.752 256.819C310.849 257.189 309.858 257.275 308.907 257.064L304.603 256.102C304.379 256.057 304.176 255.933 304.03 255.752C303.884 255.571 303.804 255.344 303.802 255.109C303.806 254.898 303.875 254.692 304 254.524C304.124 254.355 304.299 254.232 304.497 254.171C304.491 254.157 304.488 254.14 304.49 254.124C304.493 254.109 304.499 254.095 304.508 254.083C304.517 254.07 304.529 254.061 304.543 254.055L303.748 253.879C303.498 253.829 303.275 253.683 303.126 253.472C302.976 253.26 302.911 252.998 302.942 252.739Z" fill="#FBBEA6"/>
<path opacity="0.2" d="M306.119 250.349C306.14 250.345 306.158 250.333 306.172 250.316C306.185 250.299 306.192 250.278 306.191 250.256C306.191 250.234 306.183 250.214 306.169 250.197C306.156 250.181 306.137 250.17 306.116 250.166L304.786 249.935C304.774 249.933 304.762 249.932 304.75 249.935C304.738 249.937 304.726 249.942 304.716 249.949C304.706 249.956 304.697 249.965 304.691 249.976C304.684 249.987 304.68 249.999 304.678 250.011C304.676 250.023 304.676 250.036 304.679 250.048C304.682 250.06 304.687 250.072 304.694 250.082C304.701 250.092 304.711 250.101 304.721 250.107C304.732 250.114 304.744 250.118 304.756 250.119L306.085 250.35C306.096 250.352 306.108 250.352 306.119 250.349Z" fill="#0C0C0C"/>
<path opacity="0.2" d="M305.8 252.277C305.821 252.272 305.839 252.261 305.853 252.244C305.866 252.227 305.873 252.206 305.873 252.184C305.872 252.162 305.865 252.141 305.851 252.125C305.837 252.108 305.818 252.097 305.798 252.093L303.976 251.762C303.964 251.759 303.952 251.759 303.94 251.761C303.927 251.763 303.916 251.768 303.905 251.775C303.895 251.782 303.886 251.791 303.879 251.802C303.873 251.812 303.868 251.824 303.866 251.837C303.864 251.849 303.864 251.862 303.867 251.874C303.87 251.887 303.875 251.898 303.882 251.909C303.89 251.919 303.899 251.927 303.91 251.934C303.92 251.94 303.932 251.944 303.944 251.946L305.766 252.277C305.777 252.279 305.789 252.279 305.8 252.277Z" fill="#0C0C0C"/>
<path opacity="0.2" d="M305.464 254.366C305.485 254.362 305.504 254.35 305.517 254.332C305.53 254.315 305.537 254.294 305.537 254.272C305.536 254.25 305.528 254.229 305.514 254.213C305.5 254.196 305.48 254.186 305.459 254.182L304.595 254.047C304.572 254.045 304.549 254.051 304.531 254.066C304.512 254.081 304.5 254.102 304.497 254.126C304.493 254.149 304.499 254.173 304.512 254.193C304.525 254.213 304.545 254.226 304.568 254.231L305.432 254.367C305.443 254.369 305.454 254.369 305.464 254.366Z" fill="#0C0C0C"/>
<path d="M350.326 251.589C345.457 258.767 338.459 264.144 330.372 266.922L330.369 266.919C328.572 266.559 311.437 259.623 309.17 259.168L311.651 247.307C318.019 248.606 329.633 253.614 336.038 254.918L331.52 233.917C331.356 232.989 331.373 232.038 331.571 231.117C331.769 230.196 332.143 229.325 332.672 228.554C333.201 227.783 333.874 227.127 334.651 226.624C335.429 226.121 336.297 225.782 337.204 225.626C338.111 225.469 339.039 225.499 339.934 225.713C340.83 225.927 341.675 226.321 342.421 226.873C343.167 227.424 343.798 228.122 344.279 228.926C344.76 229.729 345.08 230.623 345.222 231.554L350.326 251.589Z" fill="#FF8A00"/>
<path d="M340.893 256.463C340.916 256.462 340.938 256.453 340.955 256.437C340.971 256.421 340.982 256.399 340.983 256.375C340.985 256.351 340.978 256.328 340.964 256.309C340.95 256.291 340.929 256.278 340.907 256.274L336.091 254.599C336.079 254.597 336.067 254.598 336.055 254.601C336.043 254.604 336.032 254.609 336.022 254.617C336.012 254.624 336.004 254.633 335.998 254.644C335.992 254.655 335.988 254.667 335.986 254.679C335.982 254.704 335.988 254.729 336.003 254.75C336.018 254.77 336.04 254.783 336.064 254.787L340.879 256.462C340.884 256.463 340.888 256.463 340.893 256.463Z" fill="#0C0C0C"/>
<path d="M336.165 254.679C336.168 254.709 336.159 254.739 336.141 254.762C336.13 254.772 336.117 254.78 336.103 254.784C336.089 254.789 336.075 254.79 336.06 254.787L311.805 247.448L309.375 259.122L330.261 266.956C330.196 266.978 330.128 267 330.064 267.022C330.017 267.038 329.971 267.054 329.921 267.066L309.239 259.282C309.215 259.275 309.195 259.26 309.183 259.239C309.17 259.217 309.166 259.192 309.171 259.168L311.651 247.307C311.654 247.295 311.66 247.284 311.667 247.274C311.674 247.264 311.684 247.256 311.694 247.25C311.705 247.243 311.716 247.238 311.729 247.236C311.741 247.234 311.753 247.234 311.765 247.238L335.962 254.586L333.223 243.008C333.219 242.983 333.225 242.958 333.24 242.938C333.254 242.918 333.276 242.905 333.3 242.901C333.312 242.898 333.324 242.898 333.336 242.901C333.348 242.903 333.359 242.908 333.369 242.915C333.379 242.922 333.388 242.931 333.395 242.942C333.401 242.952 333.406 242.964 333.408 242.976L336.165 254.679Z" fill="#0C0C0C"/>
<path d="M19.8834 239.552C19.8608 239.552 19.8385 239.547 19.8176 239.538C19.7971 239.529 19.7785 239.517 19.7628 239.5C19.7472 239.484 19.7348 239.465 19.7264 239.444C19.718 239.423 19.7137 239.4 19.7139 239.377C19.714 239.354 19.7185 239.332 19.7272 239.311L26.3679 223.13C26.3853 223.088 26.4186 223.054 26.4602 223.037C26.5019 223.019 26.5486 223.02 26.59 223.038C26.6315 223.056 26.6643 223.09 26.6812 223.132C26.6981 223.175 26.6978 223.223 26.6803 223.265L20.0396 239.445C20.0267 239.477 20.005 239.504 19.9772 239.523C19.9494 239.542 19.9168 239.552 19.8834 239.552Z" fill="#0C0C0C"/>
<path d="M58.959 239.736H58.9515C58.9293 239.737 58.9071 239.733 58.8862 239.725C58.8653 239.718 58.846 239.706 58.8296 239.69C58.8132 239.675 58.7999 239.656 58.7904 239.636C58.781 239.615 58.7756 239.593 58.7746 239.57L58.0344 223.021C58.0339 222.975 58.0502 222.931 58.0801 222.897C58.1101 222.864 58.1514 222.843 58.1958 222.839C58.218 222.838 58.2403 222.841 58.2612 222.849C58.2822 222.857 58.3015 222.869 58.3179 222.884C58.3344 222.9 58.3477 222.918 58.3572 222.939C58.3666 222.96 58.372 222.982 58.373 223.005L59.1132 239.554C59.1154 239.599 59.1006 239.643 59.0718 239.677C59.0431 239.711 59.0026 239.732 58.959 239.736Z" fill="#0C0C0C"/>
</svg>
